<svg width="134" height="177" viewBox="0 0 134 177" fill="none" xmlns="http://www.w3.org/2000/svg">
<path d="M29.5813 77.088C35.1628 75.6675 45.4996 81.6604 50.8732 83.0706C61.9639 85.9927 72.8188 89.8002 83.7522 93.3761C93.7595 96.6558 103.899 101.473 113.979 103.381C106.578 111.214 97.484 116.331 88.9768 122.256C85.8866 124.416 79.4735 129.592 75.5109 129.041C74.2381 128.863 70.8814 125.809 69.5523 125.106C66.9343 123.725 64.2678 122.252 61.592 121.056C56.563 118.812 50.8968 116.53 45.6775 114.703C40.5885 112.917 36.5193 110.843 31.6089 108.792C26.6297 106.713 21.5812 104.779 16.5174 102.798C13.7319 101.705 11.0096 100.923 8.07039 100.282C6.36254 99.9132 1.18685 98.7081 1.63223 97.8764" fill="#5A9B74"/>
<path d="M1.83191 97.9804C1.86819 97.9977 1.86107 98.0014 1.8465 97.9909C1.84277 97.9838 1.78511 97.9776 1.83191 97.9804C1.84617 97.9729 1.84617 97.9729 1.85329 97.9692C1.87839 97.9652 1.9035 97.9611 1.93201 97.9462C1.93541 97.9354 1.932 97.9462 1.9537 97.953C2.03581 97.9192 2.12506 97.8816 2.2177 97.8332C2.16004 97.827 2.17331 97.7656 2.1027 97.8388C1.90042 97.9899 1.78883 97.9847 1.83191 97.9804Z" fill="#5F9E78"/>
<path d="M3.32086 98.9715C3.71296 98.9753 4.17877 98.877 4.02945 98.5739C3.61823 98.7072 3.56914 98.5786 3.09718 98.7346C2.79367 98.6574 2.63544 98.4588 2.72403 98.3853C2.59851 98.4055 2.33486 98.1441 2.13095 98.2053C2.3355 98.5793 2.8502 98.8002 3.4007 98.8119C3.48508 98.9038 3.35616 98.9349 3.32086 98.9715Z" fill="#5F9E78"/>
<path d="M32.0479 109.388L31.8842 109.283C31.9279 109.314 31.9825 109.349 32.0479 109.388Z" fill="#5F9E78"/>
<path d="M49.5868 116.679C49.4458 116.635 49.3847 116.64 49.367 116.658C49.5006 116.688 49.6054 116.715 49.5868 116.679Z" fill="#5F9E78"/>
<path d="M52.4973 118.115C52.4319 118.077 52.3847 118.056 52.3267 118.032C52.3779 118.078 52.4471 118.123 52.4973 118.115Z" fill="#5F9E78"/>
<path d="M32.0476 109.388L32.4806 109.661C32.5478 109.599 32.269 109.499 32.0476 109.388Z" fill="#5F9E78"/>
<path d="M7.52371 99.4607C7.41926 99.4518 7.32937 99.4534 7.23609 99.4659C7.32257 99.4751 7.40904 99.4843 7.49552 99.4936L7.52371 99.4607Z" fill="#5F9E78"/>
<path d="M24.1982 106.487L24.0496 106.428C24.0032 106.443 23.9496 106.462 23.8959 106.481L24.1982 106.487Z" fill="#5F9E78"/>
<path d="M18.2252 104.156C18.3595 104.221 18.4855 104.029 18.5741 103.955C18.4672 104.011 18.3522 104.017 18.2257 103.983C18.2012 104.023 18.2022 104.077 18.2252 104.156Z" fill="#5F9E78"/>
<path d="M8.72854 100.673L8.54132 100.662C8.59897 100.668 8.66003 100.663 8.72854 100.673Z" fill="#5F9E78"/>
<path d="M28.4483 108.23C28.4489 108.266 28.4604 108.305 28.4716 108.326C28.4855 108.301 28.474 108.262 28.4483 108.23Z" fill="#5F9E78"/>
<path d="M36.6267 78.8676C36.6302 78.8566 36.6336 78.8456 36.6333 78.8274C36.5972 78.8463 36.5756 78.8576 36.6267 78.8676Z" fill="#5F9E78"/>
<path d="M29.5948 77.0267L29.6949 76.9925L29.6926 76.8667L29.5948 77.0267Z" fill="#5F9E78"/>
<path d="M57.8473 120.627L57.8219 120.613C57.6666 120.576 57.7571 120.611 57.8473 120.627Z" fill="#5F9E78"/>
<path d="M105.517 112.05C104.902 112.262 106.161 111.233 105.29 111.615C105.413 111.642 104.815 112.408 105.517 112.05Z" fill="#5F9E78"/>
<path d="M7.68661 99.5296C7.76596 99.5426 7.85277 99.5698 7.94297 99.5862C7.82361 99.5488 7.74426 99.5358 7.68661 99.5296Z" fill="#5F9E78"/>
<path d="M105.294 111.622L105.198 111.663C105.233 111.645 105.255 111.634 105.294 111.622Z" fill="#5F9E78"/>
<path d="M69.9191 126.502C69.9218 126.455 69.8957 126.405 69.873 126.345C69.8591 126.37 69.8706 126.409 69.9191 126.502Z" fill="#5F9E78"/>
<path d="M61.2136 121.599L61.4282 121.731C61.3479 121.664 61.2753 121.63 61.2136 121.599Z" fill="#5F9E78"/>
<path d="M74.5024 129.351C74.6299 129.438 74.6668 129.492 74.8944 129.545C74.8761 129.527 74.8578 129.51 74.8395 129.492C74.7425 129.497 74.6377 129.47 74.5024 129.351Z" fill="#5F9E78"/>
<path d="M80.3405 128.595L80.2255 128.601L80.0616 128.686L80.3405 128.595Z" fill="#5F9E78"/>
<path d="M52.391 84.4637C52.2886 84.3721 52.2331 84.2832 52.1992 84.201C52.2384 84.3802 51.4479 84.2218 52.391 84.4637Z" fill="#5F9E78"/>
<path d="M7.49685 99.5839C7.54641 99.5398 7.58916 99.5175 7.68277 99.523C7.62138 99.5097 7.55661 99.5073 7.50235 99.4903C7.4779 99.5303 7.4677 99.5628 7.49685 99.5839Z" fill="#5F9E78"/>
<path d="M75.4573 127.844C75.5407 127.882 75.6315 127.935 75.6386 127.931L75.6495 127.934C75.6532 127.941 75.66 127.92 75.6502 127.97L75.644 128.028L75.6409 128.057L75.6412 128.075L75.6604 127.938L75.7431 127.94L75.9052 127.955C75.833 127.938 75.6675 127.934 75.6455 127.909C75.5912 127.892 75.5224 127.865 75.4573 127.844Z" fill="#5F9E78"/>
<path d="M89.8838 96.5134L89.6888 96.4702C89.7614 96.5048 89.8265 96.5253 89.8838 96.5134Z" fill="#5F9E78"/>
<path d="M78.0382 127.593C78.2007 127.626 78.3554 127.627 78.5168 127.606C78.545 127.573 78.5769 127.547 78.5871 127.515C78.4043 127.547 78.2211 127.561 78.0382 127.593Z" fill="#5F9E78"/>
<path d="M46.8648 82.7615C46.0556 82.5675 46.6319 82.6111 46.0122 82.1547C45.5207 82.2211 45.2931 81.7684 45.0544 82.0928C44.9116 81.7501 44.9389 81.8719 44.5329 81.4943C44.6639 81.7797 43.5514 81.3178 43.4841 81.5708C43.4023 81.2234 44.4192 81.5719 43.9204 81.0342C43.4241 81.0396 42.6066 80.7773 42.4208 81.0468C42.1259 80.8471 42.0222 80.6836 41.5289 80.4515C41.6018 80.5041 41.7202 80.4876 41.7846 80.472C40.8106 80.3098 39.5535 79.6059 38.9201 79.7827C39.2586 79.4062 37.0117 79.0654 37.8432 78.903C37.4563 78.7877 36.798 78.7779 36.6443 78.8311C36.786 78.512 35.7274 78.4483 35.359 78.1601C35.0956 78.3159 34.4219 78.051 33.9877 78.1056C34.1817 78.0949 34.2889 78.057 34.2402 77.9464C33.7449 78.0057 33.8868 77.8952 33.5084 77.6575C32.8538 77.6549 33.5855 77.9438 33.1774 78.0483C32.6423 77.8925 33.1264 77.8118 33.0516 77.6513L32.2006 77.9328C32.0379 77.8818 31.9321 77.801 31.8691 77.6978C31.5797 77.8037 31.356 77.966 30.9682 77.7967L31.6438 77.7702L31.3818 77.5987C31.1137 77.6934 30.8339 77.7308 30.5953 77.8646C29.4682 77.7914 29.6728 77.3669 29.6982 76.9816L30.2061 76.825C30.1679 76.6998 29.7901 76.6886 29.5533 76.7217C29.4343 76.7022 29.6152 76.5623 29.929 76.4164C30.2392 76.2633 30.6749 76.09 30.9767 76.0774C32.6205 76.0802 31.3254 76.4668 32.4002 76.6308C32.8636 76.5973 33.334 76.5601 33.7984 76.5805L33.7935 76.71C33.9935 76.8323 34.1425 76.7181 34.2104 76.6917C34.0871 76.8378 35.2908 76.9708 35.8262 77.1446L35.6714 76.9352C37.2866 76.9528 37.9027 78.0099 39.1039 78.2077L40 78.2383L40.088 78.5281C40.6066 78.5655 40.7587 78.4225 41.492 78.8013C44.0282 80.2338 47.0314 81.0321 49.6568 82.2185C49.6378 82.1649 49.5578 82.116 49.4086 82.0215C50.4968 82.7321 51.5089 82.8109 52.4925 82.9047C53.4723 82.9914 54.4267 83.0641 55.4686 83.5992L55.2932 83.6455C56.4275 83.9236 55.1141 83.6847 55.8939 84.0483C56.1343 83.8138 57.3899 84.2372 58.0713 84.3256C57.9495 84.353 57.7287 84.2778 57.5344 84.2705C57.6333 84.3731 57.6366 84.5528 57.9754 84.5935C58.8171 84.3985 60.3511 84.9032 61.5313 85.1301C61.6146 85.3588 62.5402 85.8276 62.9583 86.2805C63.0835 86.2422 63.3339 86.1658 63.588 86.0965C63.9629 86.3451 64.3011 86.3498 64.621 86.3368C64.2558 86.2283 63.9411 86.1297 63.6952 86.0586L63.7237 86.0437C63.6878 86.0443 63.6155 86.0277 63.565 86.0178C63.312 85.9504 63.1784 85.9204 63.2401 85.9517C62.8388 85.6352 63.3169 85.8208 63.3524 85.5936C63.725 85.7164 64.5122 85.8856 64.5479 86.0756C64.7687 86.1507 64.903 86.2167 65.1315 86.324C65.2827 86.3357 65.4414 86.3616 65.6011 86.4415L65.5184 86.4394C65.537 86.475 65.5628 86.5069 65.5956 86.5351C66.2921 86.8606 67.4178 86.8619 68.0588 86.9079C67.3841 86.9884 68.1155 87.2594 68.0472 87.4584C68.1228 87.4642 67.3809 87.2079 66.462 86.9079C66.524 86.9571 66.5643 86.9996 66.5622 87.0823C67.2934 87.5439 67.9839 87.3373 69.0902 87.8568C69.0074 87.8547 68.8419 87.8505 68.8795 87.9398C69.2677 88.127 69.6951 88.0941 69.8302 88.0054C69.8666 88.2313 70.7051 88.655 71.1629 88.7151C71.5903 88.6822 71.567 88.5855 72.2513 88.8357L71.9066 88.8707C72.6797 89.256 72.6335 88.89 73.2689 89.2202C73.0217 89.0772 72.9487 89.2152 73.1409 89.3053C74.0186 89.5088 74.057 89.4434 74.7571 89.3768L74.5768 89.5527C75.3341 89.665 76.7871 89.8582 76.7024 90.1475C76.6211 89.6274 78.3513 90.4379 78.9738 90.6568C78.7534 90.5997 78.6828 90.6729 78.6441 90.7203C80.0638 90.8674 81.3141 91.593 82.6491 92.0293L82.7533 92.4194C83.4694 92.6439 83.8726 92.0612 84.6436 92.3386L84.3139 92.4021C85.6951 92.8052 86.2349 93.0221 87.3182 93.463L87.2176 93.6698C87.6463 93.7088 88.135 93.8798 88.5603 93.9297C89.2623 94.7695 92.1897 94.9541 93.5851 96.1483L93.8412 95.7876C94.457 96.0283 95.281 96.2508 95.4574 96.6576L95.3197 96.6026C95.1377 96.8792 95.9355 96.8432 96.2918 97.0562C96.5953 97.1335 96.9641 97.0405 96.7312 96.89C98.2962 97.7143 100.812 98.3955 101.713 99.113C103.412 99.5679 104.766 99.6586 106.542 100.263L106.507 100.3C107.098 100.545 108.282 101.005 108.18 101.349C108.849 101.498 109.42 101.499 110.015 101.542C110.31 101.569 110.613 101.593 110.937 101.641C111.096 101.667 111.269 101.703 111.442 101.739C111.529 101.767 111.619 101.783 111.706 101.81C111.815 101.844 111.934 101.882 112.053 101.919L111.895 101.911L111.802 101.924L111.615 101.949C111.662 101.969 111.717 101.986 111.771 102.003C111.843 102.02 111.915 102.037 111.998 102.057C112.204 102.103 112.417 102.128 112.622 102.157C113.055 102.203 113.444 102.236 113.595 102.247C113.834 102.304 113.582 102.327 113.5 102.361C113.993 102.593 114.582 102.521 115.191 102.611L114.793 102.647C115.006 102.726 115.241 102.793 115.512 102.86C115.566 102.859 115.527 102.889 115.499 102.922L115.414 103.002L115.248 103.171C115.142 103.281 115.029 103.394 114.923 103.504C114.489 103.958 114.059 104.455 113.58 104.995C113.196 105.423 112.801 105.866 112.42 106.3C112.117 106.64 111.806 106.966 111.477 107.238C111.688 107.001 111.476 107.012 111.344 107.053C111.214 107.43 110.784 107.927 110.318 108.388C109.844 108.836 109.341 109.262 109.101 109.532L109.335 109.129C108.445 110.22 108.149 109.568 107.254 110.634L108.008 110.322C107.527 110.618 107.207 110.976 107.42 111.037C106.828 111.328 107.175 110.847 106.373 111.412C106.274 111.346 106.889 110.925 106.542 111.006L105.29 111.597C105.243 111.594 105.101 111.687 104.765 111.981C105.152 112.305 103.881 112.669 104.712 112.643C103.19 113.811 101.68 114.464 100.467 115.579C99.6427 115.565 97.7692 117.379 97.5641 116.779C96.7965 117.289 96.2445 117.795 95.9123 118.323C96.0911 118.266 96.2422 118.069 96.3838 117.94C96.2662 118.201 95.357 118.84 94.9731 119.095C95.4002 118.645 96.1439 118.002 96.4126 117.544C95.7457 118.056 94.9048 118.895 94.5545 119.214L94.1995 119.073C93.7424 119.657 93.5685 119.185 93.1558 119.836L93.3213 119.84C92.2333 120.536 92.3965 120.814 91.4309 121.518L91.407 121.385C91.0327 121.572 90.6981 122.164 90.2052 122.159L90.8409 121.709C90.6586 121.568 90.1058 121.83 89.8191 121.889C89.1668 122.411 89.7807 122.354 89.4546 122.615C89.1907 122.544 89.3563 122.548 89.4797 122.211C88.753 122.8 87.8036 123.605 87.4225 124.212C87.3685 124.213 87.3781 124.145 87.3781 124.145C86.5676 124.677 86.0894 125.481 85.4851 125.679L85.6229 125.543C84.8135 125.73 84.0975 126.912 83.6775 126.56C83.3128 126.678 84.3926 126.123 83.7578 126.228C82.6873 126.697 83.3478 127.023 82.3801 127.411C82.5121 127.351 82.4581 127.352 82.4677 127.283C81.8382 127.676 80.9877 128.184 80.2503 128.578C79.6967 128.595 78.994 128.917 78.218 129.169C77.4489 129.398 76.5777 129.554 75.979 129.259C76.3638 129.458 75.6623 129.452 75.6457 129.524C75.6457 129.524 75.6952 129.48 75.6515 129.449C75.4392 129.442 75.2625 129.416 75.1478 129.44C75.0294 129.456 74.9616 129.483 74.8608 129.481C74.5392 129.195 73.6656 129.017 73.525 128.8C73.4547 128.891 73.1846 128.67 72.8785 128.449C73.5715 128.785 73.2157 128.399 73.5942 128.446C72.7078 127.757 72.2533 128.086 71.3799 127.317L71.0032 126.77C70.7113 126.941 69.9393 126.21 69.8947 126.334C69.7942 126.141 69.6 125.943 69.7239 125.833C69.3577 125.671 68.8066 125.224 68.5487 125.286L68.9172 125.574C67.7127 124.797 66.7416 124.797 65.8766 124.097L66.1174 123.69C65.5578 123.175 64.7976 123.3 64.3707 122.761C64.4865 123 64.5581 122.98 64.0677 122.91C64.3006 123.061 64.8099 123.185 65.2202 123.397L64.2204 123.202L65.637 123.777C64.9764 123.642 65.0371 123.619 65.1827 123.915C64.2964 123.625 64.4011 123.253 63.5303 123.028C63.2713 122.827 63.6488 122.821 63.3638 122.57C62.5906 122.376 62.1632 121.61 61.5483 121.614C61.4022 121.491 61.8453 121.731 61.8576 121.616C61.3761 121.441 61.0459 121.278 60.8565 121.35L61.2383 121.576C60.8972 121.41 60.7597 121.563 60.1339 121.165C59.7083 121.097 59.3903 121.218 59.8145 121.404C59.6338 121.354 59.3087 121.079 59.498 121.007C58.4503 120.548 58.8011 121.253 57.876 120.612C57.9483 120.629 58.0348 120.638 58.0016 120.592C57.7653 120.452 57.555 120.362 57.3709 120.323C58.2834 120.662 57.24 119.847 58.2639 120.382C58.2516 120.098 57.48 119.993 57.1845 119.758C56.6008 119.7 56.9851 120.071 56.6795 120.076C56.7142 120.003 56.5039 119.914 56.2605 119.778L56.4309 120.052C56.2207 119.962 56.0105 119.872 55.7324 119.809L56.1875 119.916C55.7338 119.69 55.1407 119.111 54.2495 118.951C54.4944 118.968 54.9912 118.999 54.4749 118.688C53.5281 118.439 54.2922 118.529 53.8401 118.185C52.9279 117.863 53.5532 118.435 52.2723 117.807C52.1347 117.752 52.2237 117.905 52.3515 118.01C51.4768 117.569 50.9324 117.5 50.1005 117.037C50.4744 117.231 50.7473 117.406 50.1878 117.29C50.4673 117.235 49.5186 116.878 49.2053 116.661L49.0804 116.717C48.8395 116.516 49.1501 116.59 49.3848 116.64C49.3637 116.669 49.4295 116.725 49.6031 116.779C50.0616 116.876 50.0328 116.473 49.3584 116.172C48.5852 115.978 48.6155 116.261 48.7151 116.4C47.761 115.946 47.6445 116.469 46.7475 115.986C46.5301 115.9 45.9401 115.292 45.2552 115.006C44.825 115.085 46.0692 115.469 45.6058 115.503C44.6362 114.585 43.1034 114.951 41.7203 114.041L42.0121 113.87C41.6677 113.714 41.3374 113.551 40.9359 113.425L41.3881 113.77C41.0161 113.683 40.2214 113.291 40.5725 113.216C39.707 113.088 39.5993 112.899 38.9019 112.52C39.6563 112.869 38.8992 112.566 39.5089 112.674C38.756 112.206 38.6671 112.261 38.0845 112.067C38.2131 112.018 37.9783 111.759 37.7643 111.663C37.1803 111.587 36.3059 111.164 35.5534 110.922L35.5881 110.849C34.3393 110.404 33.1719 109.49 31.8537 109.19L31.7886 109.17L31.8832 109.229C32.2034 109.633 30.861 108.992 30.4395 108.95C30.3802 108.853 30.3817 108.735 30.1681 108.656C30.0641 108.874 29.6379 108.579 29.4191 108.612C29.03 108.371 29.5839 108.371 28.8487 108.093C28.5558 108.002 28.4821 108.104 28.4766 108.197C28.3692 108.026 27.9363 107.754 27.5626 107.577C27.7207 107.567 27.8963 107.729 27.9902 107.753C28.0856 107.658 27.8075 107.594 27.8768 107.449C27.5432 107.297 27.6528 107.593 27.2528 107.349L27.7273 107.337C27.5778 107.224 27.3259 107.211 27.2356 107.195C27.51 107.251 27.5498 107.067 27.5513 106.948C26.5034 106.679 27.1663 107.34 27.0363 107.507C26.1531 106.998 25.3211 106.934 24.586 106.656L24.8063 106.505C24.4411 106.396 24.2501 106.378 24.0852 106.41L23.5383 106.197C23.8846 106.251 24.0172 106.227 24.1079 106.071C23.5077 105.895 22.7242 105.524 22.4655 105.741L22.5008 105.704C21.7634 105.301 20.161 104.596 20.2496 104.522C19.3784 104.279 18.379 103.703 18.2543 103.968C17.7303 103.834 17.1021 103.101 16.6094 103.304C16.0912 102.885 16.6116 103.221 16.8681 103.087C16.3498 102.668 15.5702 102.912 15.5221 102.439C14.7824 102.308 15.6576 102.576 15.3536 102.672C15.3425 102.251 14.0818 102.148 13.4916 101.731C13.151 101.791 13.7611 101.916 13.2072 101.916C13.285 101.839 13.0205 101.732 12.8865 101.684L12.6815 101.882L12.1819 101.1C11.0883 101.091 12.2765 101.558 10.8979 101.299L10.9806 101.301C10.6831 100.958 9.97227 101.229 9.04765 100.814C9.36639 100.938 9.21527 100.736 9.33674 100.691L8.76795 100.661C8.82189 100.66 8.84326 100.649 8.79581 100.61C8.35545 100.323 8.35351 100.615 7.83411 100.333C8.23398 100.369 8.1619 100.161 8.00496 100.035L7.13624 100.126L7.54178 99.8776C6.77572 99.6792 5.48491 99.9003 5.21234 99.3441L5.61254 99.398C5.60379 99.3119 5.43309 99.02 4.87952 99.0372C4.70314 99.0296 4.54767 99.1834 4.76809 99.2406L4.39785 99.0531C4.64694 98.9047 5.61109 99.1175 6.22766 99.2035C6.01258 99.2434 5.52961 99.1873 5.64412 99.3543C6.19931 99.427 6.74575 99.4136 7.28977 99.4649C7.05671 99.5051 6.90027 99.605 6.77912 99.6684C7.33755 99.9209 7.2496 99.6311 7.70066 99.7129C7.85386 99.8324 7.95249 99.917 7.82017 99.9589C8.39269 99.9954 8.85088 100.073 9.41644 100.322C9.41644 100.322 8.71873 100.324 9.05334 100.53C10.1634 100.658 10.4475 100.455 11.6555 100.631C13.1198 100.655 14.1948 101.635 15.2032 101.707C15.2918 101.633 14.5665 101.305 15.1987 101.455C15.0215 101.602 15.5159 101.698 15.5175 101.788C16.2614 101.753 16.4493 102.199 16.9743 102.197C16.838 102.213 17.18 102.434 17.3987 102.592C17.2404 102.792 18.0635 102.961 17.0161 102.919C18.0957 102.953 18.6626 103.673 19.579 103.43L19.3566 103.265L20.2716 103.748L20.2316 103.724C20.6273 103.926 20.7203 103.895 21.1815 104.344C20.9146 104.302 20.5705 104.164 20.3181 104.132C20.7462 104.535 21.4376 104.382 22.0133 104.598C21.9226 104.755 21.4023 104.419 21.4862 104.683C21.8815 104.867 22.2702 104.881 22.6605 104.986L22.5682 105.052C23.4818 105.654 23.142 104.761 23.7425 105.355C23.7378 105.294 23.8525 105.27 23.8332 105.199C24.0671 105.403 24.6285 105.817 23.957 105.678C24.3011 105.816 24.7305 105.891 24.9422 105.862C24.7039 105.614 24.6076 105.656 24.564 105.434L25.993 105.893C26.1523 105.955 25.8426 105.936 25.647 105.856C27.0808 106.985 29.127 106.768 30.7367 108.077C30.5887 107.846 30.9223 107.998 31.1448 107.973C31.7253 108.25 32.6377 108.59 33.1544 108.919L32.9318 108.944C34.4008 109.428 35.4344 109.705 36.3312 110.171C36.3919 110.148 36.2581 110.309 36.0811 110.265C36.8422 110.384 37.4024 111.335 37.7672 111.026L37.531 110.886C38.8485 111.549 40.463 111.93 41.8858 112.448C42.1192 112.825 41.071 112.139 41.24 112.531C42.1733 113.033 43.2487 113.233 44.2896 113.714C44.1055 113.674 44.1278 113.717 44.0413 113.707C45.0475 114.261 44.011 113.424 44.9025 113.793C44.8108 113.895 44.844 113.941 45.124 114.112L45.4531 114.013C45.4863 114.059 45.4278 114.208 45.2698 114.218C45.7569 114.108 46.9151 114.709 47.3158 114.591C47.3713 114.68 47.0717 114.818 47.1604 114.953C47.6215 115.193 47.9817 115.223 48.3419 115.252C48.6205 115.542 49.4601 115.829 49.2688 115.793C50.1032 116.191 49.4615 115.71 50.1683 115.813L49.5215 115.443L50.7588 115.849L50.2325 115.779C50.763 116.082 51.4072 116.1 52.0592 116.358L51.8172 116.103L52.587 116.309C52.5566 116.615 53.5119 116.741 52.9789 116.902C54.2968 117.583 55.311 117.579 56.5679 118.075C56.3506 117.989 56.417 118.081 56.3562 118.104C57.0533 118.465 57.5468 118.507 58.0474 118.544C57.9188 118.593 57.7418 118.55 57.7071 118.622C58.5589 118.985 58.2908 118.68 59.2677 119.004C58.9513 119.006 59.0106 119.102 59.254 119.238C59.2592 119.127 59.5041 119.144 59.6919 119.191C58.7505 119.438 60.6465 119.871 60.0178 120.109C60.1132 120.014 61.6741 120.414 61.3539 120.01L61.083 119.943C61.116 119.78 61.4364 119.994 61.708 120.097C61.5635 120.064 61.4011 120.031 61.38 120.06C62.7971 120.462 64.1142 121.298 65.6322 121.911C65.4738 121.903 64.8407 121.699 65.1902 121.933C66.5968 122.75 67.5674 122.923 69.0749 123.55C68.963 123.926 67.4963 122.769 67.2715 123.068C68.0514 123.432 68.842 123.799 69.6612 124.151C69.8606 124.237 70.0671 124.32 70.3285 124.455C70.5536 124.574 70.7716 124.696 70.9824 124.821C71.3825 125.066 71.7971 125.321 72.2188 125.572C72.4175 126.421 73.8258 126.529 74.4979 127.502C74.5083 127.279 75.0277 127.561 75.4667 127.776C75.2594 127.848 75.691 128.049 75.5336 128.095C75.6811 128.1 75.6374 128.068 75.8745 128.053C76.0611 128.028 76.2487 128.057 76.4424 128.028C76.8267 128 77.1689 128.03 77.1755 128.198C77.2117 128.007 77.4661 127.956 77.7745 127.904C78.0788 127.826 78.4262 127.744 78.5847 127.562C79.2551 127.438 79.8759 126.959 80.6722 126.643C80.3043 126.581 81.372 126.159 81.6012 125.903C81.5303 125.958 81.3921 126.076 81.4427 126.086C81.7635 126.127 82.2152 125.446 82.6797 125.276C82.909 125.229 82.748 125.476 83.0579 125.305C82.9834 125.163 83.982 124.296 84.4977 124.171C84.3093 124.297 84.3466 124.368 84.2698 124.499C85.1588 123.735 86.1461 123.038 87.151 122.322C88.1523 121.599 89.1969 120.889 90.1029 120.071L89.899 120.531C91.3417 119.959 90.4795 119.611 91.5037 118.967C94.3031 117.24 97.365 115.703 99.8943 113.755C100.045 113.558 99.7287 113.751 99.6376 113.681C99.887 113.55 100.076 113.687 100.304 113.359L100.152 113.294C101.585 112.79 103.403 110.66 104.626 110.501C105.59 109.481 106.606 109.185 107.683 107.86C108.171 107.614 107.373 108.449 107.941 108.007L108.977 106.83L108.924 106.903C109.34 106.241 110.168 105.69 111.006 105.071C111.216 104.916 111.432 104.757 111.641 104.602L111.798 104.485C111.847 104.458 111.901 104.422 111.943 104.381C112.138 104.234 112.333 104.032 112.323 103.928L112.342 103.946C112.424 103.93 112.546 103.885 112.667 103.821C112.713 103.788 112.816 103.743 112.805 103.722C112.78 103.708 112.729 103.698 112.675 103.699C112.493 103.731 112.551 103.773 112.444 103.847C111.951 103.824 111.768 103.838 111.61 103.83L111.505 103.821L111.458 103.818L111.274 103.778C111.029 103.725 110.754 103.669 110.419 103.599C111.023 103.592 109.914 103.346 109.91 103.13C109.53 103.166 110.055 103.39 109.262 103.297C108.16 103.029 107.217 102.56 106.333 102.224C105.913 102.289 105.457 102.092 105.363 102.295C104.145 101.925 103.437 101.787 101.964 101.277L101.955 101.191C101.469 101.318 100.726 100.609 100.399 100.662C100.473 100.578 100.639 100.6 100.63 100.514L99.9335 100.361C100.276 100.39 100.542 100.206 100.006 99.9781C99.3688 99.9572 100.121 100.163 99.7834 100.212L99.7023 99.9009C99.2611 99.7685 99.0387 100.003 99.5398 100.267C98.0736 99.736 96.5914 99.3131 95.3087 98.7859L95.5082 98.6816C94.7707 98.4683 93.8002 98.1046 93.4243 97.802C93.389 97.8386 93.1845 97.8639 93.276 97.9521C92.3389 97.8431 93.2813 97.6499 92.2615 97.5388C92.5138 97.5702 92.8173 97.6475 92.8913 97.5634L91.074 97.107C91.1005 96.9843 90.1463 96.3217 89.3663 96.1487C89.3133 96.2036 89.4855 96.3768 89.674 96.4597L89.1864 96.3426L88.9272 95.9336L88.1539 95.9296L88.2287 95.6909C87.7048 95.5564 87.4031 95.7777 87.0009 95.6159C85.5284 94.9339 85.8632 94.9494 84.8492 94.3634C84.5724 94.7712 83.1191 93.7616 82.7312 93.9916C81.3785 93.1743 79.1827 92.6708 77.292 91.9352L77.4613 91.9465C76.708 91.4601 76.4152 91.9761 75.5523 91.5924L75.8006 91.5988C74.7428 90.9812 72.6776 90.5365 71.5309 90.3737C71.7792 90.38 71.7112 90.1978 71.3605 90.0998C71.0366 90.0877 71.5369 90.5066 70.9598 90.2185C71.1253 90.2227 71.0366 90.0877 70.9027 90.0397L70.227 90.0663C68.708 89.3995 66.914 88.6405 65.238 88.2463C64.9651 88.0714 65.2131 88.0598 65.302 88.0042C63.9863 87.6395 62.648 87.4226 61.4662 87.1058L61.4285 86.808C60.8533 86.6277 60.9445 87.0972 60.2781 86.6381C60.1255 86.5545 60.7732 86.7694 61.0168 86.7147C59.9244 86.1697 60.2624 86.7642 59.1661 86.4027L59.5472 86.1945C58.7518 85.7664 58.5341 86.0616 58.1759 86.14C56.8883 86.1416 57.4992 85.3142 55.8051 85.1109C55.5079 85.1846 55.8311 85.3514 55.5339 85.4251C54.4152 85.0209 54.2278 85.2005 53.1058 84.8071C52.6199 84.19 53.6806 84.9694 53.1411 84.3712L53.9817 84.7122C53.2975 84.2713 54.6745 84.84 54.6368 84.5421C54.0966 84.3073 53.1829 84.295 52.4256 84.1827C52.4831 83.9803 53.289 84.3938 53.0162 84.0282L52.6167 84.0102C52.7385 83.9829 52.7731 83.9103 52.9902 83.9783C52.9069 83.7496 52.549 83.846 52.1912 83.7517C52.1355 83.8535 52.1201 83.9976 52.1953 84.1761C52.1912 84.151 52.1655 84.1191 52.118 84.0804C51.7123 84.12 51.2104 84.0104 50.7299 83.8896C50.2348 83.7582 49.7359 83.6197 49.3835 83.6225C49.5053 83.5951 49.4182 83.5499 49.3992 83.4963C48.9645 83.3243 48.3946 83.4317 47.7805 83.2809C47.5131 83.0124 48.1193 82.9223 47.1504 82.6485C46.9184 82.7426 47.2283 83.1794 46.4458 82.8626C46.4532 82.8768 47.1823 83.0219 46.8648 82.7615ZM64.9504 87.8523C65.0372 87.8795 65.1745 87.9166 65.3336 87.9605C65.1383 87.8992 65.0335 87.8724 64.9504 87.8523ZM66.43 88.1313C66.2744 88.0766 66.1963 88.1356 66.2231 88.2214C66.4726 88.2996 66.7114 88.3744 66.8962 88.4502C66.6816 88.3174 66.3262 88.1584 66.43 88.1313ZM63.9385 85.9859L63.9778 85.9744C64.1657 86.0213 64.3031 86.0584 64.4187 86.0887C64.3998 86.0351 64.3266 85.9645 64.0739 85.9151C64.0166 85.9269 63.9775 85.9564 63.9385 85.9859Z" fill="#5F9E78"/>
<path d="M63.537 86.0507C63.4974 86.0442 63.4794 86.0445 63.4289 86.0347C63.4763 86.0734 63.5272 86.1012 63.56 86.1294L63.6673 86.0915L63.537 86.0507Z" fill="#5F9E78"/>
<path d="M31.855 109.262L31.8842 109.283C31.855 109.262 31.8367 109.244 31.8255 109.223C31.833 109.237 31.8404 109.251 31.855 109.262Z" fill="#5F9E78"/>
<path d="M88.1405 95.991L88.1612 95.9439L88.0065 95.9431L88.1405 95.991Z" fill="#5F9E78"/>
<path d="M23.7796 105.218C23.7684 105.196 23.7426 105.164 23.6915 105.118C23.6881 105.129 23.7284 105.172 23.7796 105.218Z" fill="#5F9E78"/>
<path d="M20.1814 103.732L19.7017 103.456C19.9054 103.586 20.058 103.669 20.1814 103.732Z" fill="#5F9E78"/>
<path d="M17.437 102.526C17.4053 102.552 17.3737 102.577 17.3454 102.592L17.3562 102.596L17.437 102.526Z" fill="#5F9E78"/>
<path d="M61.6365 120.134C61.6728 120.151 61.7162 120.165 61.7487 120.175C62.0159 120.235 61.8423 120.181 61.6365 120.134Z" fill="#5F9E78"/>
<path d="M48.2956 115.285C48.4578 115.301 48.609 115.312 48.7606 115.342C48.525 115.238 48.3439 115.17 48.2956 115.285Z" fill="#5F9E78"/>
<path d="M75.4026 127.81C75.4209 127.827 75.4427 127.834 75.4572 127.845C75.4427 127.834 75.4281 127.824 75.4026 127.81Z" fill="#5F9E78"/>
<path d="M49.3727 115.575C49.151 115.446 48.952 115.378 48.7607 115.342C48.9492 115.425 49.1706 115.536 49.3727 115.575Z" fill="#5F9E78"/>
<path d="M4.97933 98.7943L4.8454 98.7464C4.84573 98.7643 4.83147 98.7718 4.82435 98.7755L4.97933 98.7943Z" fill="#5F9E78"/>
<path d="M4.82418 98.7755L4.66919 98.7567C4.72717 98.7809 4.79228 98.8013 4.82418 98.7755Z" fill="#5F9E78"/>
<path d="M4.33413 98.7233L4.66209 98.7606C4.55358 98.7266 4.42337 98.6858 4.33413 98.7233Z" fill="#5F9E78"/>
<path d="M8.76734 99.8265L8.83081 99.7571C8.80231 99.772 8.78467 99.7903 8.76734 99.8265Z" fill="#5F9E78"/>
<path d="M9.95503 100.086C9.68002 99.9937 9.28711 99.7454 8.87638 99.7061L8.8234 99.761C9.04496 99.6815 9.6541 100.152 9.95503 100.086Z" fill="#5F9E78"/>
<path d="M14.4938 102.468L13.5698 102.089C13.7054 102.227 13.8921 102.41 13.4547 102.285C14.5561 102.934 13.2629 102.022 14.4938 102.468Z" fill="#5F9E78"/>
<path d="M17.3575 103.693C16.8366 103.53 17.3201 103.812 17.2739 103.846C17.6202 103.9 17.7067 103.91 17.3575 103.693Z" fill="#5F9E78"/>
<path d="M38.2317 112.262L38.1016 112.43C38.4926 112.57 38.1363 112.357 38.2317 112.262Z" fill="#5F9E78"/>
<path d="M42.618 112.963L42.2895 112.7L42.0432 112.801L42.618 112.963Z" fill="#5F9E78"/>
<path d="M44.4757 115.25L44.3024 115.213L44.9888 115.381L44.4757 115.25Z" fill="#5F9E78"/>
<path d="M79.4769 129.182L79.2614 128.995C79.0122 129.144 79.0463 129.434 79.4769 129.182Z" fill="#5F9E78"/>
<path d="M93.2534 120.058C93.4728 120.061 93.901 119.873 94.0654 119.615C93.7559 119.804 93.3949 119.929 93.2534 120.058Z" fill="#5F9E78"/>
<path d="M92.9171 95.5991L93.256 95.6397L92.6489 95.4852L92.9171 95.5991Z" fill="#5F9E78"/>
<path d="M2.27696 101.314C6.97717 97.6863 6.85887 82.133 8.15457 75.794C10.0784 66.3865 13.8655 55.1975 12.5189 45.331C17.1368 47.9166 21.8567 50.1766 26.8093 51.9792C39.0062 56.4099 51.1073 60.1195 63.6059 63.1313C69.624 64.5767 76.0019 66.0335 81.7476 68.5376C86.25 70.503 84.7249 71.89 83.7108 77.2924C81.9553 86.6573 77.408 95.1769 76.7209 104.954C76.28 111.227 77.8441 125.381 73.6299 129.435C69.3369 124.919 62.2636 124.388 57.0829 122.306C50.1163 119.514 43.1886 116.884 36.4908 113.843C26.2102 109.173 15.7462 103.301 5.38947 101.991" fill="#4B6956"/>
<path d="M5.53138 101.464C5.38109 101.506 5.43454 101.678 5.83068 101.706L6.15039 101.485L5.53138 101.464Z" fill="#4B6956"/>
<path d="M8.05447 102.386C8.52496 102.348 9.102 102.237 8.85567 101.94C8.35862 102.1 8.26648 101.975 7.727 102.176C7.33766 102.125 7.06879 101.975 7.15706 101.884C7.00677 101.926 6.5609 101.733 6.32233 101.867C6.79492 102.146 7.42609 102.242 8.12348 102.223C8.24721 102.303 8.09691 102.345 8.05447 102.386Z" fill="#4B6956"/>
<path d="M43.1135 117.105L42.8955 116.983C42.9538 117.025 43.03 117.067 43.1135 117.105Z" fill="#4B6956"/>
<path d="M65.2445 125.353C65.0745 125.305 64.9955 125.31 64.9778 125.329C65.1403 125.362 65.2811 125.388 65.2445 125.353Z" fill="#4B6956"/>
<path d="M68.8106 127.036C68.7306 126.987 68.676 126.952 68.6143 126.921C68.68 126.977 68.7529 127.03 68.8106 127.036Z" fill="#4B6956"/>
<path d="M43.1132 117.105L43.6621 117.426C43.7365 117.36 43.3855 117.244 43.1132 117.105Z" fill="#4B6956"/>
<path d="M13.3394 103.071C13.2058 103.041 13.0871 103.04 12.9863 103.038C13.0982 103.061 13.1993 103.081 13.3112 103.104L13.3394 103.071Z" fill="#4B6956"/>
<path d="M33.485 113.092L33.3074 113.012C33.2572 113.02 33.1927 113.036 33.1245 113.044L33.485 113.092Z" fill="#4B6956"/>
<path d="M26.2487 109.716C26.4121 109.803 26.5636 109.624 26.6667 109.561C26.5344 109.603 26.3974 109.584 26.2455 109.536C26.221 109.576 26.222 109.63 26.2487 109.716Z" fill="#4B6956"/>
<path d="M14.757 104.499L14.5332 104.452C14.6054 104.469 14.6776 104.486 14.757 104.499Z" fill="#4B6956"/>
<path d="M38.6789 115.512C38.6795 115.548 38.698 115.583 38.7165 115.619C38.7266 115.586 38.7081 115.551 38.6789 115.512Z" fill="#4B6956"/>
<path d="M6.97434 93.151C6.9567 93.1513 6.94605 93.148 6.93541 93.1446C6.95034 93.1902 6.9613 93.2112 6.97434 93.151Z" fill="#4B6956"/>
<path d="M2.26475 101.239L2.36014 101.143L2.30054 101.029L2.26475 101.239Z" fill="#4B6956"/>
<path d="M75.7158 128.426L75.6949 128.455C75.6167 128.667 75.6646 128.552 75.7158 128.426Z" fill="#4B6956"/>
<path d="M76.8839 65.6907C77.5571 66.1282 75.6079 65.5411 76.6433 66.1159C76.5658 66.0022 77.762 66.1209 76.8839 65.6907Z" fill="#4B6956"/>
<path d="M13.5316 103.161C13.6293 103.192 13.7378 103.226 13.8463 103.26C13.7015 103.208 13.6038 103.178 13.5316 103.161Z" fill="#4B6956"/>
<path d="M76.6405 66.1262L76.7521 66.1848C76.7017 66.1572 76.6765 66.1433 76.6405 66.1262Z" fill="#4B6956"/>
<path d="M77.613 111.157C77.574 111.186 77.5465 111.255 77.5118 111.328C77.5441 111.32 77.5722 111.287 77.613 111.157Z" fill="#4B6956"/>
<path d="M76.6668 123.909L76.7512 123.602C76.7101 123.714 76.6832 123.819 76.6668 123.909Z" fill="#4B6956"/>
<path d="M77.402 104.644C77.4313 104.474 77.47 104.427 77.4658 104.193C77.4519 104.218 77.4414 104.233 77.4274 104.258C77.4542 104.344 77.4598 104.459 77.402 104.644Z" fill="#4B6956"/>
<path d="M78.4839 97.9989C78.4594 98.0389 78.4384 98.068 78.4139 98.108L78.3782 98.3173L78.4839 97.9989Z" fill="#4B6956"/>
<path d="M9.83057 72.5957C9.73583 72.7269 9.64725 72.8004 9.55834 72.856C9.74426 72.7951 9.57858 73.7799 9.83057 72.5957Z" fill="#4B6956"/>
<path d="M13.3021 103.191C13.3625 103.15 13.4199 103.138 13.5318 103.161C13.4558 103.138 13.3799 103.114 13.3005 103.101C13.2794 103.13 13.2655 103.155 13.3021 103.191Z" fill="#4B6956"/>
<path d="M75.6576 104.222L75.7959 103.115C75.7366 103.418 75.6936 103.822 75.6576 104.222Z" fill="#4B6956"/>
<path d="M32.0176 54.7915L31.7721 54.7383C31.8626 54.7727 31.9457 54.7927 32.0176 54.7915Z" fill="#4B6956"/>
<path d="M76.2691 99.8371C76.3846 99.6588 76.46 99.4561 76.5355 99.2533C76.5274 99.2031 76.5264 99.1492 76.5078 99.1135C76.4221 99.3488 76.3511 99.5947 76.2691 99.8371Z" fill="#4B6956"/>
<path d="M8.64459 79.4395C8.64847 80.4537 8.54968 79.7613 8.26366 80.6548C8.44974 81.2018 8.07658 81.6509 8.45702 81.8059C8.16031 82.1061 8.274 82.0286 8.01535 82.6446C8.25878 82.3813 8.10216 83.8695 8.36437 83.8504C8.04838 84.0791 8.11772 82.7363 7.72934 83.5382C7.86587 84.1291 7.82392 85.1945 8.12467 85.3186C8.00288 85.7452 7.87314 85.9309 7.763 86.6055C7.78989 86.5007 7.74423 86.3612 7.72496 86.2897C7.80836 87.5254 7.36523 89.2813 7.64477 90.0244C7.24716 89.7151 7.1877 92.6042 6.91076 91.6058C6.84079 92.1141 6.8845 92.9442 6.93115 93.1376C6.59444 93.0141 6.59021 94.3773 6.24313 94.8763C6.3714 95.2085 6.07082 96.0915 6.00927 96.6681C6.04069 96.4157 6.02724 96.2685 5.90237 96.3247C5.85297 96.9766 5.7741 96.791 5.4335 97.2503C5.2547 98.1059 5.74526 97.1871 5.72647 97.7414C5.3721 98.4347 5.47173 97.7747 5.28952 97.8427C5.26782 98.2352 5.23186 98.635 5.17079 99.039C5.04139 99.2427 4.89952 99.3532 4.7672 99.3951C4.67731 99.7959 4.61997 100.207 4.1451 100.6C4.3414 100.316 4.52312 100.022 4.676 99.724C4.56604 99.8088 4.44521 99.89 4.32439 99.9714C4.18738 100.351 4.0144 100.732 3.80547 101.114C3.10791 101.723 2.70933 101.759 2.57475 101.675C2.42186 101.574 2.42445 101.318 2.3493 101.14C2.49393 100.983 2.6423 100.832 2.75778 100.654C2.65606 100.598 2.30786 100.835 2.10557 100.986C1.98782 101.038 2.10574 100.795 2.29118 100.508C2.37103 100.348 2.46853 100.17 2.56263 100.003C2.64927 99.8217 2.74337 99.6545 2.82014 99.5237C3.28917 98.8067 3.40317 98.7471 3.52627 98.7916C3.63105 98.8185 3.74831 98.9387 4.04761 98.383C4.21799 97.8585 4.33413 97.3169 4.44313 96.779L4.5659 96.8056C4.73093 96.5832 4.64122 96.3942 4.63619 96.3152C4.78665 96.4815 5.08805 95.0446 5.25616 94.3942L5.0403 94.5887C5.09246 92.6923 6.05044 91.7651 6.07344 90.2469L5.94615 89.1702L6.21971 88.9819C6.16157 88.3499 5.98664 88.2236 6.19169 87.2272C7.05316 83.7374 6.76749 79.8582 7.63447 76.2747C7.58119 76.3116 7.54006 76.4238 7.46831 76.6337C8.6652 73.5946 7.91729 71.6083 9.02704 68.9233L9.07028 69.1275C9.36116 67.7052 9.11013 69.3426 9.48782 68.3467C9.24553 68.0741 9.69902 66.4942 9.77741 65.6548C9.80883 65.8017 9.73465 66.0764 9.72461 66.3175C9.82648 66.1826 10.0059 66.1614 10.0487 65.7398C9.84366 64.74 10.3375 62.8034 10.4981 61.3402C10.7296 61.2102 11.1394 59.9979 11.5639 59.404C11.5182 59.2646 11.4194 58.9714 11.3277 58.6746C11.5381 58.1744 11.5056 57.765 11.4482 57.3776C11.381 57.8392 11.3199 58.2431 11.2752 58.5568L11.2603 58.5283C11.2684 58.5785 11.2555 58.6579 11.2497 58.7335C11.1978 59.051 11.1828 59.2131 11.2103 59.1443C10.9181 59.6962 11.0689 59.0821 10.8386 59.0754C10.9452 58.6023 11.0101 57.6157 11.1957 57.5368C11.2482 57.2553 11.2989 57.0746 11.3765 56.7891C11.3695 56.6022 11.3768 56.4078 11.4197 56.1948L11.4288 56.299C11.4678 56.2695 11.4886 56.2224 11.5167 56.1895C11.7485 55.279 11.5445 53.9339 11.4515 53.1659C11.6632 53.9354 11.7901 52.998 11.9954 53.0086C11.9866 52.9225 11.8922 53.8701 11.7589 55.0558C11.7932 54.9653 11.8353 54.907 11.9178 54.8911C12.2269 53.8856 11.922 53.1287 12.14 51.6537C12.1596 51.7433 12.192 51.9441 12.2734 51.8743C12.3611 51.3476 12.2227 50.8574 12.0946 50.7338C12.2938 50.6115 12.4675 49.4683 12.3567 48.9092C12.266 48.6662 12.1959 48.5668 12.1499 48.4094C12.1269 48.3307 12.1073 48.2411 12.0979 48.119C12.0932 48.0579 12.0919 47.986 12.0831 47.8999C12.0812 47.792 12.0755 47.677 12.0658 47.5369C12.124 47.7696 12.1758 47.8514 12.2286 47.9871C12.3002 46.7702 11.922 46.741 11.9332 45.5647C11.9199 46.0253 12.0884 46.1913 12.0859 45.8569C12.0137 45.441 11.9648 45.1218 11.9206 44.8636C11.8929 44.7239 11.8689 44.5912 11.8453 44.4765C11.8297 44.4121 11.8179 44.3547 11.8061 44.2974L11.8051 44.2435L11.8268 44.2503L11.8702 44.2639C12.1195 44.3241 12.2921 44.3246 12.8049 44.4377C12.7773 44.5065 12.7498 44.5753 12.7369 44.6547C13.0522 44.7893 13.44 44.9585 13.8388 45.1312C14.2704 45.332 14.72 45.5325 15.1333 45.7157C15.6518 45.9437 16.0474 46.1452 15.9852 46.2866C15.9358 45.7408 17.9115 47.0036 18.6408 47.3573C18.3835 47.2469 18.2912 47.3133 18.245 47.3465C19.9188 47.8234 21.3755 48.8223 22.9701 49.4949L23.0891 49.9135C23.9477 50.2541 24.4383 49.7346 25.3514 50.1102L24.9633 50.1315C26.614 50.7204 27.2661 50.9784 28.603 51.5226L28.5024 51.7294C29.0217 51.8028 29.6263 52.0221 30.1455 52.0955C31.0612 53.0141 34.6207 53.3492 36.4597 54.6109L36.7229 54.2465C37.4974 54.5131 38.5161 54.7609 38.7898 55.1803L38.6196 55.1151C38.4413 55.3988 39.3975 55.3708 39.862 55.5998C40.2448 55.69 40.6713 55.6032 40.377 55.4395C42.3853 56.3132 45.5384 57.0513 46.728 57.7996C48.8553 58.2935 50.5301 58.4252 52.7902 59.1039L52.7478 59.1442C53.4972 59.4148 54.9993 59.9452 54.9047 60.285C56.5658 60.6507 57.7348 60.457 59.6527 61.1059L59.1927 61.1285C59.6746 61.3212 60.5133 61.3637 60.7257 61.3707C60.8956 61.418 60.7524 61.4565 60.7137 61.5039C61.1568 61.7441 61.4747 61.6233 61.8607 61.6847L61.6822 61.7598C63.186 62.3801 65.7742 62.5062 67.7946 63.056C67.4124 63.0018 67.5775 63.1786 67.7158 63.2697C68.6439 63.0839 70.9003 63.7554 71.7733 63.8979L71.2089 63.9117C72.9243 64.1038 72.5249 64.6936 74.2336 64.9074L73.3545 64.4233C74.0065 64.6813 74.5871 64.768 74.4862 64.5576C75.2193 64.9184 74.4955 64.8703 75.6534 65.2631C75.67 65.3815 74.7941 65.0771 75.1368 65.3335L76.6544 66.119C76.6876 66.1652 76.8866 66.2335 77.418 66.3822C77.4374 65.8639 78.7421 66.8151 78.1068 66.0857C79.2465 66.4608 80.2511 66.9246 81.2123 67.3749C82.1664 67.8289 83.1233 68.236 84.141 68.8291C84.2077 68.9394 84.3076 69.0959 84.4327 69.2483C84.5648 69.3969 84.7014 69.5887 84.8528 69.809C85.1445 70.2281 85.3892 70.8351 85.4023 71.3636C85.4682 72.427 85.1861 73.137 84.9244 72.9835C84.6968 74.1277 84.5658 75.04 84.6618 75.7792C84.7515 75.569 84.7498 75.2705 84.7744 75.0399C84.8487 75.373 84.5813 76.7014 84.476 77.2464C84.4733 76.4947 84.628 75.2979 84.541 74.6628C84.3366 75.6952 84.2906 77.1346 84.2436 77.7217L83.8768 77.9226C83.9184 78.8354 83.4933 78.5948 83.5854 79.5175L83.7195 79.3748C83.3234 80.9429 83.6201 81.0419 83.2654 82.5157L83.1593 82.4169C82.9703 82.9058 83.0354 83.7247 82.6219 84.1314L82.8819 83.188C82.6413 83.2139 82.3375 83.9171 82.1341 84.2049C81.8826 85.2165 82.3725 84.661 82.2486 85.1703C81.9886 85.3153 82.1231 85.1906 82.0366 84.7821C81.7693 85.9199 81.3756 87.4232 81.3769 88.2935C81.3307 88.3267 81.3081 88.266 81.3081 88.266C80.9004 89.3955 80.9351 90.5206 80.5367 91.1644L80.583 90.9406C79.9972 91.7639 80.1128 93.3911 79.5667 93.4225C79.3438 93.8294 79.8799 92.4422 79.4272 93.069C78.8647 94.3883 79.5644 94.0952 79.0926 95.2582C79.1545 95.0988 79.1049 95.1429 79.0785 95.075C78.839 95.9533 78.5904 97.1267 78.4101 98.101C77.6999 99.2072 77.7676 101.767 77.1118 103.099C77.3452 102.677 77.2696 103.47 77.356 103.479C77.356 103.479 77.3154 103.419 77.2804 103.473C77.2176 103.978 77.3772 104.058 77.431 104.247C77.237 104.657 77.478 105.656 77.3746 105.91C77.4828 105.926 77.4398 106.33 77.4299 106.779C77.3343 105.868 77.1978 106.474 77.0394 106.067C76.949 107.439 77.4885 107.638 77.4099 109.067L77.2047 109.855C77.5241 110.015 77.4005 111.34 77.5223 111.313C77.4261 111.563 77.3715 111.927 77.2122 111.865C77.2944 112.439 77.1374 113.302 77.3251 113.539L77.4046 112.962C77.2928 114.745 77.7366 115.819 77.4881 117.201L77.0126 117.16C76.788 118.066 77.2123 118.861 76.8738 119.637C77.0453 119.374 77.0047 119.314 77.1269 119.913C77.1818 119.566 77.1017 118.91 77.1273 118.334L77.3368 119.585C77.336 118.941 77.3172 118.298 77.2913 117.658C77.4501 118.482 77.3951 118.429 77.6122 118.098C77.7126 119.28 77.3255 119.355 77.4249 120.483C77.3242 120.88 77.1906 120.451 77.0549 120.903C77.1344 121.923 76.5055 122.751 76.6375 123.489C76.5515 123.707 76.6914 123.089 76.5696 123.116C76.5094 123.765 76.4096 124.216 76.5034 124.43C76.5541 124.25 76.6156 124.072 76.6592 123.895C76.5563 124.375 76.7455 124.494 76.4055 125.389C76.3867 125.943 76.5014 126.319 76.6742 125.729C76.6319 125.978 76.3602 126.465 76.2769 126.236C76.0416 126.949 76.0923 127.168 76.1176 127.372C76.132 127.573 76.1644 127.774 75.7012 128.415C75.7389 128.314 75.7621 128.202 75.7125 128.246C75.6113 128.417 75.5168 128.566 75.4296 128.712C75.2933 128.937 75.1748 129.144 75.0627 129.312C75.3643 128.882 75.4636 128.603 75.4453 128.586C75.4406 128.524 75.3761 128.54 75.3225 128.559C75.2007 128.586 75.1614 128.598 75.5449 127.926C75.3834 127.946 75.2692 128.197 75.0841 128.502C74.8616 128.927 74.5519 129.307 74.3326 129.512C74.0497 129.977 74.0197 130.111 74.0787 130.189C74.1268 130.264 74.2275 130.266 74.0386 130.564C74.0305 130.514 73.9454 130.576 73.8109 130.701C73.7521 130.832 73.6559 130.682 73.561 130.605C73.4695 130.517 73.3634 130.418 73.2574 130.319L73.6856 130.93C73.291 130.592 72.9111 130.264 72.4155 129.906L73.2247 130.499C73.0162 130.309 72.7746 130.072 72.5363 129.825C72.331 129.605 72.1039 129.379 71.862 129.125C71.7152 128.966 71.5542 128.814 71.3644 128.659C71.1678 128.526 70.9532 128.393 70.7067 128.286C70.9709 128.375 71.5317 128.562 70.9979 128.079C69.9632 127.541 70.8214 127.863 70.3238 127.397C69.2782 126.855 69.996 127.569 68.5023 126.707C68.3355 126.631 68.4429 126.802 68.5961 126.921C67.5539 126.368 66.9116 126.25 65.8632 125.755C66.3274 125.966 66.6688 126.15 66.001 126.019C66.3345 125.962 65.1514 125.574 64.7483 125.358L64.6126 125.411C64.2959 125.204 64.6822 125.283 64.9708 125.332C64.9498 125.361 65.0443 125.421 65.2539 125.475C65.824 125.576 65.7375 125.167 64.8759 124.856C63.9084 124.654 63.9929 124.954 64.1248 125.085C62.9007 124.618 62.8351 125.169 61.6646 124.683C61.3862 124.602 60.5622 123.98 59.6934 123.672C59.1697 123.746 60.7452 124.157 60.1882 124.185C59.5323 123.711 58.7526 123.556 57.9079 123.381C57.0448 123.188 56.1563 122.981 55.2945 122.46L55.6298 122.303C55.2056 122.116 54.7814 121.93 54.2965 121.766L54.8718 122.155C54.4201 122.037 53.4267 121.595 53.832 121.537C52.7858 121.358 52.6167 121.156 51.7423 120.733C52.6954 121.133 51.7467 120.776 52.4975 120.928C51.535 120.406 51.4281 120.462 50.7048 120.241C50.8551 120.199 50.5372 119.92 50.2727 119.814C49.5588 119.715 48.4531 119.231 47.5094 118.953L47.5369 118.885C45.9774 118.366 44.4557 117.347 42.8333 116.934L42.7503 116.914L42.8665 116.98C43.2918 117.429 41.6054 116.65 41.1072 116.547C41.0262 116.445 41.0239 116.319 40.7595 116.212C40.6518 116.423 40.1168 116.076 39.858 116.084C39.3671 115.788 40.0373 115.855 39.1313 115.475C38.7729 115.345 38.6846 115.437 38.6937 115.541C38.5572 115.349 38.0188 115.013 37.5577 114.774C37.7487 114.792 37.9714 114.975 38.0907 115.012C38.2007 114.927 37.8643 114.822 37.9374 114.684C37.5237 114.483 37.6771 114.811 37.1859 114.496L37.7479 114.547C37.5584 114.41 37.2589 114.358 37.1504 114.324C37.4831 114.422 37.5192 114.231 37.5169 114.105C36.247 113.689 37.0774 114.462 36.9256 114.623C35.8421 113.974 34.8315 113.776 33.9432 113.378L34.2072 113.259C33.7653 113.09 33.5378 113.037 33.3329 113.044L32.6691 112.729C33.0882 112.836 33.2429 112.837 33.3444 112.684C32.613 112.413 31.6651 111.902 31.359 112.08L31.4051 112.047C30.5071 111.509 28.5722 110.515 28.6791 110.459C27.6255 110.075 26.4177 109.309 26.2713 109.567C25.6344 109.356 24.8672 108.496 24.2763 108.632C23.6414 108.129 24.2746 108.542 24.5786 108.447C23.9366 107.948 23.0109 108.069 22.9336 107.574C22.0336 107.328 23.0949 107.744 22.736 107.786C22.7103 107.355 21.2012 107.037 20.4866 106.503C20.0694 106.503 20.811 106.742 20.1331 106.642C20.2254 106.576 19.9097 106.424 19.75 106.344L19.4975 106.503L18.9132 105.611C17.5895 105.404 19.0047 106.098 17.3479 105.567L17.4561 105.583C17.1104 105.165 16.2359 105.332 15.1208 104.726C15.5019 104.917 15.3284 104.672 15.4719 104.651C15.2444 104.598 15.0134 104.555 14.7862 104.52C14.8547 104.529 14.8761 104.518 14.8249 104.472C14.3076 104.107 14.2877 104.399 13.6659 104.026C14.1461 104.128 14.0666 103.907 13.8877 103.755C13.5312 103.733 13.1784 103.718 12.8223 103.713L13.3258 103.514C12.3706 103.196 10.8007 103.3 10.424 102.753L10.9253 102.827C10.9057 102.737 10.6736 102.432 9.9759 102.434C9.75985 102.42 9.57927 102.578 9.86448 102.637L9.38977 102.441C9.67482 102.292 10.9127 102.525 11.6923 102.68C11.4335 102.688 10.8173 102.62 10.9715 102.794C11.6674 102.893 12.3447 102.956 13.023 103.073C12.7353 103.078 12.5355 103.165 12.3818 103.218C13.0711 103.547 12.9682 103.229 13.5284 103.381C13.7074 103.532 13.8315 103.631 13.67 103.651C14.3703 103.793 14.9268 103.938 15.5987 104.304C15.5987 104.304 14.7441 104.179 15.1445 104.441C16.4816 104.795 16.8524 104.619 18.3021 105.032C20.066 105.317 21.3356 106.513 22.5483 106.75C22.6515 106.687 21.7873 106.231 22.5401 106.491C22.3338 106.617 22.916 106.794 22.9247 106.88C23.8181 106.957 24.0429 107.457 24.6771 107.525C24.5153 107.527 24.9374 107.797 25.2035 107.993C25.0161 108.173 26.0178 108.475 24.7518 108.275C26.0537 108.474 26.7592 109.303 27.8471 109.197L27.5773 108.994L28.6896 109.646L28.6387 109.618C29.1185 109.894 29.226 109.874 29.7933 110.421C29.4752 110.333 29.0582 110.143 28.751 110.059C29.2668 110.542 30.1077 110.502 30.7895 110.817C30.6843 110.963 30.0507 110.532 30.1566 110.821C30.636 111.079 31.1013 111.153 31.5757 111.331L31.4688 111.387C32.5725 112.162 32.1484 111.177 32.8841 111.89C32.8757 111.822 33.0195 111.82 32.9894 111.745C33.2745 111.995 33.9599 112.508 33.1535 112.267C33.5742 112.464 34.0876 112.613 34.3393 112.609C34.0499 112.315 33.9352 112.339 33.8771 112.106L35.6087 112.798C35.801 112.888 35.4293 112.819 35.1936 112.716C36.9596 114.115 39.395 114.14 41.4115 115.672C41.2164 115.42 41.6334 115.61 41.8922 115.602C42.6072 115.963 43.7333 116.381 44.391 116.754L44.1251 116.766C45.9379 117.37 47.2242 117.696 48.363 118.226C48.4346 118.207 48.2937 118.371 48.0733 118.314C49.0076 118.47 49.8063 119.477 50.2 119.171L49.8986 119.011C51.5773 119.758 53.5781 120.218 55.3593 120.866C55.6795 121.27 54.3346 120.485 54.5832 120.908C55.7695 121.477 57.0955 121.809 58.3822 122.361C58.1513 122.319 58.1916 122.361 58.0797 122.338C59.3603 122.948 58.0135 122.055 59.125 122.463C59.0225 122.562 59.0665 122.612 59.4259 122.796L59.8198 122.699C59.871 122.745 59.8125 122.893 59.6256 122.9C60.2029 122.807 61.6813 123.413 62.161 123.29C62.2454 123.382 61.8956 123.528 62.0274 123.659C62.6252 123.9 63.0753 123.928 63.5037 123.949C63.8938 124.244 64.9491 124.527 64.7148 124.495C65.7869 124.915 64.9363 124.416 65.8124 124.529L64.9674 124.145C65.4951 124.287 66.0228 124.428 66.5436 124.592L65.8873 124.499C66.5695 124.832 67.3723 124.875 68.1912 125.209L67.8695 124.924C68.1948 125.008 68.5169 125.121 68.8353 125.227C68.8191 125.525 69.9935 125.828 69.3438 125.904C70.1544 126.379 70.8471 126.697 71.5259 127.041C71.8565 127.222 72.2081 127.374 72.5321 127.595C72.6996 127.707 72.8562 127.816 73.0274 127.935L73.144 128.019C73.144 128.019 73.1694 128.033 73.1877 128.051L73.2972 128.139C73.202 128.043 73.2073 128.14 73.1646 128.163C73.2564 128.269 73.3408 128.361 73.4211 128.428C73.4648 128.459 73.4977 128.488 73.5377 128.512L73.5886 128.54C73.6028 128.532 73.6202 128.496 73.6341 128.471C73.7492 128.274 73.7996 128.076 73.8042 127.928C73.8386 128.046 73.7904 128.162 73.828 128.251C74.0178 128.007 74.0019 127.925 74.0176 127.798C74.0541 127.625 74.0902 127.434 74.2853 126.887C74.2772 127.236 74.3733 127.177 74.5228 126.89C74.404 126.889 74.446 126.622 74.4781 126.405C74.7492 127.48 75.1432 125.196 75.4001 125.878C75.3337 125.786 75.5002 123.848 75.1423 124.343L75.1159 124.675C74.9541 124.678 75.1047 124.254 75.1633 123.915C75.1557 124.091 75.1555 124.282 75.181 124.296C75.3439 122.559 75.6996 120.74 75.6528 118.741C75.71 118.92 75.7676 119.725 75.8484 119.22C76.0394 117.242 75.745 116.071 75.6046 114.067C75.9913 113.973 75.64 116.235 76.0012 116.318C75.9558 114.201 75.7979 112.024 75.5788 109.643C76.1358 108.817 75.3356 107.321 75.8229 105.823C75.6349 105.966 75.5742 105.191 75.6566 104.376C75.7805 104.665 75.8694 103.811 75.953 104.058C75.8139 103.323 76.0609 101.262 76.4088 101.406C76.0806 101.161 76.6946 99.905 76.5612 99.2852C76.8838 98.427 76.901 97.3837 77.2919 96.3264C76.9705 96.6487 77.4662 95.2191 77.5019 94.8013C77.4824 94.9203 77.4507 95.1547 77.4965 95.1035C77.7722 94.8324 77.6818 93.809 77.9774 93.2462C78.1346 92.9916 78.1523 93.3725 78.3026 92.931C78.1469 92.8763 78.4801 91.205 78.8516 90.666C78.7595 90.941 78.8392 90.972 78.839 91.1626C79.47 88.2559 80.7994 85.3834 81.3073 82.4323L81.4113 83.013C82.2546 81.311 81.3232 81.7162 81.7331 80.3134C82.0036 79.3554 82.2774 78.3866 82.5188 77.4075C82.7669 76.4068 83.05 75.3515 83.3415 74.3643C83.6188 73.3847 83.9209 72.383 83.893 71.6354C83.8862 71.2578 83.7704 71.0189 83.5536 70.7603C83.3547 70.5013 82.998 70.2704 82.6166 70.0614C82.3494 70.0015 82.7057 70.2145 82.6612 70.3376C82.4422 70.1617 82.456 69.9277 82.0229 69.8456C82.0347 69.9029 82.0357 69.9568 82.0404 70.0179C81.4049 69.479 80.1452 69.0306 78.9943 68.6341C77.8326 68.2342 76.7183 67.873 76.1842 67.3719C74.481 67.0645 73.4322 66.3425 71.3135 66.1253C70.7076 65.8341 72.1184 66.0856 71.2612 65.8169L69.3212 65.5426L69.4328 65.5478C67.5185 65.4959 64.7205 63.9099 62.3383 63.6399L62.439 63.6416C62.513 63.5576 62.0665 63.3283 61.6914 63.2703C61.5482 63.3088 61.7873 63.4016 61.9876 63.5419C59.8955 63.2019 59.4475 63.0913 57.8183 62.6998C58.5527 62.7334 57.1908 62.4018 57.1797 62.1898C56.7198 62.2125 57.3752 62.4596 56.3944 62.3191C55.043 61.9729 53.8471 61.473 52.7505 61.0935C52.2515 61.1457 51.6687 60.9331 51.5789 61.1434C50.0645 60.7283 49.1841 60.5715 47.3363 60.0221L47.3096 59.9363C46.7291 60.0582 45.7447 59.3207 45.3536 59.3709C45.4276 59.2868 45.6403 59.3118 45.6098 59.2188L44.7437 59.0546C45.1615 59.0902 45.4639 58.9049 44.7871 58.6689C44.0097 58.6398 44.9416 58.8604 44.5467 58.9035L44.4079 58.5859C43.8552 58.4484 43.6148 58.6829 44.2601 58.9626C42.412 58.3952 40.5479 57.9361 38.9155 57.3648L39.1401 57.2565C38.2116 57.025 36.9922 56.619 36.4973 56.297C36.462 56.3336 36.2069 56.349 36.3347 56.4546C35.1812 56.3135 36.3041 56.153 35.0533 55.9993C35.3633 56.0369 35.7461 56.1271 35.8239 56.0502L33.5518 55.5049C33.5675 55.3787 32.3314 54.6457 31.3673 54.4329C31.3072 54.4915 31.537 54.6708 31.7689 54.7673L31.1585 54.6236L30.8017 54.1841L29.8547 54.1256L29.9187 53.8835C29.2717 53.7045 28.9123 53.9196 28.4088 53.7201C26.5558 52.8831 26.9706 52.9475 25.6915 52.2189C25.3676 52.6059 23.5506 51.3691 23.0823 51.5321C21.4304 50.4721 18.7804 49.5164 16.5713 48.2758L16.7738 48.3333C15.9054 47.644 15.5142 48.0934 14.5138 47.464L14.8065 47.5379C14.657 47.4255 14.4858 47.3063 14.3038 47.1837C14.2126 47.1134 14.1397 47.0608 14.038 47.005C13.8526 46.8933 13.642 46.7856 13.4755 46.7274C13.3515 46.629 13.4344 46.8397 13.4543 46.9472C13.4817 47.069 13.5162 47.1871 13.5503 47.2872C13.5845 47.3873 13.6184 47.4694 13.6448 47.5372C13.6597 47.5657 13.6712 47.6051 13.6895 47.6227C13.7044 47.6512 13.7183 47.6258 13.7314 47.7551C13.6488 47.5623 13.4982 47.5866 13.5395 48.0822C13.6545 48.4758 13.8559 47.6809 13.7989 48.5091C13.7448 48.3015 13.6436 48.4724 13.6506 48.6593C13.7453 48.9273 13.8292 49.192 13.8989 49.464C13.7753 51.5883 13.3947 54.0193 13.2429 56.1764C13.1096 56.5636 13.061 56.2624 12.9943 56.1521C12.8236 57.8564 12.7139 59.556 12.4681 61.0818L12.1678 61.1843C12.0193 61.9243 12.4797 61.7289 12.0465 62.6359C11.9639 62.8424 12.1572 61.9973 12.091 61.7144C11.581 63.1514 12.176 62.6408 11.838 64.0423L11.6179 63.6039C11.2015 64.6473 11.5076 64.8683 11.591 65.3056C11.5981 66.8988 10.7663 66.2448 10.5417 68.3493C10.6129 68.7113 10.7852 68.2945 10.8565 68.6565C10.4361 70.074 10.6055 70.2939 10.1921 71.7076C9.56747 72.3699 10.3661 70.9816 9.74985 71.712L10.1083 70.6445C9.64586 71.5305 10.2545 69.7787 9.95019 69.8561C9.70368 70.5475 9.67355 71.6702 9.55029 72.6148C9.34445 72.5681 9.77915 71.5424 9.40438 71.9017L9.37717 72.3877C9.34574 72.2408 9.2732 72.2061 9.34738 71.9315C9.11934 72.0507 9.20615 72.4771 9.1101 72.9356C9.20469 72.995 9.35936 72.9958 9.53719 72.8847C9.51581 72.8959 9.47677 72.9254 9.43838 72.9908C9.51725 73.9749 8.95493 75.5028 9.03429 76.3142C8.99234 76.1819 8.95461 76.2833 8.90133 76.3202C8.7852 76.8618 8.96884 77.4735 8.94649 78.2292C8.74501 78.6249 8.52037 77.9348 8.45963 79.1551C8.60425 79.3971 8.96188 78.8835 8.83991 79.8999C8.85757 79.8816 8.8234 78.9831 8.64459 79.4395ZM12.884 56.618C12.8963 56.5027 12.911 56.3226 12.9397 56.1171C12.912 56.3766 12.8966 56.5207 12.884 56.618ZM12.9436 54.7359C12.9187 54.9486 12.9847 55.0229 13.0737 54.9674C13.1109 54.6394 13.1448 54.3223 13.169 54.0737C13.0701 54.3704 12.9781 54.854 12.9436 54.7359ZM11.1405 58.2643L11.1182 58.2216C11.1428 57.9909 11.1612 57.818 11.1837 57.6701C11.1305 57.707 11.071 57.8016 11.0551 58.1184C11.0707 58.1829 11.1002 58.2219 11.1405 58.2643Z" fill="#4B6956"/>
<path d="M11.2498 58.7335C11.247 58.7803 11.2511 58.8054 11.2378 58.8668C11.2653 58.7979 11.2966 58.7362 11.3244 58.6854L11.272 58.5676L11.2498 58.7335Z" fill="#4B6956"/>
<path d="M42.8592 116.966L42.8992 116.99C42.8663 116.962 42.8409 116.948 42.826 116.919C42.8372 116.941 42.848 116.944 42.8592 116.966Z" fill="#4B6956"/>
<path d="M29.8372 54.1437L29.8543 54.0894L29.667 54.0784L29.8372 54.1437Z" fill="#4B6956"/>
<path d="M32.9492 111.702C32.9343 111.674 32.9048 111.635 32.8428 111.586C32.836 111.607 32.8872 111.653 32.9492 111.702Z" fill="#4B6956"/>
<path d="M28.595 109.587L28.0129 109.22C28.2641 109.388 28.4496 109.499 28.595 109.587Z" fill="#4B6956"/>
<path d="M25.2668 107.906C25.2281 107.935 25.1891 107.947 25.1608 107.961L25.1716 107.965L25.2668 107.906Z" fill="#4B6956"/>
<path d="M75.1377 123.883C75.1475 123.833 75.1503 123.786 75.1568 123.746C75.1581 123.419 75.144 123.635 75.1377 123.883Z" fill="#4B6956"/>
<path d="M63.4709 123.921C63.6653 123.928 63.8562 123.946 64.0437 123.975C63.747 123.876 63.5154 123.798 63.4709 123.921Z" fill="#4B6956"/>
<path d="M75.6381 104.34L75.6418 104.347L75.6575 104.222L75.6381 104.34Z" fill="#4B6956"/>
<path d="M64.8319 124.216C64.5454 124.085 64.2852 124.021 64.0472 123.982C64.2896 124.064 64.5721 124.17 64.8319 124.216Z" fill="#4B6956"/>
<path d="M10.104 102.158L9.92331 102.108C9.92364 102.126 9.9094 102.133 9.89514 102.14L10.104 102.158Z" fill="#4B6956"/>
<path d="M9.90225 102.137L9.70044 102.115C9.78353 102.135 9.86661 102.155 9.90225 102.137Z" fill="#4B6956"/>
<path d="M9.2719 102.076C9.41231 102.085 9.55646 102.1 9.69347 102.119C9.55241 102.075 9.38251 102.028 9.2719 102.076Z" fill="#4B6956"/>
<path d="M14.8535 103.659L14.9316 103.6C14.8957 103.6 14.8709 103.622 14.8535 103.659Z" fill="#4B6956"/>
<path d="M16.2827 104.137C15.9494 104.003 15.4935 103.651 14.9953 103.549L14.9315 103.6C15.2039 103.548 15.916 104.147 16.2827 104.137Z" fill="#4B6956"/>
<path d="M21.7079 107.398L20.5829 106.843C20.7513 107.009 20.9638 107.225 20.4423 107.026C21.7885 107.882 20.2245 106.713 21.7079 107.398Z" fill="#4B6956"/>
<path d="M25.1947 109.105C24.5681 108.861 25.1573 109.224 25.1003 109.254C25.5158 109.354 25.6205 109.381 25.1947 109.105Z" fill="#4B6956"/>
<path d="M50.9309 120.413L50.79 120.578C51.2857 120.745 50.8247 120.505 50.9309 120.413Z" fill="#4B6956"/>
<path d="M56.3115 121.403L55.8887 121.097L55.599 121.185L56.3115 121.403Z" fill="#4B6956"/>
<path d="M58.8054 123.882L58.5816 123.836C58.8742 123.91 59.1557 123.962 59.4446 124.029L58.8054 123.882Z" fill="#4B6956"/>
<path d="M78.4193 99.2125L78.137 99.3147C78.1071 99.6569 78.3648 99.7854 78.4193 99.2125Z" fill="#4B6956"/>
<path d="M83.8175 79.6144C84.0012 79.4277 84.2035 78.8773 84.1499 78.4971C84.043 78.9522 83.8384 79.3767 83.8175 79.6144Z" fill="#4B6956"/>
<path d="M35.6069 53.986L36.0142 54.0362L35.2665 53.8555L35.6069 53.986Z" fill="#4B6956"/>
</svg>
