<svg width="189" height="194" viewBox="0 0 189 194" fill="none" xmlns="http://www.w3.org/2000/svg">
<path d="M-23.8144 70.3635C-18.6438 69.1387 -9.20033 74.8254 -4.26498 76.2086C5.92105 79.0741 15.876 82.7529 25.9069 86.2191C35.0881 89.398 44.3675 93.9966 53.6365 95.9113C46.6892 103.024 38.2222 107.604 30.2837 112.94C27.4 114.885 21.4048 119.562 17.7579 118.993C16.5865 118.809 13.5368 115.94 12.3216 115.271C9.92774 113.958 7.49059 112.558 5.04053 111.413C0.435881 109.266 -4.75607 107.074 -9.54266 105.309C-14.2098 103.584 -17.9317 101.608 -22.4299 99.6403C-26.9912 97.6461 -31.6187 95.7847 -36.2595 93.8802C-38.8122 92.8287 -41.3115 92.0658 -44.013 91.4293C-45.5828 91.0632 -50.3388 89.8721 -49.9152 89.1118" fill="#4B6956"/>
<path d="M1.59263 110.959L1.5695 110.946C1.42737 110.91 1.51001 110.943 1.59263 110.959Z" fill="#4B6956"/>
<path d="M45.6982 103.778C45.1278 103.965 46.3043 103.034 45.4952 103.374C45.6081 103.4 45.045 104.098 45.6982 103.778Z" fill="#4B6956"/>
<path d="M45.4985 103.381L45.4085 103.418C45.4418 103.401 45.4618 103.391 45.4985 103.381Z" fill="#4B6956"/>
<path d="M12.6385 116.564C12.6417 116.521 12.6185 116.475 12.5986 116.418C12.5855 116.442 12.5954 116.478 12.6385 116.564Z" fill="#4B6956"/>
<path d="M4.68281 111.908L4.87903 112.034C4.80584 111.971 4.73934 111.938 4.68281 111.908Z" fill="#4B6956"/>
<path d="M16.8224 119.263C16.9388 119.346 16.9721 119.396 17.1815 119.448C17.1649 119.432 17.1483 119.415 17.1316 119.399C17.0419 119.402 16.9455 119.376 16.8224 119.263Z" fill="#4B6956"/>
<path d="M22.2199 118.655L22.1136 118.658L21.9609 118.735L22.2199 118.655Z" fill="#4B6956"/>
<path d="M17.7262 117.888C17.8026 117.924 17.8858 117.974 17.8924 117.971L17.9024 117.974C17.9057 117.981 17.9124 117.961 17.9024 118.007L17.8959 118.06L17.8926 118.087L17.8926 118.104L17.9124 117.977L17.9888 117.981L18.1383 117.997C18.0719 117.98 17.919 117.974 17.899 117.951C17.8492 117.934 17.786 117.908 17.7262 117.888Z" fill="#4B6956"/>
<path d="M31.5147 89.2067L31.3362 89.164C31.4023 89.197 31.4618 89.2167 31.5147 89.2067Z" fill="#4B6956"/>
<path d="M20.1108 117.696C20.2604 117.729 20.4033 117.732 20.5528 117.715C20.5793 117.685 20.6092 117.662 20.6191 117.632C20.4497 117.659 20.2802 117.669 20.1108 117.696Z" fill="#4B6956"/>
<path d="M-7.95786 75.8617C-8.70129 75.6703 -8.17039 75.7193 -8.735 75.2888C-9.18945 75.3426 -9.39241 74.9215 -9.6176 75.2171C-9.74412 74.8987 -9.72075 75.0115 -10.0895 74.657C-9.97301 74.9223 -10.9922 74.4791 -11.0582 74.7115C-11.1283 74.3898 -10.1956 74.7269 -10.6475 74.2232C-11.1053 74.2205 -11.8555 73.9661 -12.031 74.2119C-12.3 74.0231 -12.3931 73.8706 -12.8446 73.649C-12.7782 73.6987 -12.6687 73.6852 -12.609 73.6719C-13.505 73.5072 -14.6539 72.8387 -15.2409 72.9921C-14.9229 72.6499 -16.9903 72.3012 -16.2208 72.1641C-16.5759 72.0517 -17.1831 72.0327 -17.3257 72.0793C-17.1901 71.7872 -18.1656 71.7122 -18.501 71.4407C-18.7464 71.5803 -19.3638 71.3257 -19.7652 71.3694C-19.586 71.3625 -19.4866 71.3292 -19.5298 71.2264C-19.9876 71.2735 -19.855 71.1738 -20.2004 70.9487C-20.8042 70.9363 -20.1337 71.214 -20.5118 71.3041C-21.003 71.1522 -20.5552 71.0852 -20.6218 70.936L-21.411 71.1826C-21.5604 71.1331 -21.6567 71.0569 -21.7132 70.9607C-21.9818 71.054 -22.1907 71.2003 -22.5459 71.0382L-21.9222 71.0241L-22.1613 70.8618C-22.41 70.9451 -22.6687 70.9754 -22.8908 71.0951C-23.9294 71.0103 -23.7342 70.6218 -23.7048 70.2668L-23.2339 70.1301C-23.2673 70.0141 -23.6156 69.998 -23.8346 70.0248C-23.9441 70.005 -23.775 69.8787 -23.4833 69.7489C-23.1948 69.6125 -22.7903 69.4593 -22.5116 69.4523C-20.9954 69.48 -22.1959 69.8168 -21.207 69.9846C-20.779 69.9608 -20.3445 69.9337 -19.9165 69.9596L-19.9229 70.0791C-19.7403 70.1949 -19.6011 70.0919 -19.5381 70.0686C-19.654 70.2014 -18.5457 70.3426 -18.0545 70.5111L-18.1941 70.3155C-16.7044 70.3566 -16.1523 71.3412 -15.0472 71.542L-14.221 71.584L-14.1443 71.8526C-13.6665 71.8951 -13.524 71.7655 -12.8534 72.1262C-10.5357 73.4865 -7.7776 74.269 -5.374 75.4036C-5.39066 75.3538 -5.46372 75.3075 -5.59987 75.2181C-4.60694 75.8902 -3.67453 75.9785 -2.76865 76.0801C-1.8661 76.175 -0.986818 76.2567 -0.0339276 76.7663L-0.196439 76.8064C0.845702 77.0803 -0.362266 76.8398 0.351528 77.1871C0.576832 76.9745 1.72864 77.3843 2.35582 77.4763C2.24305 77.4997 2.04057 77.427 1.8614 77.4173C1.95111 77.5134 1.95133 77.6793 2.26326 77.7219C3.04268 77.555 4.45008 78.044 5.53529 78.2714C5.60857 78.4837 6.45522 78.9304 6.83402 79.3545C6.9501 79.3212 7.18224 79.2545 7.41771 79.1945C7.75976 79.4295 8.07164 79.439 8.3669 79.432C8.03167 79.3263 7.7429 79.2305 7.5172 79.1611L7.54371 79.1478C7.51053 79.1479 7.44415 79.1314 7.39769 79.1215C7.16536 79.0555 7.04258 79.0258 7.09902 79.0555C6.73366 78.7575 7.17184 78.936 7.20804 78.7269C7.54993 78.8459 8.27343 79.0141 8.30353 79.1899C8.50601 79.2626 8.62886 79.3255 8.83801 79.428C8.97738 79.4411 9.12338 79.4674 9.26947 79.5435L9.19315 79.5403C9.20979 79.5735 9.23305 79.6033 9.26295 79.6298C9.90038 79.9408 10.9389 79.9592 11.5295 80.0115C10.9058 80.0754 11.5764 80.3366 11.5103 80.5191C11.58 80.5257 10.8995 80.2778 10.0564 79.987C10.1129 80.0334 10.1494 80.0732 10.1462 80.1495C10.8137 80.5865 11.4537 80.4064 12.4663 80.9027C12.39 80.8995 12.2374 80.893 12.2707 80.9759C12.6259 81.1546 13.0207 81.1308 13.1467 81.051C13.1768 81.26 13.9438 81.6637 14.3652 81.7261C14.76 81.7023 14.7399 81.6128 15.3673 81.8541L15.0489 81.8811C15.756 82.2484 15.7191 81.91 16.3001 82.2244C16.0743 82.0887 16.0048 82.2149 16.1808 82.3009C16.9873 82.5021 17.0237 82.4423 17.6706 82.3917L17.5016 82.5512C18.1984 82.6663 19.5358 82.8668 19.4532 83.1324C19.3862 82.6514 20.9698 83.4255 21.5407 83.637C21.3383 83.5809 21.272 83.6474 21.2356 83.6906C22.543 83.848 23.6852 84.5365 24.91 84.9594L25.0001 85.3209C25.6573 85.539 26.0381 85.0076 26.7452 85.2754L26.44 85.3289C27.7079 85.7219 28.2026 85.9302 29.1951 86.3535L29.0992 86.5428C29.4941 86.5853 29.9422 86.7506 30.3337 86.8031C30.9685 87.5886 33.6661 87.8038 34.935 88.9267L35.1768 88.5979C35.7411 88.8293 36.4978 89.0473 36.6543 89.4253L36.5282 89.3723C36.356 89.6247 37.0925 89.6038 37.4179 89.8057C37.6967 89.8816 38.0383 89.8015 37.8258 89.6592C39.2568 90.4435 41.5668 91.1104 42.3873 91.7861C43.9472 92.2318 45.1948 92.3362 46.8246 92.9212L46.7915 92.9544C47.3326 93.1892 48.4181 93.6323 48.319 93.9476C48.933 94.096 49.4605 94.1053 50.008 94.1543C50.2801 94.1837 50.5588 94.2099 50.8575 94.2592C51.0035 94.2856 51.1628 94.3218 51.3221 94.3581C51.4018 94.3845 51.4847 94.401 51.5644 94.4275C51.664 94.4605 51.7735 94.4968 51.883 94.5332L51.7371 94.5234L51.6508 94.5335L51.4783 94.5537C51.5215 94.5735 51.5713 94.59 51.6211 94.6065C51.6874 94.623 51.7538 94.6395 51.8301 94.6593C52.0193 94.7055 52.2151 94.7318 52.4042 94.7614C52.8024 94.8106 53.1608 94.8466 53.3002 94.8597C53.5192 94.9157 53.287 94.9327 53.2107 94.9626C53.6623 95.1843 54.2063 95.1271 54.7671 95.2192L54.3989 95.2463C54.5947 95.3223 54.8105 95.3884 55.0594 95.4544C55.1091 95.4543 55.0727 95.4809 55.0462 95.5108L54.9667 95.5839L54.8109 95.7367C54.7115 95.8364 54.6055 95.9394 54.5061 96.0391C54.0986 96.451 53.6945 96.9028 53.244 97.3945C52.8829 97.7831 52.5119 98.1851 52.1541 98.5804C51.8692 98.8893 51.5777 99.185 51.2695 99.431C51.4682 99.215 51.2725 99.2219 51.1498 99.2586C51.0242 99.6038 50.6201 100.056 50.1827 100.474C49.7387 100.88 49.2681 101.265 49.0429 101.511L49.2646 101.142C48.4266 102.136 48.1637 101.529 47.3224 102.499L48.022 102.222C47.5745 102.488 47.273 102.814 47.4689 102.873C46.9185 103.133 47.2463 102.695 46.4972 103.203C46.4076 103.14 46.981 102.761 46.6593 102.831L45.4955 103.357C45.4524 103.354 45.3198 103.437 45.005 103.703C45.3571 104.008 44.1797 104.325 44.9461 104.313C43.5243 105.367 42.1217 105.946 40.9851 106.957C40.2254 106.931 38.4693 108.576 38.2893 108.019C37.5733 108.478 37.0564 108.936 36.7419 109.418C36.9077 109.368 37.0501 109.188 37.1827 109.072C37.0702 109.311 36.2217 109.886 35.8637 110.116C36.2646 109.707 36.9605 109.125 37.2154 108.707C36.5923 109.169 35.8037 109.93 35.4757 110.219L35.1503 110.083C34.7198 110.615 34.5666 110.177 34.1759 110.771L34.3285 110.778C33.3142 111.403 33.4605 111.662 32.559 112.297L32.5389 112.174C32.1908 112.34 31.873 112.881 31.4185 112.869L32.0118 112.463C31.8457 112.331 31.3318 112.564 31.0665 112.614C30.4567 113.086 31.0239 113.042 30.719 113.278C30.4768 113.209 30.6294 113.215 30.7484 112.906C30.069 113.438 29.1809 114.166 28.82 114.72C28.7702 114.72 28.7801 114.657 28.7801 114.657C28.0243 115.136 27.5709 115.87 27.0104 116.043L27.1396 115.92C26.39 116.081 25.7114 117.16 25.3294 116.829C24.9912 116.932 25.9957 116.436 25.4086 116.523C24.4139 116.939 25.0181 117.25 24.1195 117.593C24.2422 117.54 24.1924 117.54 24.2023 117.477C23.6156 117.83 22.8233 118.285 22.137 118.638C21.6261 118.645 20.9729 118.932 20.2533 119.152C19.5402 119.352 18.7342 119.482 18.1864 119.201C18.5383 119.389 17.8914 119.374 17.8749 119.44C17.8749 119.44 17.9213 119.4 17.8814 119.37C17.6856 119.361 17.523 119.335 17.4169 119.355C17.3074 119.368 17.2444 119.391 17.1515 119.388C16.8592 119.12 16.0561 118.942 15.9297 118.74C15.8635 118.823 15.6177 118.614 15.3387 118.405C15.9728 118.726 15.6505 118.365 15.9989 118.414C15.1918 117.765 14.7676 118.061 13.9736 117.339L13.6345 116.828C13.3627 116.981 12.6617 116.296 12.6187 116.408C12.5289 116.229 12.3528 116.044 12.4688 115.944C12.1335 115.789 11.6319 115.368 11.3931 115.422L11.7286 115.693C10.6294 114.958 9.73359 114.943 8.94637 114.284L9.17477 113.912C8.66649 113.428 7.96327 113.532 7.57772 113.028C7.68087 113.25 7.74722 113.234 7.29591 113.161C7.50844 113.304 7.9764 113.426 8.35158 113.628L7.43231 113.433L8.73029 113.985C8.12296 113.85 8.17935 113.83 8.30912 114.105C7.49589 113.825 7.59826 113.483 6.79839 113.261C6.56257 113.073 6.91092 113.072 6.65181 112.837C5.94156 112.646 5.55904 111.933 4.9917 111.927C4.85883 111.811 5.26391 112.039 5.27703 111.933C4.83554 111.765 4.5334 111.609 4.35766 111.672L4.70632 111.888C4.39423 111.729 4.26503 111.868 3.69386 111.491C3.30228 111.422 3.00715 111.528 3.39557 111.707C3.22962 111.657 2.93399 111.399 3.10974 111.336C2.15031 110.896 2.46309 111.552 1.61955 110.946C1.68593 110.963 1.76556 110.973 1.73564 110.93C1.5198 110.797 1.32725 110.711 1.15799 110.672C1.99451 110.999 1.04459 110.23 1.98089 110.74C1.97389 110.478 1.26374 110.37 0.994695 110.148C0.457137 110.085 0.805988 110.433 0.523986 110.434C0.557069 110.367 0.364518 110.281 0.142051 110.152L0.295021 110.407C0.102473 110.321 -0.0900569 110.235 -0.345607 110.173L0.0725732 110.278C-0.342439 110.063 -0.880676 109.52 -1.70037 109.358C-1.47474 109.378 -1.01686 109.414 -1.48838 109.119C-2.35796 108.875 -1.65448 108.97 -2.06632 108.646C-2.90282 108.335 -2.33473 108.872 -3.50671 108.273C-3.63286 108.22 -3.55303 108.362 -3.43677 108.462C-4.23693 108.042 -4.73801 107.969 -5.49838 107.529C-5.1564 107.714 -4.90733 107.88 -5.42173 107.765C-5.16302 107.718 -6.03274 107.374 -6.31835 107.169L-6.43441 107.219C-6.65364 107.03 -6.36821 107.102 -6.15249 107.152C-6.17236 107.178 -6.11257 107.231 -5.95324 107.284C-5.53176 107.38 -5.55219 107.008 -6.16969 106.72C-6.87994 106.529 -6.85635 106.791 -6.7666 106.92C-7.63975 106.487 -7.7552 106.968 -8.57531 106.508C-8.77449 106.426 -9.30943 105.856 -9.93685 105.581C-10.3349 105.648 -9.19309 106.021 -9.62104 106.045C-10.5014 105.184 -11.921 105.498 -13.1829 104.637L-12.9111 104.484C-13.2264 104.335 -13.5286 104.179 -13.897 104.057L-13.4852 104.382C-13.827 104.296 -14.5541 103.922 -14.2291 103.859C-15.0255 103.727 -15.1219 103.551 -15.7594 103.191C-15.0689 103.525 -15.7627 103.234 -15.2019 103.342C-15.8893 102.899 -15.9721 102.949 -16.5065 102.76C-16.3872 102.717 -16.5998 102.475 -16.7957 102.382C-17.3333 102.304 -18.1334 101.9 -18.8238 101.665L-18.7907 101.599C-19.9359 101.169 -20.9988 100.308 -22.2102 100.011L-22.2699 99.9914L-22.1836 100.048C-21.8944 100.426 -23.1228 99.8135 -23.5111 99.7676C-23.5643 99.678 -23.5611 99.5686 -23.7569 99.4925C-23.8562 99.6917 -24.2448 99.4136 -24.4471 99.4404C-24.8024 99.212 -24.2915 99.2212 -24.9653 98.9534C-25.2342 98.8642 -25.3037 98.9572 -25.3103 99.0435C-25.4067 98.8844 -25.8019 98.6261 -26.1438 98.4574C-25.9978 98.4506 -25.8384 98.603 -25.7521 98.6261C-25.6626 98.5397 -25.9182 98.477 -25.852 98.3442C-26.1575 98.1987 -26.0609 98.4739 -26.4261 98.2422L-25.9882 98.2382C-26.1244 98.1323 -26.3566 98.116 -26.4396 98.0995C-26.1874 98.1556 -26.1478 97.9863 -26.1446 97.8768C-27.1071 97.6127 -26.5058 98.2323 -26.6283 98.3851C-27.4352 97.9018 -28.2017 97.8299 -28.8755 97.5621L-28.67 97.4258C-29.0053 97.3201 -29.1811 97.3004 -29.3337 97.3272L-29.835 97.1222C-29.5164 97.1782 -29.3937 97.1581 -29.3076 97.0153C-29.8586 96.8436 -30.5757 96.4896 -30.8176 96.6856L-30.7845 96.6524C-31.4585 96.2685 -32.9259 95.5937 -32.843 95.5273C-33.6429 95.2895 -34.5561 94.7434 -34.6752 94.9857C-35.1564 94.8537 -35.7247 94.1677 -36.1823 94.3475C-36.654 93.9534 -36.1791 94.2712 -35.9404 94.1514C-36.412 93.7573 -37.135 93.9706 -37.1721 93.5327C-37.8524 93.401 -37.0492 93.662 -37.331 93.7453C-37.3349 93.3571 -38.4963 93.2426 -39.0343 92.8486C-39.3494 92.8988 -38.7885 93.0241 -39.2995 93.0148C-39.2266 92.9451 -39.4689 92.8425 -39.5917 92.7963L-39.7839 92.9757L-40.2328 92.2464C-41.2414 92.2213 -40.1526 92.671 -41.4203 92.4106L-41.344 92.4139C-41.6132 92.0924 -42.2731 92.3322 -43.1196 91.9353C-42.8275 92.0543 -42.9638 91.8654 -42.8511 91.8254L-43.3753 91.7896C-43.3255 91.7896 -43.3057 91.7796 -43.3488 91.7432C-43.7507 91.4717 -43.7569 91.7404 -44.2317 91.4723C-43.8634 91.5116 -43.9267 91.3193 -44.0695 91.2001L-44.8723 91.2709L-44.4944 91.048C-45.198 90.8533 -46.3922 91.0374 -46.6351 90.5202L-46.2667 90.5761C-46.2735 90.4965 -46.4265 90.2246 -46.9374 90.232C-47.1 90.2223 -47.2457 90.3618 -47.0433 90.4179L-47.382 90.2392C-47.1499 90.1062 -46.2638 90.3173 -45.6963 90.4061C-45.8953 90.4395 -46.34 90.3804 -46.2369 90.5362C-45.7259 90.6118 -45.2216 90.6078 -44.7206 90.6635C-44.9362 90.697 -45.082 90.7868 -45.1947 90.8433C-44.6835 91.0848 -44.7602 90.8162 -44.3453 90.8985C-44.2058 91.0111 -44.1161 91.0907 -44.2388 91.1273C-43.7113 91.1697 -43.2898 91.2487 -42.7719 91.4869C-42.7719 91.4869 -43.4156 91.4778 -43.11 91.6732C-42.088 91.8078 -41.8229 91.6249 -40.7112 91.8058C-39.3608 91.8504 -38.3841 92.7714 -37.4551 92.853C-37.3722 92.7865 -38.0362 92.4723 -37.4554 92.6208C-37.6211 92.7537 -37.1664 92.8493 -37.1663 92.9322C-36.4796 92.9114 -36.3131 93.3258 -35.8287 93.3318C-35.9548 93.3452 -35.6426 93.5538 -35.4433 93.7029C-35.5924 93.8855 -34.8357 94.0537 -35.8012 93.9986C-34.8059 94.047 -34.294 94.7198 -33.445 94.5096L-33.6475 94.3539L-32.8109 94.8139L-32.8474 94.7908C-32.4855 94.9827 -32.3993 94.956 -31.9806 95.3768C-32.2262 95.334 -32.5416 95.2017 -32.7739 95.1689C-32.3852 95.5465 -31.745 95.4163 -31.2172 95.6245C-31.3033 95.7673 -31.7781 95.4495 -31.7048 95.6949C-31.3429 95.8702 -30.9846 95.8896 -30.6262 95.992L-30.7123 96.0518C-29.8788 96.6213 -30.1786 95.7923 -29.6337 96.3489C-29.6371 96.2925 -29.5309 96.2725 -29.5476 96.2061C-29.335 96.3983 -28.8235 96.789 -29.4408 96.6505C-29.1254 96.7828 -28.7305 96.8586 -28.5348 96.8351C-28.7508 96.6031 -28.8403 96.6398 -28.8771 96.4341L-27.566 96.8802C-27.4199 96.9397 -27.7053 96.9169 -27.8846 96.8408C-26.5792 97.904 -24.6884 97.7354 -23.2235 98.9676C-23.3565 98.7521 -23.0511 98.8977 -22.8454 98.8775C-22.3142 99.1421 -21.4777 99.4694 -21.0062 99.7806L-21.2119 99.8008C-19.8642 100.27 -18.915 100.541 -18.0949 100.984C-18.0385 100.964 -18.1644 101.11 -18.327 101.067C-17.6268 101.189 -17.1246 102.074 -16.7833 101.795L-16.9991 101.663C-15.7939 102.295 -14.3103 102.671 -13.0058 103.17C-12.7963 103.522 -13.7527 102.873 -13.6029 103.237C-12.7496 103.714 -11.7606 103.915 -10.8078 104.375C-10.977 104.335 -10.9571 104.375 -11.0367 104.365C-10.117 104.891 -11.0603 104.103 -10.2437 104.457C-10.3298 104.55 -10.2999 104.593 -10.0442 104.755L-9.73908 104.668C-9.70916 104.712 -9.76535 104.848 -9.91132 104.855C-9.46025 104.761 -8.40112 105.333 -8.02968 105.23C-7.9798 105.313 -8.25831 105.436 -8.17852 105.562C-7.75685 105.79 -7.42503 105.823 -7.09321 105.856C-6.84069 106.128 -6.07058 106.405 -6.24647 106.369C-5.48287 106.749 -6.06743 106.296 -5.41701 106.401L-6.00805 106.05L-4.87285 106.443L-5.35734 106.371C-4.87255 106.659 -4.27863 106.685 -3.6811 106.933L-3.90042 106.694L-3.19346 106.895C-3.22625 107.178 -2.34687 107.309 -2.84101 107.449C-1.63578 108.098 -0.700174 108.11 0.451735 108.586C0.252558 108.503 0.312393 108.589 0.256021 108.609C0.893501 108.953 1.3481 108.999 1.80932 109.042C1.68994 109.085 1.52731 109.042 1.49422 109.108C2.27437 109.456 2.03178 109.171 2.92799 109.485C2.63603 109.482 2.68924 109.571 2.91171 109.7C2.9182 109.598 3.14384 109.617 3.31643 109.663C2.44417 109.877 4.18655 110.306 3.60293 110.516C3.69239 110.429 5.12618 110.822 4.83701 110.444L4.58809 110.378C4.62105 110.229 4.9133 110.431 5.16226 110.53C5.02951 110.497 4.88017 110.464 4.8603 110.491C6.16139 110.884 7.3635 111.675 8.75444 112.263C8.60844 112.254 8.02757 112.055 8.34638 112.277C9.63141 113.052 10.5241 113.226 11.9051 113.828C11.7961 114.174 10.4609 113.084 10.2489 113.356C10.9627 113.704 11.6865 114.054 12.4367 114.392C12.6193 114.474 12.8086 114.554 13.0476 114.683C13.2535 114.795 13.4527 114.911 13.6453 115.03C14.0105 115.262 14.3891 115.504 14.7743 115.742C14.9446 116.528 16.242 116.649 16.8471 117.557C16.8601 117.351 17.3349 117.62 17.7366 117.825C17.5443 117.888 17.9393 118.08 17.7934 118.12C17.9294 118.126 17.8896 118.096 18.1085 118.086C18.281 118.066 18.4536 118.096 18.6327 118.072C18.9877 118.052 19.3029 118.085 19.3064 118.24C19.3427 118.065 19.5782 118.021 19.8634 117.978C20.1453 117.911 20.4671 117.841 20.6161 117.675C21.2364 117.571 21.8164 117.139 22.5559 116.859C22.2174 116.797 23.2088 116.424 23.4242 116.191C23.3579 116.241 23.2286 116.347 23.2751 116.357C23.5704 116.4 23.9975 115.779 24.4286 115.629C24.6409 115.589 24.4886 115.815 24.777 115.662C24.7105 115.529 25.645 114.745 26.1226 114.638C25.9469 114.751 25.9802 114.817 25.9074 114.937C26.7392 114.246 27.6606 113.617 28.5986 112.972C29.5333 112.321 30.5078 111.682 31.3561 110.941L31.1609 111.363C32.5006 110.857 31.7105 110.523 32.6652 109.944C35.2741 108.394 38.1221 107.024 40.4851 105.265C40.6275 105.086 40.3325 105.259 40.2495 105.193C40.4815 105.076 40.6543 105.205 40.8695 104.906L40.7301 104.844C42.0598 104.4 43.7691 102.464 44.9002 102.336C45.8047 101.409 46.7465 101.153 47.7601 99.9468C48.2143 99.7272 47.4655 100.485 47.9958 100.086L48.9697 99.0161L48.9201 99.0826C49.314 98.4782 50.0864 97.9828 50.8686 97.4243C51.0641 97.2847 51.2663 97.1418 51.4618 97.0021L51.6077 96.8958C51.6541 96.8725 51.7038 96.8392 51.7436 96.8027C51.9258 96.6697 52.1081 96.487 52.1013 96.3908L52.1179 96.4073C52.1942 96.394 52.3069 96.354 52.4197 96.2974C52.4627 96.2675 52.5589 96.2276 52.5489 96.2077C52.5257 96.1945 52.4792 96.1846 52.4294 96.1846C52.2603 96.2114 52.3134 96.2511 52.214 96.3176C51.7594 96.2884 51.5902 96.2986 51.4442 96.2889L51.348 96.279L51.3049 96.2758L51.1356 96.2362C50.9099 96.1834 50.6577 96.1274 50.3491 96.0581C50.9065 96.0607 49.8876 95.8166 49.8873 95.6175C49.5357 95.6446 50.017 95.8595 49.287 95.761C48.2747 95.497 47.4115 95.0503 46.6015 94.7263C46.2134 94.78 45.7951 94.5914 45.7058 94.7774C44.5872 94.4173 43.9368 94.2789 42.5858 93.7864L42.5791 93.7068C42.128 93.8169 41.4536 93.151 41.1517 93.1945C41.2213 93.1181 41.3739 93.1411 41.3672 93.0615L40.7267 92.9098C41.0419 92.9425 41.2905 92.7763 40.7992 92.558C40.2119 92.529 40.9023 92.7304 40.5905 92.7706L40.5204 92.4821C40.1154 92.3533 39.9067 92.5659 40.3649 92.8174C39.0205 92.305 37.6597 91.8922 36.4845 91.3863L36.6702 91.2931C35.9931 91.085 35.1035 90.7346 34.7613 90.4498C34.7282 90.483 34.5391 90.5031 34.6222 90.586C33.7594 90.4711 34.6317 90.3073 33.6927 90.1891C33.925 90.222 34.2037 90.2979 34.2733 90.2215L32.6039 89.7726C32.6303 89.6598 31.7601 89.034 31.0433 88.8624C30.9936 88.9123 31.1497 89.0746 31.3224 89.154L30.8743 89.0385L30.6416 88.6573L29.9282 88.6417L30.0009 88.4226C29.5197 88.2906 29.2379 88.4901 28.8695 88.3346C27.5216 87.6829 27.8301 87.7024 26.9037 87.1463C26.6421 87.5183 25.317 86.5646 24.9557 86.7708C23.7204 85.9962 21.7026 85.4981 19.9697 84.7905L20.1257 84.8035C19.4383 84.3433 19.1603 84.8148 18.3701 84.4477L18.5991 84.4573C17.6328 83.8714 15.7345 83.4295 14.6792 83.2618C14.9081 83.2714 14.8482 83.1023 14.5262 83.0065C14.2276 82.9904 14.6827 83.3845 14.1548 83.1099C14.3074 83.1163 14.2276 82.9903 14.1048 82.9441L13.4811 82.9582C12.0901 82.3198 10.4468 81.5922 8.90685 81.2029C8.65779 81.0374 8.8867 81.0304 8.96957 80.9805C7.76143 80.6239 6.53026 80.4033 5.44494 80.093L5.41468 79.8177C4.88692 79.6426 4.96385 80.0771 4.3561 79.6433C4.21665 79.5639 4.8108 79.7721 5.03634 79.7253C4.03698 79.2058 4.33968 79.7594 3.33392 79.4092L3.68864 79.2229C2.9615 78.8158 2.75619 79.0848 2.42451 79.1516C1.23675 79.1334 1.81296 78.3795 0.253348 78.166C-0.0219341 78.2294 0.273577 78.3883 -0.00170319 78.4517C-1.02742 78.0616 -1.20303 78.2244 -2.23205 77.8443C-2.67079 77.2677 -1.70431 78.0029 -2.19279 77.4428L-1.42264 77.7702C-2.04695 77.3531 -0.78546 77.8987 -0.815706 77.6234C-1.31036 77.3985 -2.15309 77.3731 -2.84997 77.258C-2.79383 77.0721 -2.05674 77.4659 -2.30272 77.1245L-2.67102 77.1018C-2.55825 77.0784 -2.52517 77.012 -2.32601 77.0781C-2.3993 76.8658 -2.73095 76.9493 -3.05953 76.8568C-3.11249 76.9498 -3.1289 77.0825 -3.06232 77.2483C-3.06567 77.2251 -3.08893 77.1953 -3.13212 77.1588C-3.50697 77.1892 -3.96827 77.0804 -4.40969 76.9616C-4.8644 76.8328 -5.32244 76.6974 -5.64758 76.6946C-5.53481 76.6712 -5.61448 76.6281 -5.63114 76.5784C-6.02949 76.4131 -6.55688 76.5034 -7.1211 76.3549C-7.36364 76.1031 -6.80307 76.0293 -7.69258 75.7618C-7.90812 75.8451 -7.62886 76.2527 -8.34591 75.9485C-8.33925 75.9618 -7.66888 76.1068 -7.95786 75.8617ZM8.64754 80.835C8.7272 80.8614 8.85333 80.8977 8.99937 80.9407C8.82013 80.8812 8.72388 80.8548 8.64754 80.835ZM10.0082 81.1151C9.86545 81.0622 9.79254 81.1154 9.81587 81.195C10.0449 81.271 10.264 81.3437 10.4333 81.4164C10.2374 81.2906 9.91201 81.1385 10.0082 81.1151ZM7.74272 79.0978L7.77919 79.0878C7.95178 79.134 8.07791 79.1703 8.18411 79.2C8.16746 79.1503 8.10101 79.084 7.8687 79.0346C7.81563 79.0446 7.77917 79.0712 7.74272 79.0978Z" fill="#4B6956"/>
<path d="M7.37132 79.1512C7.33495 79.1446 7.31844 79.1447 7.27216 79.1348C7.31517 79.1711 7.36147 79.1975 7.39125 79.2239L7.49034 79.1907L7.37132 79.1512Z" fill="#4B6956"/>
<path d="M29.9149 88.6976L29.9346 88.6547L29.7925 88.6515L29.9149 88.6976Z" fill="#4B6956"/>
<path d="M5.0963 110.563C5.12936 110.579 5.16903 110.592 5.19878 110.602C5.44337 110.662 5.28469 110.609 5.0963 110.563Z" fill="#4B6956"/>
<path d="M17.6774 117.854C17.6937 117.871 17.7132 117.877 17.7261 117.887C17.7132 117.877 17.7002 117.867 17.6774 117.854Z" fill="#4B6956"/>
<path d="M21.4144 119.184L21.2181 119.008C20.9857 119.141 21.0126 119.41 21.4144 119.184Z" fill="#4B6956"/>
<path d="M34.2622 110.977C34.4646 110.983 34.8625 110.817 35.0181 110.581C34.7297 110.751 34.3948 110.861 34.2622 110.977Z" fill="#4B6956"/>
<path d="M34.3269 88.4105L34.6393 88.4532L34.0809 88.3012L34.3269 88.4105Z" fill="#4B6956"/>
<path d="M-49.373 92.292C-44.9816 89.018 -44.8524 74.6687 -43.56 68.841C-41.6411 60.1924 -37.9761 49.929 -39.0671 40.8068C-34.8469 43.2627 -30.5275 45.4198 -25.9865 47.1586C-14.8032 51.4327 -3.69713 55.0402 7.78627 58.0101C13.3156 59.4356 19.1766 60.8773 24.4385 63.2753C28.5617 65.1573 27.1336 66.4134 26.1153 71.3814C24.3524 79.9933 20.027 87.7826 19.2433 96.7913C18.7405 102.571 19.9664 115.651 16.0168 119.326C12.1259 115.095 5.60905 114.497 0.861949 112.496C-5.52173 109.815 -11.872 107.282 -18.0039 104.374C-27.4158 99.9087 -36.9786 94.3317 -46.5122 92.9648" fill="#FA90A9"/>
<path d="M8.34411 115.433C8.18785 115.386 8.11475 115.39 8.09815 115.406C8.24774 115.439 8.37738 115.466 8.34411 115.433Z" fill="#FA90A9"/>
<path d="M11.6076 117.039C11.5348 116.993 11.4852 116.96 11.429 116.931C11.4886 116.983 11.5547 117.033 11.6076 117.039Z" fill="#FA90A9"/>
<path d="M17.9563 118.428L17.9365 118.454C17.8608 118.649 17.9069 118.543 17.9563 118.428Z" fill="#FA90A9"/>
<path d="M19.9956 60.5749C20.6099 60.9887 18.8209 60.4173 19.7672 60.9634C19.6974 60.8573 20.799 60.9851 19.9956 60.5749Z" fill="#FA90A9"/>
<path d="M19.7637 60.973L19.8672 61.0295C19.8205 61.0029 19.7971 60.9896 19.7637 60.973Z" fill="#FA90A9"/>
<path d="M19.9712 102.527C19.9349 102.553 19.9085 102.616 19.8756 102.682C19.9053 102.676 19.9317 102.646 19.9712 102.527Z" fill="#FA90A9"/>
<path d="M18.9027 114.277L18.9854 113.994C18.9456 114.097 18.9192 114.194 18.9027 114.277Z" fill="#FA90A9"/>
<path d="M19.8765 96.516C19.9062 96.3598 19.9427 96.3166 19.9424 96.1006C19.9291 96.1239 19.9192 96.1372 19.9059 96.1604C19.9293 96.2402 19.9328 96.3465 19.8765 96.516Z" fill="#FA90A9"/>
<path d="M20.9763 90.4028C20.9531 90.4394 20.9332 90.466 20.91 90.5026L20.8737 90.6954L20.9763 90.4028Z" fill="#FA90A9"/>
<path d="M18.2739 96.0993L18.4185 95.0806C18.3591 95.3593 18.3132 95.731 18.2739 96.0993Z" fill="#FA90A9"/>
<path d="M18.9052 92.0642C19.0144 91.9015 19.0872 91.7156 19.1599 91.5297C19.1532 91.4833 19.1531 91.4335 19.1365 91.4004C19.0538 91.6162 18.9845 91.8419 18.9052 92.0642Z" fill="#FA90A9"/>
<path d="M-43.1638 72.2117C-43.1757 73.1473 -43.2563 72.5071 -43.5338 73.3269C-43.3705 73.8343 -43.7216 74.2429 -43.3731 74.3917C-43.6514 74.6641 -43.5453 74.5943 -43.7934 75.1587C-43.5648 74.9195 -43.7321 76.2899 -43.4899 76.2763C-43.7849 76.4824 -43.7003 75.2448 -44.0709 75.9785C-43.954 76.5258 -44.009 77.5079 -43.7335 77.6269C-43.8524 78.0186 -43.9749 78.188 -44.0869 78.8085C-44.0604 78.7123 -44.1004 78.583 -44.1171 78.5166C-44.0591 79.6578 -44.4948 81.2708 -44.2483 81.9606C-44.6104 81.6691 -44.7095 84.3334 -44.9497 83.4081C-45.022 83.876 -44.9944 84.6423 -44.9543 84.8214C-45.263 84.7024 -45.2878 85.9599 -45.6157 86.4148C-45.5024 86.7232 -45.7932 87.5332 -45.8589 88.0641C-45.826 87.8318 -45.8361 87.6958 -45.9522 87.7457C-46.0078 88.3463 -46.0777 88.1739 -46.3989 88.5923C-46.577 89.3789 -46.1103 88.5389 -46.1362 89.0498C-46.4737 89.684 -46.3717 89.0767 -46.5408 89.1366C-46.5668 89.4983 -46.6061 89.8666 -46.6687 90.2383C-46.7912 90.4243 -46.9237 90.524 -47.0464 90.5606C-47.1355 90.929 -47.1947 91.3073 -47.6388 91.663C-47.4533 91.4039 -47.2812 91.1349 -47.1356 90.8627C-47.2383 90.9391 -47.351 91.0123 -47.4637 91.0854C-47.5959 91.434 -47.7614 91.7826 -47.9599 92.1312C-48.6128 92.6829 -48.981 92.7099 -49.1038 92.6305C-49.2433 92.5344 -49.237 92.2989 -49.3036 92.1331C-49.1678 91.9902 -49.0286 91.854 -48.9193 91.6913C-49.0123 91.6383 -49.3372 91.8511 -49.5261 91.9874C-49.6355 92.034 -49.523 91.8116 -49.3475 91.5492C-49.2714 91.4031 -49.1788 91.2404 -49.0894 91.0877C-49.0067 90.9217 -48.9173 90.769 -48.8445 90.6494C-48.4008 89.9952 -48.2948 89.942 -48.1819 89.985C-48.0856 90.0114 -47.9793 90.124 -47.6947 89.616C-47.5295 89.1347 -47.4141 88.6369 -47.3053 88.1424L-47.1924 88.1688C-47.0368 87.9662 -47.1166 87.7905 -47.1201 87.7175C-46.9838 87.8732 -46.6838 86.5524 -46.5187 85.9549L-46.7208 86.1311C-46.6436 84.3825 -45.7457 83.5419 -45.7012 82.1418L-45.8021 81.1466L-45.5469 80.977C-45.5909 80.3932 -45.7503 80.274 -45.5459 79.358C-44.6977 76.1519 -44.9018 72.5691 -44.0471 69.2767C-44.0968 69.31 -44.1364 69.4129 -44.2059 69.6054C-43.0552 66.8202 -43.7147 64.9765 -42.6498 62.5166L-42.613 62.7057C-42.3229 61.3981 -42.5796 62.9047 -42.2159 61.9918C-42.4352 61.7367 -41.9927 60.2862 -41.9075 59.5131C-41.8808 59.649 -41.9534 59.9013 -41.9664 60.1236C-41.8703 60.0007 -41.7045 59.9839 -41.6586 59.5957C-41.8324 58.6703 -41.3471 56.8913 -41.1765 55.5441C-40.961 55.4276 -40.5644 54.3157 -40.1638 53.7743C-40.2037 53.645 -40.2904 53.373 -40.3704 53.0978C-40.1686 52.6397 -40.1924 52.2615 -40.2393 51.9032C-40.3084 52.328 -40.371 52.6997 -40.417 52.9884L-40.4303 52.9619C-40.4236 53.0083 -40.4368 53.0813 -40.4433 53.151C-40.496 53.443 -40.5124 53.5923 -40.4859 53.5293C-40.7639 54.0339 -40.6154 53.4697 -40.8277 53.4601C-40.7222 53.0253 -40.6471 52.1161 -40.4747 52.0462C-40.422 51.7874 -40.3725 51.6214 -40.2965 51.3592C-40.3001 51.1867 -40.2904 51.0075 -40.2475 50.8117L-40.2408 50.9079C-40.2043 50.8813 -40.1844 50.8382 -40.1579 50.8083C-39.9302 49.9719 -40.0978 48.728 -40.1718 48.0181C-39.9883 48.7312 -39.8568 47.8684 -39.6677 47.8814C-39.6744 47.8018 -39.7761 48.6745 -39.9172 49.7662C-39.8841 49.6832 -39.8444 49.6301 -39.7681 49.6167C-39.4675 48.6939 -39.7372 47.991 -39.5135 46.6337C-39.4968 46.7166 -39.47 46.9024 -39.3938 46.8392C-39.3049 46.3547 -39.4249 45.9004 -39.5412 45.7844C-39.3556 45.6747 -39.1779 44.6227 -39.2715 44.1053C-39.3515 43.8798 -39.4146 43.787 -39.4546 43.6411C-39.4747 43.5681 -39.4913 43.4852 -39.4981 43.3724C-39.5015 43.316 -39.5016 43.2496 -39.5084 43.17C-39.5085 43.0705 -39.512 42.9643 -39.5188 42.835C-39.4687 43.0505 -39.4222 43.1268 -39.3755 43.2528C-39.2909 42.1313 -39.6393 42.0986 -39.6109 41.0137C-39.6302 41.4384 -39.4774 41.5941 -39.4745 41.2855C-39.5348 40.9008 -39.575 40.6055 -39.6118 40.3667C-39.6352 40.2374 -39.6553 40.1146 -39.6753 40.0085C-39.6887 39.9488 -39.6987 39.8957 -39.7088 39.8426L-39.7088 39.7929L-39.6889 39.7995L-39.6491 39.8127C-39.4201 39.8721 -39.2608 39.8752 -38.7896 39.9873C-38.816 40.0504 -38.8425 40.1135 -38.8556 40.1865C-38.5668 40.3155 -38.2116 40.4776 -37.8464 40.6429C-37.4514 40.8348 -37.0397 41.0267 -36.6612 41.202C-36.1865 41.4203 -35.8246 41.6122 -35.8841 41.7417C-35.9213 41.2374 -34.1181 42.4326 -33.4508 42.7701C-33.6865 42.6642 -33.7727 42.7241 -33.8158 42.754C-32.279 43.2197 -30.9506 44.1633 -29.4899 44.8083L-29.3866 45.1963C-28.5998 45.5236 -28.1393 45.0519 -27.3027 45.4124L-27.661 45.4261C-26.1474 45.9947 -25.5498 46.2426 -24.3249 46.7651L-24.4208 46.9544C-23.943 47.03 -23.3886 47.2416 -22.9108 47.3172C-22.0801 48.1787 -18.8017 48.5424 -17.1246 49.7344L-16.8763 49.4023C-16.1659 49.6601 -15.23 49.9043 -14.9839 50.2954L-15.1399 50.2326C-15.3088 50.4916 -14.4263 50.4804 -14.0013 50.6988C-13.6495 50.7879 -13.2548 50.7143 -13.5238 50.5588C-11.6846 51.3956 -8.78723 52.1248 -7.70135 52.8332C-5.74654 53.3215 -4.20361 53.4687 -2.12912 54.1293L-2.16887 54.1659C-1.48174 54.427 -0.104198 54.9393 -0.19666 55.2513C1.32999 55.6141 2.41134 55.4534 4.1706 56.0813L3.74596 56.0951C4.18748 56.2803 4.96057 56.3323 5.15633 56.342C5.31232 56.3882 5.17966 56.4216 5.14323 56.4648C5.5483 56.6931 5.84343 56.5866 6.19852 56.6491L6.03273 56.7157C7.41041 57.3109 9.79605 57.4669 11.6514 58.0051C11.2996 57.9492 11.4492 58.1148 11.5754 58.2009C12.4344 58.0438 14.5056 58.6978 15.3087 58.8427L14.7878 58.8467C16.3673 59.0502 15.9898 59.5882 17.5627 59.8116L16.7592 59.3516C17.3567 59.5996 17.891 59.6884 17.8012 59.4928C18.4718 59.8369 17.8049 59.7814 18.8671 60.1615C18.8805 60.2709 18.0772 59.9768 18.3894 60.2185L19.7773 60.9664C19.8072 61.0095 19.9897 61.0756 20.4777 61.2209C20.5035 60.7431 21.6925 61.6405 21.1176 60.9579C22.1632 61.3214 23.0828 61.7647 23.9626 62.1947C24.8358 62.6281 25.7122 63.0184 26.6419 63.5811C26.7018 63.6839 26.7916 63.8297 26.9046 63.9722C27.0242 64.1114 27.1472 64.2904 27.2835 64.4959C27.5462 64.887 27.7626 65.4507 27.7666 65.9384C27.8111 66.9204 27.54 67.5711 27.3009 67.4254C27.0734 68.4774 26.9386 69.317 27.0158 70.0003C27.1018 69.8078 27.1047 69.5324 27.131 69.3201C27.1945 69.6285 26.9274 70.8498 26.822 71.3509C26.8309 70.6575 26.992 69.5558 26.9215 68.9687C26.7171 69.9178 26.6526 71.245 26.6003 71.7858L26.2588 71.9655C26.2832 72.8081 25.8947 72.5798 25.9656 73.4323L26.0915 73.3027C25.702 74.7432 25.9742 74.839 25.6244 76.1931L25.528 76.1004C25.3462 76.5485 25.3937 77.3049 25.0061 77.6737L25.2603 76.8074C25.038 76.8276 24.747 77.4717 24.5549 77.734C24.3074 78.6633 24.7679 78.1584 24.6457 78.6264C24.4037 78.7561 24.5296 78.6431 24.4561 78.265C24.1922 79.3104 23.8059 80.6911 23.7938 81.494C23.7507 81.524 23.7307 81.4676 23.7307 81.4676C23.3373 82.5033 23.3521 83.5417 22.9747 84.1294L23.0208 83.9237C22.4678 84.6743 22.5495 86.1771 22.0453 86.1977C21.8335 86.5695 22.3493 85.2981 21.9221 85.8694C21.383 87.0778 22.0329 86.8181 21.5798 87.8837C21.6393 87.7376 21.593 87.7775 21.5696 87.7145C21.3352 88.521 21.0879 89.5996 20.9067 90.4957C20.2346 91.5052 20.2578 93.8674 19.6324 95.0858C19.8542 94.7007 19.7723 95.4307 19.8519 95.4405C19.8519 95.4405 19.8153 95.3842 19.7822 95.434C19.7165 95.8986 19.8626 95.9747 19.9093 96.1504C19.724 96.5256 19.931 97.4509 19.8318 97.6833C19.9314 97.6998 19.8854 98.0714 19.8694 98.4862C19.7953 97.6436 19.66 98.2011 19.5201 97.8231C19.4157 99.0873 19.9103 99.279 19.816 100.596L19.6146 101.32C19.9068 101.472 19.7725 102.693 19.8852 102.67C19.7926 102.899 19.7367 103.234 19.5907 103.174C19.6577 103.705 19.4996 104.498 19.6691 104.72L19.7513 104.189C19.6209 105.832 20.0138 106.83 19.7634 108.101L19.3254 108.055C19.1043 108.888 19.4835 109.628 19.1594 110.338C19.3216 110.099 19.285 110.043 19.3887 110.596C19.4446 110.278 19.3807 109.671 19.4132 109.14L19.5873 110.298C19.5964 109.704 19.589 109.11 19.5749 108.519C19.7087 109.282 19.6588 109.232 19.8641 108.93C19.9386 110.022 19.5804 110.085 19.6548 111.127C19.5558 111.492 19.4391 111.094 19.307 111.509C19.3647 112.451 18.7719 113.205 18.8823 113.888C18.7997 114.087 18.9382 113.52 18.8255 113.543C18.7599 114.141 18.661 114.555 18.7442 114.754C18.7937 114.588 18.8532 114.426 18.8961 114.263C18.7939 114.705 18.9666 114.817 18.6393 115.637C18.6134 116.148 18.7134 116.496 18.8819 115.955C18.8391 116.184 18.5809 116.629 18.5077 116.417C18.2796 117.071 18.323 117.273 18.3432 117.462C18.3534 117.648 18.3802 117.834 17.9431 118.418C17.9795 118.325 18.0026 118.222 17.9562 118.262C17.8602 118.418 17.7708 118.555 17.688 118.687C17.5589 118.893 17.4464 119.083 17.3404 119.235C17.6252 118.843 17.7211 118.588 17.7044 118.571C17.701 118.515 17.6414 118.528 17.5916 118.545C17.4788 118.568 17.4424 118.578 17.8065 117.964C17.6572 117.981 17.548 118.21 17.3726 118.489C17.1608 118.877 16.8693 119.223 16.6639 119.409C16.3957 119.834 16.366 119.957 16.4192 120.029C16.4624 120.099 16.5553 120.102 16.3766 120.375C16.3699 120.328 16.2903 120.385 16.1644 120.498C16.1082 120.617 16.0217 120.478 15.9354 120.405C15.8523 120.322 15.7559 120.229 15.6596 120.137L16.0452 120.707C15.6865 120.389 15.341 120.081 14.8893 119.743L15.6267 120.303C15.4373 120.124 15.218 119.902 15.0021 119.67C14.816 119.464 14.61 119.252 14.3907 119.014C14.2578 118.865 14.1116 118.722 13.9389 118.576C13.7595 118.451 13.5636 118.325 13.3379 118.222C13.5802 118.308 14.0947 118.49 13.6097 118.036C12.6634 117.523 13.4501 117.834 12.9983 117.397C12.0421 116.88 12.6933 117.55 11.3286 116.732C11.1758 116.659 11.2723 116.818 11.4118 116.931C10.4589 116.405 9.86816 116.286 8.90869 115.813C9.33363 116.015 9.64574 116.19 9.03178 116.059C9.34026 116.012 8.25485 115.635 7.8863 115.43L7.7603 115.476C7.47138 115.281 7.82649 115.36 8.09198 115.41C8.0721 115.436 8.15843 115.492 8.35093 115.545C8.87527 115.647 8.80176 115.269 8.01172 114.968C7.1223 114.767 7.19568 115.046 7.31529 115.168C6.19328 114.719 6.12431 115.227 5.05204 114.76C4.79647 114.681 4.04585 114.095 3.24919 113.797C2.76489 113.858 4.21197 114.26 3.69775 114.278C3.09994 113.831 2.3831 113.676 1.60652 113.501C0.813321 113.31 -0.0031256 113.105 -0.790106 112.612L-0.478444 112.472C-0.866863 112.294 -1.25529 112.115 -1.70008 111.956L-1.17537 112.324C-1.59024 112.208 -2.49987 111.785 -2.12503 111.738C-3.08742 111.557 -3.24032 111.368 -4.04045 110.964C-3.16735 111.348 -4.03707 111.004 -3.34678 111.156C-4.22666 110.659 -4.32611 110.709 -4.98995 110.494C-4.85066 110.458 -5.13968 110.196 -5.38201 110.094C-6.03906 109.992 -7.05159 109.529 -7.91789 109.258L-7.89143 109.195C-9.32207 108.692 -10.7102 107.729 -12.2004 107.323L-12.2768 107.303L-12.1705 107.366C-11.7851 107.787 -13.3288 107.042 -13.7868 106.94C-13.86 106.844 -13.8601 106.728 -14.1025 106.625C-14.205 106.818 -14.6932 106.49 -14.9321 106.494C-15.3803 106.213 -14.7632 106.285 -15.5931 105.921C-15.9217 105.795 -16.0045 105.878 -15.9978 105.974C-16.1208 105.796 -16.6122 105.478 -17.0339 105.249C-16.858 105.269 -16.6554 105.441 -16.5459 105.478C-16.4431 105.401 -16.7518 105.299 -16.6823 105.173C-17.0608 104.981 -16.9244 105.286 -17.3727 104.988L-16.855 105.043C-17.0277 104.914 -17.3032 104.862 -17.4028 104.829C-17.0974 104.924 -17.0611 104.748 -17.0613 104.632C-18.2264 104.229 -17.4723 104.955 -17.6147 105.101C-18.6042 104.485 -19.5335 104.287 -20.3468 103.907L-20.1015 103.8C-20.5065 103.638 -20.7156 103.586 -20.9047 103.589L-21.5122 103.288C-21.1272 103.394 -20.9846 103.397 -20.8885 103.257C-21.5591 102.996 -22.4257 102.51 -22.7108 102.669L-22.6677 102.64C-23.4879 102.13 -25.2575 101.183 -25.1581 101.133C-26.124 100.763 -27.2265 100.038 -27.3655 100.274C-27.9497 100.069 -28.6443 99.2638 -29.1915 99.3807C-29.7695 98.9071 -29.1916 99.2978 -28.9097 99.2144C-29.4943 98.7442 -30.3501 98.8416 -30.4138 98.3838C-31.2403 98.1428 -30.2676 98.5428 -30.5993 98.5765C-30.6165 98.1784 -32.0037 97.8618 -32.6547 97.3584C-33.0396 97.3524 -32.3591 97.5836 -32.983 97.4817C-32.8968 97.4218 -33.1857 97.2762 -33.3317 97.2001L-33.5671 97.3431L-34.0925 96.5111C-35.3103 96.3005 -34.0155 96.9622 -35.5357 96.4468L-35.4362 96.4632C-35.7486 96.0722 -36.5579 96.2126 -37.5773 95.6368C-37.2286 95.8188 -37.3849 95.5901 -37.2522 95.5733C-37.4613 95.5205 -37.6737 95.4777 -37.8828 95.4415C-37.8197 95.4513 -37.7998 95.4414 -37.8463 95.3983C-38.3179 95.0539 -38.3408 95.3227 -38.9086 94.9685C-38.4672 95.0707 -38.5372 94.8651 -38.6999 94.7227C-39.0284 94.6966 -39.3536 94.6771 -39.682 94.6676L-39.2145 94.4911C-40.0908 94.1838 -41.5405 94.2555 -41.8796 93.7451L-41.4184 93.8207C-41.4351 93.7378 -41.6445 93.4528 -42.2881 93.4437C-42.4872 93.4274 -42.6562 93.5703 -42.394 93.6297L-42.8289 93.4412C-42.5637 93.3081 -41.4254 93.5421 -40.7086 93.697C-40.9474 93.7006 -41.5148 93.6284 -41.3753 93.7908C-40.7348 93.8928 -40.111 93.9616 -39.4871 94.0801C-39.7525 94.0805 -39.9382 94.1571 -40.0808 94.2037C-39.45 94.518 -39.54 94.2229 -39.0255 94.3715C-38.8628 94.5139 -38.7498 94.6066 -38.8991 94.6234C-38.2553 94.7652 -37.7442 94.9071 -37.1299 95.2546C-37.1299 95.2546 -37.9164 95.1263 -37.5511 95.3747C-36.323 95.7213 -35.9782 95.5649 -34.6473 95.9678C-33.0245 96.2575 -31.8717 97.3806 -30.7566 97.6179C-30.6605 97.5614 -31.4507 97.1278 -30.7603 97.379C-30.9525 97.4921 -30.4181 97.6639 -30.4114 97.7435C-29.5885 97.8286 -29.3888 98.2928 -28.8048 98.365C-28.9541 98.3652 -28.5688 98.6201 -28.3264 98.8056C-28.502 98.9684 -27.5826 99.2624 -28.7474 99.0583C-27.5494 99.2623 -26.9113 100.038 -25.9062 99.9567L-26.152 99.7647L-25.1359 100.384L-25.1824 100.357C-24.7441 100.619 -24.6446 100.602 -24.1296 101.115C-24.4217 101.03 -24.8035 100.848 -25.0856 100.765C-24.6172 101.219 -23.8408 101.195 -23.2167 101.496C-23.316 101.629 -23.8939 101.221 -23.8006 101.49C-23.3623 101.735 -22.9343 101.811 -22.4994 101.982L-22.5989 102.032C-21.5926 102.764 -21.9688 101.849 -21.301 102.518C-21.3077 102.455 -21.175 102.455 -21.2016 102.385C-20.9425 102.621 -20.3181 103.104 -21.0583 102.87C-20.6732 103.058 -20.2019 103.203 -19.9696 103.203C-20.2321 102.928 -20.3382 102.948 -20.3883 102.733L-18.8015 103.397C-18.6255 103.483 -18.9674 103.414 -19.1832 103.315C-17.5756 104.633 -15.3294 104.693 -13.4927 106.137C-13.6689 105.902 -13.2871 106.084 -13.0482 106.08C-12.3941 106.424 -11.3618 106.827 -10.7608 107.181L-11.0062 107.188C-9.34326 107.773 -8.16172 108.094 -7.11926 108.6C-7.05292 108.583 -7.18542 108.732 -7.38788 108.676C-6.52837 108.834 -5.80711 109.776 -5.43924 109.5L-5.71481 109.348C-4.17772 110.062 -2.33909 110.517 -0.705903 111.142C-0.416736 111.52 -1.64533 110.775 -1.42249 111.17C-0.33685 111.712 0.88121 112.039 2.05973 112.568C1.84734 112.525 1.88389 112.565 1.781 112.542C2.95297 113.124 1.72425 112.28 2.74333 112.673C2.64724 112.763 2.68711 112.809 3.01581 112.985L3.38065 112.901C3.42716 112.944 3.37094 113.081 3.19842 113.084C3.73246 113.007 5.08691 113.589 5.53133 113.482C5.60775 113.568 5.28281 113.698 5.40242 113.821C5.95016 114.052 6.36491 114.085 6.75976 114.111C7.11514 114.389 8.08429 114.666 7.8686 114.634C8.8512 115.037 8.0742 114.564 8.88056 114.682L8.10703 114.315C8.59161 114.453 9.0762 114.592 9.55416 114.751L8.9502 114.655C9.57437 114.973 10.3143 115.025 11.0645 115.346L10.7722 115.077C11.0709 115.16 11.3663 115.269 11.6584 115.371C11.6389 115.647 12.7176 115.944 12.1172 116.004C12.8576 116.455 13.4918 116.759 14.1126 117.087C14.4148 117.259 14.7368 117.404 15.0324 117.613C15.1851 117.719 15.3279 117.821 15.484 117.934L15.5903 118.013C15.5903 118.013 15.6135 118.027 15.6301 118.043L15.7298 118.126C15.6434 118.037 15.6469 118.126 15.6071 118.146C15.6901 118.246 15.7666 118.332 15.8397 118.395C15.8795 118.424 15.9094 118.451 15.9459 118.474L15.9924 118.501C16.0057 118.494 16.0222 118.461 16.0355 118.438C16.1447 118.258 16.1942 118.076 16.2006 117.94C16.2307 118.049 16.1844 118.155 16.2177 118.238C16.3965 118.016 16.3831 117.939 16.3995 117.823C16.4358 117.664 16.4721 117.488 16.6605 116.987C16.6477 117.309 16.7371 117.255 16.8794 116.993C16.77 116.99 16.8128 116.744 16.8457 116.545C17.0793 117.54 17.4778 115.44 17.7043 116.073C17.6444 115.987 17.8277 114.202 17.49 114.653L17.4605 114.959C17.3112 114.959 17.4567 114.57 17.516 114.258C17.5062 114.421 17.5031 114.597 17.5264 114.61C17.7033 113.011 18.0593 111.338 18.0468 109.494C18.0968 109.659 18.1376 110.402 18.2199 109.938C18.4264 108.116 18.1727 107.032 18.0739 105.18C18.4321 105.1 18.0734 107.181 18.4053 107.264C18.3959 105.309 18.2836 103.299 18.118 101.1C18.6445 100.346 17.9292 98.9533 18.4017 97.5792C18.2261 97.7088 18.1819 96.9922 18.2705 96.2423C18.3803 96.5109 18.4754 95.7245 18.5488 95.9533C18.4317 95.2733 18.6911 93.3752 19.0098 93.5141C18.7109 93.2823 19.2966 92.1335 19.183 91.5597C19.4937 90.773 19.5255 89.8108 19.9024 88.8415C19.6009 89.1339 20.0801 87.8228 20.1194 87.4379C20.0997 87.5474 20.0668 87.7631 20.1099 87.7166C20.3683 87.4707 20.3006 86.5252 20.5819 86.0106C20.7309 85.7782 20.7413 86.1298 20.8867 85.7249C20.744 85.672 21.0769 84.1354 21.4279 83.6439C21.3387 83.8962 21.4118 83.9259 21.4087 84.1018C22.0353 81.4301 23.3056 78.8007 23.8194 76.0861L23.9064 76.6235C24.7105 75.0664 23.845 75.4259 24.2447 74.1381C24.5089 73.2585 24.7764 72.369 25.014 71.4696C25.2582 70.5502 25.5355 69.5811 25.8196 68.6749C26.0904 67.7755 26.3844 66.856 26.3701 66.166C26.3697 65.8176 26.2665 65.5955 26.0704 65.3536C25.8909 65.1116 25.5655 64.8931 25.2169 64.6945C24.9713 64.6352 25.2967 64.8371 25.2537 64.9499C25.0544 64.7843 25.0707 64.5687 24.6725 64.4863C24.6825 64.5393 24.6826 64.5891 24.686 64.6455C24.108 64.1387 22.9528 63.7057 21.8972 63.3223C20.8317 62.9356 19.8094 62.5854 19.3243 62.1149C17.758 61.8053 16.8015 61.1232 14.8504 60.8903C14.2959 60.6124 15.5935 60.8661 14.8068 60.6051L13.0215 60.3222L13.1244 60.3287C11.3592 60.2516 8.80252 58.7456 6.60912 58.46L6.70203 58.4632C6.77159 58.3868 6.3632 58.1684 6.01808 58.1091C5.88541 58.1425 6.10452 58.2318 6.28717 58.3642C4.36242 58.0186 3.95087 57.9096 2.45404 57.5236C3.13091 57.5658 1.87968 57.239 1.87277 57.0433C1.44813 57.0572 2.04896 57.2952 1.14634 57.1505C-0.0949511 56.8105 -1.19046 56.331 -2.19624 55.9641C-2.65734 56.0046 -3.19176 55.7996 -3.27775 55.9921C-4.66844 55.586 -5.47817 55.4279 -7.17427 54.8928L-7.19761 54.8132C-7.73493 54.9168 -8.6317 54.2213 -8.99327 54.2617C-8.9237 54.1853 -8.7279 54.2115 -8.75457 54.1253L-9.55106 53.9605C-9.16615 53.9998 -8.88436 53.8335 -9.50509 53.6055C-10.2218 53.5666 -9.36551 53.7844 -9.73041 53.8181L-9.85358 53.523C-10.3614 53.3877 -10.5867 53.6003 -9.99574 53.8682C-11.6919 53.3165 -13.4044 52.8644 -14.9015 52.3124L-14.6926 52.2159C-15.5456 51.9882 -16.6642 51.595 -17.1158 51.2904C-17.149 51.3236 -17.3845 51.3339 -17.2682 51.4332C-18.3301 51.2854 -17.2918 51.1546 -18.4433 50.9936C-18.1579 51.033 -17.8061 51.1221 -17.7333 51.0524L-19.8208 50.5145C-19.8044 50.3983 -20.9334 49.7032 -21.8195 49.4921C-21.8758 49.5453 -21.6666 49.7142 -21.4541 49.8068L-22.015 49.6649L-22.3374 49.254L-23.2101 49.1855L-23.1473 48.9631C-23.7414 48.7881 -24.0763 48.981 -24.5377 48.7892C-26.2342 47.9887 -25.8525 48.0545 -27.0213 47.3628C-27.3261 47.7149 -28.9832 46.546 -29.4177 46.6893C-30.9253 45.6861 -33.3551 44.7639 -35.3739 43.5856L-35.1881 43.6417C-35.9786 42.9926 -36.3463 43.4012 -37.2595 42.8053L-36.9906 42.8779C-37.1268 42.7719 -37.2829 42.6593 -37.449 42.5434C-37.532 42.4772 -37.5984 42.4275 -37.6914 42.3746C-37.8607 42.2686 -38.0533 42.166 -38.206 42.1099C-38.3189 42.0171 -38.2457 42.2128 -38.2289 42.3123C-38.2056 42.425 -38.1756 42.5345 -38.1456 42.6273C-38.1156 42.7202 -38.0856 42.7965 -38.0623 42.8595C-38.049 42.886 -38.039 42.9225 -38.0224 42.939C-38.0091 42.9656 -37.9958 42.9423 -37.9857 43.0617C-38.0589 42.8827 -38.1983 42.9028 -38.1678 43.3606C-38.0677 43.7254 -37.8697 42.9952 -37.935 43.7584C-37.9817 43.566 -38.0777 43.7221 -38.0741 43.8946C-37.9908 44.1433 -37.9175 44.3887 -37.8574 44.6408C-38.004 46.5984 -38.3924 48.8351 -38.5654 50.8227C-38.6943 51.1778 -38.7345 50.8992 -38.7944 50.7964C-38.978 52.366 -39.1052 53.9321 -39.3554 55.3358L-39.6339 55.4258C-39.7823 56.1061 -39.3545 55.933 -39.7681 56.763C-39.8475 56.9522 -39.6561 56.1756 -39.7129 55.9136C-40.2054 57.2314 -39.6486 56.7695 -39.9819 58.0572L-40.1783 57.6494C-40.5784 58.6055 -40.2994 58.8141 -40.2291 59.2188C-40.247 60.6885 -41.0043 60.0725 -41.2438 62.0104C-41.1836 62.3454 -41.0183 61.9636 -40.9581 62.2986C-41.3676 63.5997 -41.2147 63.8052 -41.6177 65.103C-42.2041 65.7043 -41.4461 64.4359 -42.0258 65.1002L-41.6788 64.121C-42.1189 64.9312 -41.5306 63.3246 -41.8125 63.3913C-42.0505 64.0253 -42.0955 65.0605 -42.2237 65.9299C-42.4129 65.8838 -41.9961 64.9443 -42.3474 65.2699L-42.3799 65.7178C-42.4066 65.5818 -42.473 65.5487 -42.4004 65.2965C-42.6126 65.403 -42.539 65.7977 -42.6347 66.2191C-42.5483 66.2754 -42.4057 66.2785 -42.2399 66.1788C-42.2598 66.1888 -42.2963 66.2154 -42.3327 66.2751C-42.275 67.1841 -42.8172 68.5849 -42.7564 69.3346C-42.7931 69.2119 -42.8294 69.3049 -42.8791 69.3381C-42.9946 69.8359 -42.8345 70.4031 -42.8667 71.0998C-43.0587 71.4617 -43.2553 70.8217 -43.33 71.9465C-43.2003 72.1719 -42.8626 71.7036 -42.9907 72.6394C-42.9741 72.6228 -42.9918 71.7934 -43.1638 72.2117ZM-38.9033 51.2246C-38.8901 51.1184 -38.8738 50.9525 -38.8442 50.7633C-38.8737 51.0022 -38.8901 51.135 -38.9033 51.2246ZM-38.8194 49.4893C-38.8457 49.6851 -38.7859 49.7547 -38.703 49.7048C-38.6636 49.4028 -38.6275 49.1108 -38.6013 48.8818C-38.6971 49.154 -38.7894 49.5987 -38.8194 49.4893ZM-40.5368 52.7165L-40.5568 52.6767C-40.5305 52.4643 -40.5109 52.3051 -40.4878 52.169C-40.5375 52.2023 -40.5938 52.2886 -40.6133 52.5806C-40.6 52.6403 -40.5734 52.6767 -40.5368 52.7165Z" fill="#FA90A9"/>
<path d="M17.4928 114.229C17.5027 114.182 17.506 114.139 17.5126 114.102C17.5188 113.8 17.5025 113.999 17.4928 114.229Z" fill="#FA90A9"/>
<path d="M6.72934 114.084C6.90879 114.094 7.08491 114.114 7.25775 114.143C6.98513 114.047 6.77238 113.971 6.72934 114.084Z" fill="#FA90A9"/>
<path d="M18.2538 96.2097L18.2571 96.2164L18.2737 96.0996L18.2538 96.2097Z" fill="#FA90A9"/>
<path d="M7.98084 114.378C7.71857 114.252 7.4796 114.189 7.26057 114.15C7.48297 114.229 7.7419 114.331 7.98084 114.378Z" fill="#FA90A9"/>
<path d="M0.164252 111.652L-0.221015 111.364L-0.489643 111.44L0.164252 111.652Z" fill="#FA90A9"/>
<path d="M2.42659 113.977L2.22083 113.931C2.48967 114.004 2.74854 114.057 3.01405 114.123L2.42659 113.977Z" fill="#FA90A9"/>
<path d="M20.8983 91.5205L20.6359 91.6106C20.6031 91.9263 20.8392 92.0489 20.8983 91.5205Z" fill="#FA90A9"/>
<path d="M26.1782 73.5251C26.3505 73.3557 26.5456 72.8511 26.502 72.4995C26.3964 72.9177 26.2012 73.3061 26.1782 73.5251Z" fill="#FA90A9"/>
<path d="M90.053 145.946C97.2404 135.579 99.887 121.193 102.537 109.012C120.318 115.276 142.008 116.15 160.541 120.231C154.294 129.893 145.832 143.926 134.766 148.243" fill="#5A9B74"/>
<path d="M134.35 147.081C134.349 147.256 134.509 147.584 134.658 147.437L134.554 146.812L134.35 147.081Z" fill="#5A9B74"/>
<path d="M135.977 147.589C136.069 147.226 136.069 146.647 135.695 146.202C135.752 146.822 135.596 146.624 135.673 147.363C135.524 147.51 135.285 147.319 135.223 147.096C135.222 147.271 134.906 147.096 134.955 147.492C135.362 147.829 135.68 147.708 135.822 147.216C135.943 147.304 135.947 147.487 135.977 147.589Z" fill="#5A9B74"/>
<path d="M151.144 135.5L151.009 135.551C151.064 135.55 151.109 135.533 151.144 135.5Z" fill="#5A9B74"/>
<path d="M158.39 125.775C158.357 125.862 158.383 125.922 158.428 125.96C158.436 125.867 158.441 125.787 158.39 125.775Z" fill="#5A9B74"/>
<path d="M160.318 124.042C160.257 124.101 160.215 124.139 160.177 124.184C160.274 124.146 160.34 124.094 160.318 124.042Z" fill="#5A9B74"/>
<path d="M151.143 135.5L151.498 135.367C151.356 135.226 151.28 135.404 151.143 135.5Z" fill="#5A9B74"/>
<path d="M137.575 145.077C137.534 145.135 137.516 145.212 137.516 145.3C137.549 145.247 137.579 145.206 137.621 145.169L137.575 145.077Z" fill="#5A9B74"/>
<path d="M148.056 139.942L147.984 140.02C148.024 140.083 148.065 140.167 148.114 140.246L148.056 139.942Z" fill="#5A9B74"/>
<path d="M145.205 143.005C145.297 142.959 144.959 142.556 144.829 142.363C144.938 142.558 144.958 142.677 144.924 142.763C144.989 142.833 145.084 142.916 145.205 143.005Z" fill="#5A9B74"/>
<path d="M139.457 146.399L139.393 146.526C139.41 146.483 139.432 146.448 139.457 146.399Z" fill="#5A9B74"/>
<path d="M150.094 137.77C150.165 137.813 150.218 137.846 150.269 137.858C150.216 137.825 150.163 137.793 150.094 137.77Z" fill="#5A9B74"/>
<path d="M94.6783 143.083C94.648 143.069 94.6256 143.05 94.5954 143.036C94.6324 143.079 94.6597 143.105 94.6783 143.083Z" fill="#5A9B74"/>
<path d="M89.953 145.856L89.9631 145.784L89.7339 145.609L89.953 145.856Z" fill="#5A9B74"/>
<path d="M164.667 118.499L164.64 118.527C164.639 118.649 164.673 118.562 164.667 118.499Z" fill="#5A9B74"/>
<path d="M126.82 112.548C127.123 113.07 126.098 113.04 126.592 113.641C126.573 113.434 127.251 112.925 126.82 112.548Z" fill="#5A9B74"/>
<path d="M137.693 145.091C137.728 145.059 137.775 145.029 137.827 145.008C137.754 145.031 137.715 145.056 137.693 145.091Z" fill="#5A9B74"/>
<path d="M126.597 113.648L126.648 113.714C126.629 113.683 126.611 113.672 126.597 113.648Z" fill="#5A9B74"/>
<path d="M152.419 116.393C152.424 116.488 152.448 116.561 152.471 116.634C152.47 116.58 152.46 116.51 152.419 116.393Z" fill="#5A9B74"/>
<path d="M159.735 118.547L159.558 118.438C159.618 118.499 159.679 118.527 159.735 118.547Z" fill="#5A9B74"/>
<path d="M148.967 116.571C148.892 116.519 148.871 116.433 148.743 116.491C148.75 116.52 148.759 116.536 148.766 116.564C148.823 116.496 148.883 116.47 148.967 116.571Z" fill="#5A9B74"/>
<path d="M145.507 116.031L145.555 116.144L145.671 116.137L145.507 116.031Z" fill="#5A9B74"/>
<path d="M98.7926 132.889C98.6241 132.917 98.4565 132.912 98.292 132.894C98.6614 132.96 98.6205 133.51 98.7926 132.889Z" fill="#5A9B74"/>
<path d="M137.719 145.327C137.674 145.202 137.656 145.137 137.688 145.083C137.657 145.103 137.63 145.131 137.608 145.166C137.644 145.242 137.679 145.297 137.719 145.327Z" fill="#5A9B74"/>
<path d="M148.178 120.613L147.65 120.449C147.786 120.528 147.983 120.581 148.178 120.613Z" fill="#5A9B74"/>
<path d="M104.493 111.896L104.477 111.963C104.496 111.974 104.507 111.956 104.493 111.896Z" fill="#5A9B74"/>
<path d="M146.02 120.27C145.952 120.072 145.866 119.95 145.77 119.867C145.74 119.908 145.714 119.935 145.681 119.988L146.02 120.27Z" fill="#5A9B74"/>
<path d="M97.6639 136.42C97.7194 137.02 97.4747 136.538 96.8835 136.818C97.2935 137.284 96.4967 137.233 97.3182 137.64C96.6945 137.569 96.9197 137.615 96.3949 137.755C96.9005 137.812 96.6044 138.532 97.1459 138.753C96.4782 138.61 96.6169 137.901 95.7989 138.027C96.0909 138.479 96.0106 139.054 96.6512 139.399C96.4019 139.543 96.1165 139.523 95.8983 139.823C95.9663 139.792 95.8672 139.667 95.8152 139.601C96.001 140.393 95.1511 141.03 95.7592 141.745C94.8792 141.155 95.0211 142.914 94.3751 142.015C94.2819 142.27 94.482 142.856 94.6104 143.027C93.9051 142.613 94.0925 143.513 93.5228 143.528C93.8436 143.886 93.4746 144.224 93.5572 144.621C93.5419 144.456 93.4508 144.327 93.2394 144.25C93.369 144.705 93.1266 144.473 92.6591 144.513C92.6528 145.03 93.2331 144.768 93.4277 145.204C93.0571 145.435 92.953 144.986 92.6247 144.862L93.0099 145.781C92.869 145.836 92.6969 145.822 92.4807 145.738C92.5792 146.038 92.7692 146.378 92.2791 146.399L92.5272 145.971L92.0709 145.905L92.1897 146.695C91.2274 147.063 90.6508 146.328 89.9675 145.791L90.0176 145.432C89.7701 145.28 89.5071 145.367 89.4212 145.475C89.1919 145.475 88.9318 144.511 89.0204 144.161C89.5724 143.414 89.9738 144.553 90.5053 144.124C90.513 143.802 90.5336 143.483 90.5237 143.151L90.7791 143.298C91.0114 143.285 90.7768 143.048 90.7376 142.985C91.0793 143.254 91.2025 142.467 91.4325 142.204L91.0411 142.119C90.7355 140.888 92.601 141.27 92.5297 140.364L92.1883 139.603L92.7399 139.752C92.5837 139.325 92.2202 139.092 92.603 138.723C94.2544 137.511 93.9093 135.267 95.1029 133.793C94.9927 133.774 94.9297 133.813 94.8114 133.887C96.7093 132.861 94.2916 131.062 95.7841 130.07L95.9568 130.224C96.068 129.489 96.1217 130.384 96.5754 129.971C95.9593 129.666 96.349 128.921 96.2254 128.44C96.3432 128.542 96.2847 128.677 96.3444 128.825C96.5127 128.797 96.9169 128.885 96.8526 128.641C96.0595 127.909 96.432 126.979 96.3496 126.178C96.807 126.21 97.3565 125.705 98.1489 125.573C98.0056 125.466 97.7139 125.242 97.4223 125.019C97.7682 124.837 97.6065 124.577 97.3957 124.326C97.3498 124.551 97.3069 124.763 97.2759 124.924L97.2357 124.895C97.2553 124.926 97.2591 124.968 97.2629 125.009C97.2448 125.173 97.2445 125.261 97.2918 125.231C96.7994 125.406 96.9605 125.12 96.4541 125.009C96.5285 124.777 96.4837 124.247 96.8841 124.294C96.9297 124.156 97.0096 124.074 97.1192 123.951C97.0634 123.844 97.0489 123.732 97.124 123.642L97.1632 123.705C97.2379 123.702 97.2872 123.694 97.3364 123.685C97.674 123.278 97.083 122.433 96.8274 121.968C97.377 122.501 97.5691 122.054 98.0342 122.169C98.0127 122.117 97.8687 122.589 97.7058 123.171C97.7738 123.14 97.8564 123.132 98.0256 123.158C98.6485 122.771 97.8098 122.178 98.3331 121.525C98.3723 121.588 98.4585 121.709 98.6386 121.717C98.834 121.487 98.5201 121.157 98.2538 121.028C98.721 121.076 99.1927 120.586 99.0539 120.257C98.735 119.92 98.555 119.912 98.6948 119.486L98.9696 119.752C99.3605 119.291 98.5903 119.212 98.9603 118.84C98.7858 118.981 99.1279 119.075 99.2217 118.962C99.1712 118.371 99.0001 118.324 98.4407 117.775L98.9292 117.963C98.7299 117.432 98.3145 116.411 99.0029 116.552C97.9237 116.468 98.6764 115.41 98.7847 115.004C98.7853 115.146 98.9967 115.222 99.1088 115.262C98.5979 114.246 99.4608 113.524 99.6383 112.649L100.433 112.68C100.504 112.177 98.9791 111.922 99.2457 110.838C99.3358 111.001 99.4338 111.159 99.5347 111.304C99.7655 109.652 99.9779 108.974 100.36 107.83L100.784 108.353C100.673 107.7 100.794 107.156 100.704 106.414C100.778 106.444 100.842 106.459 100.904 106.453C100.971 106.456 100.989 106.379 101.121 106.504C101.343 106.65 101.541 106.757 101.752 106.834C102.167 106.991 102.58 107.041 103.059 107.125C103.981 107.274 105.271 107.555 105.919 108.528C106.02 108.215 106.125 107.909 106.238 107.598C106.66 107.751 106.848 107.755 107.033 107.858C107.218 107.962 107.351 108.142 107.344 108.518L107.258 108.484C106.998 109.192 107.645 108.615 107.849 108.838C108.064 108.814 108.384 108.396 108.266 108.207C108.715 108.595 109.366 108.781 109.961 109.001C110.555 109.2 111.094 109.434 111.312 109.943C112.462 109.895 113.435 109.368 114.567 109.713L114.528 109.825C114.881 110.043 115.609 110.475 115.429 111.276C116.317 111.281 117.078 110.306 118 110.859L117.716 111.123C117.936 111.336 118.425 111.032 118.543 110.959C118.629 110.992 118.535 111.139 118.495 111.251C118.683 111.571 118.912 111.166 119.117 111.127L118.983 111.385C119.67 112.105 121.148 111.264 122.152 111.58C121.948 111.619 121.991 111.953 122.046 112.094C122.641 111.276 123.756 111.698 124.224 111.571L123.897 111.873C124.836 111.431 124.463 112.942 125.405 112.488L125.012 111.89C125.327 112.099 125.645 111.978 125.636 111.558C125.982 111.922 125.567 112.256 126.151 112.44C126.137 112.699 125.689 112.541 125.835 112.898L126.556 113.707C126.571 113.785 126.671 113.821 126.96 113.795C127.068 112.667 127.661 113.851 127.421 112.689C128.615 112.799 129.498 113.693 130.594 113.329C130.843 114.486 132.602 113.677 132.298 115.069C132.874 115.17 133.375 114.956 133.819 114.44C133.72 114.316 133.551 114.465 133.423 114.523C133.629 114.187 134.334 114.23 134.618 114.283C134.192 114.547 133.542 114.733 133.158 115.223C133.703 115.168 134.515 114.751 134.829 114.622L134.856 115.37C135.376 114.905 135.145 116.01 135.688 115.355L135.634 115.127C136.437 115.294 136.551 114.579 137.323 114.591L137.244 114.87C137.492 115.022 137.968 114.398 138.128 115.096L137.633 115.055C137.601 115.566 137.952 115.851 138.082 116.13C138.628 116.076 138.384 115.331 138.66 115.301C138.701 115.79 138.647 115.561 138.396 116.001C139.009 115.915 139.818 115.828 140.33 115.28C140.346 115.358 140.301 115.462 140.301 115.462C140.893 115.641 141.554 114.859 141.872 115.317L141.744 115.375C142.123 116.144 143.096 114.895 143.021 116.111C143.224 116.368 142.505 115.984 142.793 116.624C143.455 117.109 143.421 115.699 144.002 116.125C143.918 116.078 143.942 116.151 143.897 116.255C144.36 116.296 144.991 116.275 145.521 116.23C145.994 117.291 147.469 116.288 148.009 117.526C147.848 117.091 148.26 117.086 148.294 116.912C148.294 116.912 148.249 117.016 148.265 117.094C148.517 117.166 148.612 116.791 148.732 116.65C148.893 117.031 149.513 116.395 149.616 116.648C149.66 116.402 149.86 116.496 150.094 116.537C149.579 116.747 149.853 117.047 149.586 117.409C150.267 117.642 150.568 116.439 151.256 116.755L151.573 117.3C151.779 116.594 152.405 117.003 152.434 116.733C152.519 116.975 152.676 117.14 152.592 117.498C152.91 117.377 153.285 117.822 153.476 117.408L153.221 117.173C154.073 117.595 154.793 116.677 155.399 117.284L155.182 118.359C155.564 118.887 156.121 117.918 156.439 118.66C156.349 118.268 156.253 118.36 156.762 118.088C156.47 117.952 156.12 118.181 155.831 118.12C156.086 117.95 156.29 117.769 156.604 117.606C156.199 117.64 155.904 117.692 155.552 117.725C156.037 117.379 156.001 117.479 155.907 117.012C156.238 116.894 156.37 117.053 156.496 117.204C156.54 117.275 156.669 117.359 156.82 117.407C156.97 117.456 157.145 117.456 157.428 117.401C157.709 117.608 157.226 117.92 157.489 118.204C157.946 118.095 158.221 118.362 158.407 118.574C158.611 118.797 158.732 118.973 159.223 118.777C159.288 118.901 158.912 118.752 158.745 118.976C159.257 118.974 159.517 119.075 159.978 118.833L159.69 118.651C160.004 118.751 160.53 118.402 160.967 118.754C161.648 118.636 162.633 118.287 162.114 118.172C162.418 118.169 162.493 118.483 161.904 118.696C163.011 118.948 164.158 117.962 164.614 118.608C164.493 118.607 164.299 118.629 164.246 118.684L164.369 118.618C164.363 118.644 164.313 118.686 164.291 118.721C164.235 118.789 164.194 118.847 164.154 118.905C164.081 119.016 164.047 119.103 164.045 119.169C164.268 118.736 163.859 118.957 163.544 119.12C163.377 119.202 163.238 119.277 163.195 119.261C163.123 119.251 163.352 119.075 163.04 119.029C162.59 119.308 162.741 119.674 162.257 120.073C162.56 120.332 163.479 119.718 163.748 119.835C163.48 119.914 163.342 120.131 163.067 120.411L163.862 119.983C163.712 120.217 163.558 120.444 163.527 120.693L163.577 120.28C163.359 120.546 162.894 120.923 162.506 121.284C162.111 121.65 161.798 122.008 161.798 122.412C161.73 122.181 161.528 121.837 160.951 122.316C160.784 123.086 160.618 122.501 159.988 122.859C159.659 123.544 160.739 123.136 159.755 124.173C159.674 124.289 159.991 124.289 160.187 124.2C160.008 124.387 159.869 124.55 159.756 124.719C159.642 124.888 159.544 125.047 159.498 125.131C159.375 125.338 159.248 125.537 158.946 125.703C159.186 125.543 159.423 125.45 159.407 125.865C159.186 125.543 158.853 126.099 158.539 126.174L158.688 126.344C158.386 126.368 158.416 126.152 158.43 125.98C158.492 126.028 158.575 126.021 158.628 125.912C158.641 125.564 157.878 125.197 157.547 125.545C157.442 126.08 157.983 126.334 158.208 126.38C157.648 126.815 158.704 127.46 158.062 127.815C157.973 127.936 156.965 127.862 156.638 128.197C156.924 128.675 157.275 127.921 157.484 128.381C156.013 128.334 157.227 130.148 156.02 130.58L155.582 130.121C155.414 130.29 155.251 130.468 155.15 130.728L155.625 130.629C155.608 130.902 155.186 131.295 154.906 130.879C155.006 131.604 154.699 131.532 154.274 131.851C154.625 131.447 154.353 131.889 154.315 131.388C153.744 131.666 153.884 131.82 153.778 132.214C153.637 132.039 153.246 132.008 153.165 132.124C153.285 132.651 152.838 133.093 152.708 133.622L152.564 133.514C152.244 134.336 151.022 134.549 150.918 135.542L150.914 135.589L150.982 135.557C151.619 135.686 150.895 136.333 150.919 136.689C150.769 136.64 150.552 136.502 150.458 136.615C150.882 136.963 150.478 137.051 150.593 137.307C150.257 137.417 150.11 136.864 149.801 137.263C149.713 137.438 149.915 137.641 150.089 137.762C149.809 137.663 149.432 137.777 149.213 137.935C149.164 137.768 149.398 137.776 149.413 137.712C149.214 137.497 149.179 137.704 148.898 137.464C148.713 137.622 149.228 137.871 148.887 137.973L148.738 137.487C148.577 137.51 148.619 137.735 148.604 137.799C148.639 137.592 148.29 137.328 148.08 137.185C147.885 137.908 148.877 138.045 149.217 138.38C148.551 138.663 148.632 139.41 148.302 139.812L147.989 139.395C147.881 139.626 147.888 139.796 147.987 140.008L147.726 140.29C147.745 140.005 147.676 139.84 147.378 139.555C147.219 139.949 146.748 140.264 147.165 140.813L147.091 140.728C146.54 140.95 145.637 141.642 145.499 141.455C145.251 142.024 144.455 142.256 144.901 142.745C144.75 143.1 143.65 142.702 144.024 143.497C143.418 143.436 143.892 143.372 143.646 142.923C143.048 142.858 143.49 143.992 142.751 143.348C142.597 143.891 142.967 143.432 143.124 143.859C142.471 143.249 142.339 144.303 141.666 144.186C141.737 144.601 141.97 144.237 141.939 144.749C141.824 144.547 141.656 144.629 141.573 144.67L141.845 145.178L140.643 144.352C140.517 145.293 141.346 145.062 140.759 145.787L140.782 145.719C140.241 145.377 140.498 146.441 139.702 146.444C139.945 146.413 139.626 146.163 139.593 145.987L139.421 146.378C139.438 146.335 139.426 146.298 139.355 146.255C138.859 146.072 139.256 146.623 138.738 146.475C138.897 146.256 138.604 145.924 138.401 145.81L138.28 146.617L138.068 145.853C137.621 146.032 137.549 147.498 136.823 146.681L136.989 146.457C136.884 146.304 136.498 145.877 136.391 146.392C136.346 146.529 136.481 146.959 136.603 146.872L136.298 146.821C136.195 146.339 136.647 145.905 136.901 145.594C136.899 145.836 136.717 146.124 136.946 146.353C137.168 146.04 137.288 145.583 137.481 145.278C137.465 145.517 137.566 145.837 137.606 146.042C138.06 146.087 137.674 145.606 137.891 145.427C138.085 145.547 138.222 145.626 138.242 145.799C138.444 145.456 138.636 145.238 139.096 145.258C139.096 145.258 138.947 145.809 139.299 145.918C139.714 145.267 139.486 144.688 139.884 143.992C140.041 142.802 141.503 143.38 141.587 142.53C141.465 142.333 140.988 142.498 141.198 142.149C141.43 142.54 141.564 142.228 141.696 142.353C141.569 141.568 142.252 142.051 142.177 141.508C142.225 141.675 142.523 141.643 142.749 141.655C143.087 142.112 143.256 141.504 143.329 142.519C143.227 141.457 144.337 141.925 143.768 140.64L143.539 140.64L144.173 140.377L144.145 140.384C144.404 140.256 144.328 140.117 145.009 140.262C144.987 140.473 144.827 140.638 144.817 140.851C145.407 140.955 145.031 140.052 145.267 139.763C145.549 140.058 145.09 140.146 145.519 140.415C145.764 140.263 145.713 139.901 145.802 139.639L145.935 139.818C146.764 139.675 145.304 138.855 146.19 139.015C146.079 138.942 146.019 138.793 145.901 138.725C146.196 138.76 146.787 138.709 146.709 139.217C146.864 139.044 146.908 138.711 146.793 138.455C146.414 138.373 146.507 138.523 146.136 138.294L146.596 137.451C146.668 137.374 146.71 137.653 146.62 137.754C148.259 137.719 147.292 135.423 149.184 135.373C148.815 135.253 148.979 135.096 148.864 134.84C149.204 134.596 149.505 134.06 149.912 133.905L150.035 134.157C150.39 133.215 150.451 132.434 150.959 132.02C150.892 131.93 151.25 132.243 151.238 132.382C151.141 131.732 152.668 132.15 151.945 131.462L151.783 131.552C152.451 130.886 152.477 129.645 152.915 128.783C153.528 128.926 152.652 129.274 153.337 129.515C153.907 129.096 153.875 128.252 154.447 127.766C154.442 127.9 154.511 127.922 154.509 127.989C155.232 127.606 153.976 127.73 154.393 127.275C154.619 127.462 154.695 127.48 154.93 127.4L154.642 126.989C154.718 127.007 155.021 127.212 155.085 127.369C154.72 126.798 155.517 126.358 155.154 125.862C155.308 125.898 155.68 126.322 155.911 126.376C156.236 126.195 156.166 125.889 156.096 125.583C156.561 125.611 156.819 125.112 156.807 125.25C157.288 124.864 156.583 124.996 156.527 124.43L156.058 124.678L156.392 123.913L156.452 124.345C156.84 124.159 156.656 123.53 156.865 123.215C156.753 123.175 156.616 123.184 156.49 123.174C156.554 122.96 156.477 122.942 156.462 122.831C157.102 123.122 156.778 122.635 157.458 123.043C157.805 122.828 157.832 122.537 157.73 122.338C157.644 122.13 157.426 122.025 157.49 121.864C157.45 121.922 157.661 121.857 157.805 121.844C158.175 121.559 157.764 121.531 157.255 121.661C157.583 121.556 157.662 121.561 157.938 121.477C158.03 121.343 157.895 121.373 157.716 121.418C157.63 121.439 157.537 121.464 157.407 121.501C157.269 121.543 157.126 121.577 157.004 121.609C157.499 121.422 157.727 121.313 157.745 121.236C157.378 121.42 157.047 121.539 156.914 121.588C159.132 120.637 157.314 121.089 158.888 120.297C158.681 120.404 158.193 120.532 157.775 120.704C157.344 120.873 156.994 121.101 156.77 121.339L156.948 121.273C156.539 121.581 156.626 121.44 156.535 121.453C156.627 121.407 156.75 121.341 156.832 121.279C156.42 121.426 156.302 121.412 156.136 121.373C156.059 121.355 155.982 121.337 155.895 121.337C155.849 121.333 155.799 121.341 155.755 121.358C155.672 121.366 155.51 121.368 155.391 121.387C155.5 121.265 155.952 121.094 155.72 120.932C154.758 120.545 154.046 121.141 152.985 121.297C153.088 120.425 154.093 121.374 154.276 120.561C153.187 120.549 152.039 120.672 150.777 120.909C150.578 119.569 149.544 121.228 148.974 120.117C148.973 120.555 148.581 120.646 148.18 120.599C148.371 120.273 147.951 120.195 148.113 119.964C147.698 120.298 146.66 120.298 146.838 119.477C146.62 120.268 146.094 119.317 145.722 119.843C145.321 119.48 144.744 119.871 144.227 119.548C144.343 120.087 143.637 119.706 143.399 119.887C143.459 119.86 143.588 119.803 143.577 119.733C143.476 119.271 142.882 120.022 142.604 119.714C142.489 119.512 142.711 119.254 142.487 119.175C142.429 119.539 141.518 119.832 141.269 119.342C141.412 119.362 141.446 119.188 141.551 119.057C139.974 119.457 138.499 118.472 136.87 118.982L137.226 118.411C136.39 117.488 136.455 119.316 135.712 119.122C133.693 118.529 131.678 117.344 129.605 117.419C129.427 117.573 129.659 117.647 129.646 117.907C129.482 117.801 129.514 117.29 129.219 117.571L129.221 117.909C128.442 116.884 126.461 118.093 126.005 116.585C125.035 116.958 124.567 115.959 123.368 116.562C123.078 116.218 123.86 116.07 123.412 115.911L122.33 116.245L122.393 116.206C121.257 116.999 120.067 114.678 118.744 115.117L118.807 115.078C118.879 114.859 118.691 114.539 118.473 114.576C118.378 114.722 118.488 114.828 118.566 115.042C117.423 115.206 117.186 115.178 116.327 115.078C116.765 114.817 116.047 114.717 116.109 114.252C115.82 114.508 116.139 114.758 115.585 114.905C114.87 114.792 114.311 114.244 113.767 113.948C113.433 114.308 113.153 114.121 113.021 114.63C112.219 114.483 111.727 114.57 110.757 114.31L110.778 114.133C110.355 114.701 110.02 113.598 109.736 113.916C109.821 113.7 109.944 113.634 109.973 113.452L109.481 113.54C109.735 113.404 110.011 112.828 109.676 112.675C109.183 113.025 109.701 112.998 109.418 113.316L109.461 112.699C109.16 112.69 108.902 113.33 109.211 113.598C108.245 113.345 107.205 113.325 106.374 112.989L106.578 112.632C106.071 112.642 105.397 112.437 105.248 112.038C105.208 112.15 105.117 112.338 105.105 112.477C104.883 112.964 105.203 111.826 104.956 112.361C105.002 112.224 105.076 112.167 105.13 111.937C104.948 112.049 104.831 112.177 104.77 112.324C104.746 112.164 104.658 111.88 104.508 111.657C104.366 111.428 104.162 111.259 104.12 111.384C104.201 111.585 104.369 111.874 104.416 111.932C104.405 111.983 104.4 112.029 104.396 112.075C104.249 111.785 104.088 111.491 103.907 111.199C103.961 111.428 104.029 111.659 104.144 111.915L103.717 111.175C103.766 111.483 104.331 112.357 104.283 112.332C104.116 112.239 103.986 112.189 103.833 112.119C103.678 112.063 103.511 111.97 103.227 112.004C103.719 112.322 103.693 112.403 103.623 112.501C103.587 112.567 103.549 112.558 103.542 112.705C103.537 112.839 103.585 112.951 103.773 113.042C102.761 113.823 102.95 115.324 102.445 116.533L102.379 116.41C101.76 116.839 103.057 117.202 102.702 117.74L102.577 117.555C101.846 118.173 102.066 119.599 102.341 120.412C102.215 120.228 101.86 120.219 101.845 120.458C102.009 120.705 102.636 120.447 102.344 120.804C102.265 120.677 102.009 120.705 101.989 120.795L102.425 121.321C101.807 122.262 101.14 123.387 101.158 124.524C100.921 124.671 100.765 124.472 100.59 124.384C100.475 125.254 100.709 126.212 100.578 127.004L99.9528 126.911C99.8456 127.284 100.815 127.403 100.138 127.737C100.024 127.818 100.187 127.411 99.954 127.195C99.2774 127.812 100.419 127.802 100.154 128.502L99.5225 128.119C98.9703 128.549 99.7026 128.848 100.045 129.171C100.61 130.186 98.5619 129.316 98.8419 130.541C99.1295 130.811 99.3514 130.64 99.631 130.914C99.2307 131.589 99.666 131.833 99.2498 132.517C98.1122 132.568 99.3699 132.148 98.2872 132.252L98.7018 131.776C98.0044 132.078 98.712 131.3 98.0875 131.174C97.7944 131.476 98.1221 132.18 98.1591 132.714C97.7108 132.555 98.2905 132.152 97.6076 132.16L97.714 132.455C97.6041 132.348 97.439 132.276 97.4974 132.141C97.0459 132.083 97.3806 132.411 97.3141 132.638C97.5401 132.738 97.8744 132.836 98.2285 132.879C98.1774 132.867 98.1153 132.872 98.0454 132.883C98.5434 133.579 97.7536 134.19 98.121 134.781C98.0062 134.667 97.9559 134.709 97.8378 134.695C97.7082 134.961 98.186 135.484 98.2182 135.923C97.8087 136.002 97.2888 135.429 97.2338 136.097C97.5529 136.347 98.3057 136.328 98.0859 136.836C98.1419 136.855 98.0185 136.287 97.6639 136.42ZM100.454 124.622C100.461 124.563 100.482 124.474 100.493 124.368L100.48 124.365C100.471 124.491 100.461 124.563 100.454 124.622ZM100.292 123.587C100.255 123.686 100.425 123.766 100.61 123.782C100.649 123.616 100.684 123.463 100.745 123.349C100.551 123.458 100.387 123.669 100.292 123.587ZM96.9155 124.678L96.8576 124.638C96.854 124.509 96.8542 124.421 96.8642 124.35C96.7511 124.343 96.6448 124.366 96.6699 124.547C96.7455 124.598 96.8241 124.637 96.9155 124.678Z" fill="#5A9B74"/>
<path d="M97.271 125.004C97.2778 125.033 97.2955 125.044 97.2944 125.077C97.3467 125.056 97.3941 125.026 97.4306 125.015L97.284 124.92L97.271 125.004Z" fill="#5A9B74"/>
<path d="M150.987 135.564L151.01 135.55C150.982 135.557 150.956 135.551 150.918 135.542C150.949 135.556 150.969 135.554 150.987 135.564Z" fill="#5A9B74"/>
<path d="M104.308 112.109L104.213 111.938L104.295 112.106L104.308 112.109Z" fill="#5A9B74"/>
<path d="M145.936 138.747C145.901 138.725 145.845 138.705 145.783 138.711C145.818 138.733 145.877 138.74 145.936 138.747Z" fill="#5A9B74"/>
<path d="M144.176 140.397L143.806 140.507C143.975 140.479 144.092 140.439 144.176 140.397Z" fill="#5A9B74"/>
<path d="M142.65 141.477C142.699 141.556 142.738 141.619 142.767 141.667L142.775 141.662L142.65 141.477Z" fill="#5A9B74"/>
<path d="M156.599 121.467C156.586 121.464 156.57 121.474 156.554 121.484C156.401 121.557 156.475 121.534 156.599 121.467Z" fill="#5A9B74"/>
<path d="M156.139 125.6C156.11 125.465 156.086 125.338 156.092 125.225C155.973 125.332 155.902 125.43 156.139 125.6Z" fill="#5A9B74"/>
<path d="M148.234 120.633L148.238 120.62L148.176 120.613L148.234 120.633Z" fill="#5A9B74"/>
<path d="M156.327 124.882C156.155 124.956 156.099 125.078 156.092 125.225C156.196 125.128 156.32 125.029 156.327 124.882Z" fill="#5A9B74"/>
<path d="M136.168 145.82L136.082 145.841C136.102 145.872 136.109 145.901 136.111 145.921L136.168 145.82Z" fill="#5A9B74"/>
<path d="M136.116 145.929L136.053 146.023C136.093 145.998 136.129 145.986 136.116 145.929Z" fill="#5A9B74"/>
<path d="M135.934 146.217L136.061 146.018C135.993 146.049 135.907 146.069 135.934 146.217Z" fill="#5A9B74"/>
<path d="M138.333 144.836L138.253 144.656C138.262 144.705 138.283 144.757 138.333 144.836Z" fill="#5A9B74"/>
<path d="M138.904 144.384C138.734 144.445 138.319 144.287 138.182 144.526L138.245 144.662C138.192 144.366 138.941 144.743 138.904 144.384Z" fill="#5A9B74"/>
<path d="M142.832 144.357L142.225 144.647C142.441 144.732 142.732 144.847 142.523 145.075C143.554 145.025 142.108 144.829 142.832 144.357Z" fill="#5A9B74"/>
<path d="M144.55 143.236C144.349 143.547 144.75 143.451 144.809 143.546C144.862 143.261 144.872 143.189 144.55 143.236Z" fill="#5A9B74"/>
<path d="M154.031 132.198L154.398 132.507C154.494 132.239 154.242 132.396 154.031 132.198Z" fill="#5A9B74"/>
<path d="M153.59 128.55L153.201 128.594L153.492 128.939L153.59 128.55Z" fill="#5A9B74"/>
<path d="M157.302 129.108L157.297 129.242L157.4 128.773L157.302 129.108Z" fill="#5A9B74"/>
<path d="M146.191 115.672L146.182 116.258C146.376 116.181 146.512 115.538 146.191 115.672Z" fill="#5A9B74"/>
<path d="M135.812 114.744C135.742 114.438 135.478 114.207 135.256 114.466C135.488 114.541 135.684 114.802 135.812 114.744Z" fill="#5A9B74"/>
<path d="M105.255 107.478L105.619 107.394L104.955 107.347L105.255 107.478Z" fill="#5A9B74"/>
<path d="M94.574 143.443C106.653 141.25 116.654 133.988 126.279 127.298C143.242 141.305 167.389 143.199 186.941 150.887C156.198 168.51 124.901 158.731 93.6823 144.98" fill="#FA90A9"/>
<path d="M93.9727 144.429C93.8425 144.466 93.8263 144.651 94.1049 144.729L94.4159 144.525L93.9727 144.429Z" fill="#FA90A9"/>
<path d="M95.5263 145.714C95.8973 145.713 96.3561 145.625 96.2695 145.275C95.8529 145.413 95.8188 145.27 95.347 145.443C95.0688 145.365 94.9286 145.157 95.0165 145.069C94.8944 145.102 94.6274 144.83 94.4126 144.942C94.6635 145.31 95.09 145.504 95.6253 145.522C95.6987 145.64 95.5687 145.677 95.5263 145.714Z" fill="#FA90A9"/>
<path d="M121.748 156.067L121.586 155.982C121.626 156.012 121.687 156.04 121.748 156.067Z" fill="#FA90A9"/>
<path d="M138.817 160.042C138.678 160.03 138.626 160.051 138.612 160.082C138.736 160.07 138.845 160.069 138.817 160.042Z" fill="#FA90A9"/>
<path d="M141.752 160.754C141.688 160.739 141.636 160.727 141.577 160.72C141.638 160.748 141.707 160.771 141.752 160.754Z" fill="#FA90A9"/>
<path d="M121.748 156.067L122.166 156.3C122.234 156.215 121.965 156.152 121.748 156.067Z" fill="#FA90A9"/>
<path d="M99.3832 146.576C99.2887 146.547 99.201 146.547 99.1182 146.554C99.1999 146.58 99.2767 146.598 99.3535 146.616L99.3832 146.576Z" fill="#FA90A9"/>
<path d="M114.335 153.931L114.197 153.885C114.157 153.91 114.105 153.931 114.05 153.965L114.335 153.931Z" fill="#FA90A9"/>
<path d="M108.736 151.956C108.858 152.012 108.991 151.786 109.079 151.699C108.974 151.775 108.862 151.79 108.747 151.763C108.73 151.806 108.728 151.873 108.736 151.956Z" fill="#FA90A9"/>
<path d="M100.196 148.06L100.027 148.034C100.073 148.038 100.132 148.045 100.196 148.06Z" fill="#FA90A9"/>
<path d="M118.336 155.324C118.34 155.366 118.352 155.402 118.358 155.431C118.372 155.4 118.36 155.364 118.336 155.324Z" fill="#FA90A9"/>
<path d="M101.611 142.843C101.601 142.827 101.604 142.814 101.594 142.797C101.576 142.842 101.565 142.86 101.611 142.843Z" fill="#FA90A9"/>
<path d="M94.5839 143.372L94.6727 143.338L94.6672 143.188L94.5839 143.372Z" fill="#FA90A9"/>
<path d="M147.231 161.535L147.206 161.529C147.058 161.555 147.14 161.548 147.231 161.535Z" fill="#FA90A9"/>
<path d="M178.991 146.974C179.466 147.369 178.015 146.989 178.755 147.493C178.71 147.368 179.624 147.325 178.991 146.974Z" fill="#FA90A9"/>
<path d="M99.5166 146.667C99.5855 146.69 99.6642 146.729 99.738 146.76C99.6337 146.715 99.5678 146.679 99.5166 146.667Z" fill="#FA90A9"/>
<path d="M178.755 147.492L178.83 147.543C178.803 147.517 178.786 147.506 178.755 147.492Z" fill="#FA90A9"/>
<path d="M159.965 160.958C159.935 160.911 159.879 160.891 159.826 160.859C159.833 160.887 159.86 160.914 159.965 160.958Z" fill="#FA90A9"/>
<path d="M150.491 161.084L150.725 161.125C150.635 161.104 150.55 161.091 150.491 161.084Z" fill="#FA90A9"/>
<path d="M164.78 159.879C164.909 159.875 164.957 159.9 165.122 159.83C165.104 159.819 165.083 159.821 165.066 159.811C165.015 159.853 164.926 159.886 164.78 159.879Z" fill="#FA90A9"/>
<path d="M169.782 158.783L169.674 158.751L169.52 158.803L169.782 158.783Z" fill="#FA90A9"/>
<path d="M115.562 135.836C115.428 135.832 115.321 135.8 115.237 135.754C115.399 135.872 114.793 136.325 115.562 135.836Z" fill="#FA90A9"/>
<path d="M99.3243 146.71C99.3825 146.663 99.4269 146.646 99.5087 146.672C99.4525 146.652 99.3964 146.632 99.3452 146.62C99.3264 146.643 99.3046 146.678 99.3243 146.71Z" fill="#FA90A9"/>
<path d="M164.596 157.808L165.376 157.673C165.154 157.702 164.879 157.752 164.596 157.808Z" fill="#FA90A9"/>
<path d="M145.659 139.215L145.471 139.177C145.537 139.213 145.602 139.228 145.659 139.215Z" fill="#FA90A9"/>
<path d="M167.657 157.14C167.812 157.197 167.977 157.215 168.132 157.218C168.158 157.19 168.198 157.165 168.207 157.127L167.657 157.14Z" fill="#FA90A9"/>
<path d="M111.033 138.573C110.428 139.058 110.781 138.642 110.072 138.766C109.854 139.207 109.35 139.028 109.482 139.471C109.122 139.312 109.233 139.385 108.709 139.405C109.012 139.522 108.009 140.036 108.16 140.281C107.84 140.064 108.697 139.543 107.989 139.513C107.714 139.914 107.021 140.311 107.105 140.674C106.773 140.738 106.584 140.681 106.097 140.864C106.174 140.848 106.24 140.742 106.272 140.689C105.549 141.302 104.194 141.565 103.888 142.181C103.875 141.632 102.031 142.799 102.525 142.099C102.181 142.247 101.685 142.664 101.594 142.798C101.503 142.406 100.652 142.989 100.184 142.886C100.052 143.165 99.3821 143.319 99.0066 143.541C99.1771 143.446 99.2521 143.356 99.152 143.265C98.7488 143.549 98.8113 143.368 98.3737 143.279C97.7953 143.562 98.5658 143.553 98.2501 143.836C97.6921 143.888 98.1081 143.608 97.9658 143.467L97.2715 144.073C97.1012 144.08 96.9714 144.03 96.8792 143.934C96.6288 144.112 96.4157 144.331 95.984 144.217L96.6742 144.061L96.3647 143.915L95.6039 144.344C94.3691 144.291 94.6716 143.776 94.6728 143.338L95.1239 143.167C95.082 143.029 94.7505 143.005 94.5457 143.045C94.3362 142.989 95.2017 142.43 95.6833 142.273C97.031 142.015 96.0707 142.721 97.0225 142.599L98.1507 142.04L98.2055 142.181C98.4179 142.224 98.4882 142.038 98.5258 141.993C98.5025 142.237 99.5064 141.777 99.9918 141.662L99.7589 141.533C100.942 140.711 101.99 141.273 102.952 140.675C103.156 140.493 103.354 140.283 103.548 140.086L103.804 140.288C104.158 139.959 104.144 139.727 104.869 139.539C107.477 138.935 109.713 137.098 112.158 136.038C112.105 136.005 112.019 136.026 111.853 136.074C114.244 135.507 114.612 133.585 116.668 132.919L116.604 133.079C117.466 132.445 116.536 133.252 117.275 132.946C117.22 132.576 118.27 131.979 118.712 131.529C118.672 131.641 118.491 131.754 118.37 131.895C118.504 131.899 118.659 132.043 118.88 131.818C119.174 131.024 120.427 130.245 121.242 129.499C121.473 129.606 122.361 129.241 122.971 129.255C123.005 129.135 123.073 128.875 123.145 128.622C123.548 128.514 123.729 128.26 123.887 127.986C123.61 128.191 123.36 128.369 123.172 128.507L123.173 128.474C123.152 128.509 123.109 128.546 123.067 128.583C122.872 128.727 122.784 128.814 122.836 128.792C122.355 128.862 122.759 128.633 122.59 128.432C122.893 128.233 123.447 127.735 123.629 127.852C123.805 127.731 123.938 127.682 124.142 127.588C124.236 127.475 124.339 127.378 124.486 127.297L124.438 127.36C124.481 127.377 124.523 127.373 124.556 127.374C124.793 127.281 125.389 126.78 125.91 126.282L126.117 126.088L126.221 125.99C126.255 125.958 126.293 125.913 126.325 125.947C126.465 126.014 126.604 126.08 126.736 126.151C127.033 126.295 127.304 126.432 127.532 126.553C127.023 126.366 127.079 126.528 127.184 126.714C127.302 126.904 127.495 127.144 127.425 127.242C127.473 127.267 127.274 127.106 126.933 126.838C126.762 126.703 126.556 126.547 126.322 126.365C126.268 126.278 126.203 126.384 126.143 126.41C126.08 126.45 126.014 126.501 125.951 126.541C125.821 126.632 125.684 126.728 125.542 126.816C125.631 126.783 125.706 126.78 125.747 126.864C125.864 126.824 125.972 126.768 126.079 126.712L126.229 126.619C126.277 126.556 126.325 126.669 126.376 126.681C126.573 126.821 126.762 126.933 126.995 127.061C127.114 127.129 127.233 127.198 127.357 127.274C127.463 127.339 127.574 127.412 127.693 127.48C127.874 127.597 128.068 127.75 128.257 127.949C128.188 127.926 128.043 127.886 128.027 127.983C128.296 128.275 128.698 128.342 128.854 128.277C128.79 128.525 129.367 129.172 129.758 129.345C130.171 129.394 130.182 129.289 130.721 129.664L130.39 129.64C130.965 130.179 131.057 129.783 131.522 130.249C131.345 130.052 131.232 130.188 131.37 130.321C132.1 130.687 132.169 130.622 132.827 130.662L132.6 130.824C133.238 131.095 134.538 131.445 134.379 131.752C134.459 131.178 135.821 132.244 136.337 132.546C136.149 132.455 136.061 132.543 136.019 132.58C137.268 132.919 138.293 133.725 139.438 134.302L139.45 134.743C140.072 135.023 140.555 134.428 141.228 134.721L140.909 134.788C142.123 135.246 142.595 135.478 143.535 135.954L143.419 136.19C143.81 136.22 144.241 136.422 144.643 136.435C145.225 137.319 147.923 137.37 149.189 138.529L149.445 138.096C150.01 138.302 150.77 138.453 150.928 138.901L150.799 138.851C150.621 139.18 151.372 139.052 151.695 139.256C151.979 139.308 152.324 139.16 152.115 139.017C153.573 139.728 155.92 140.216 156.75 140.902C158.345 141.2 159.611 141.179 161.279 141.683L161.247 141.736C161.796 141.952 162.892 142.397 162.779 142.795C164.015 143.044 164.943 142.708 166.338 143.283L165.986 143.349C166.336 143.525 166.975 143.5 167.133 143.489C167.258 143.532 167.145 143.58 167.113 143.633C167.422 143.867 167.682 143.705 167.977 143.74L167.832 143.841C168.908 144.43 170.877 144.398 172.348 144.883C172.061 144.843 172.166 145.029 172.258 145.125C172.993 144.865 174.63 145.443 175.292 145.524L174.86 145.584C176.154 145.644 175.768 146.343 177.051 146.42L176.437 145.96C176.904 146.183 177.346 146.226 177.291 145.997C177.817 146.316 177.257 146.347 178.102 146.652C178.098 146.786 177.459 146.549 177.694 146.786L178.774 147.469C178.791 147.514 178.946 147.57 179.345 147.65C179.413 147.073 180.331 147.934 179.905 147.215C180.742 147.471 181.486 147.806 182.21 148.11C182.574 148.256 182.925 148.399 183.287 148.524L183.983 148.747C184.266 148.833 184.549 148.92 184.856 148.991C185.096 149.378 186.038 149.733 186.864 150.061C187.683 150.393 188.3 150.666 187.374 150.705L187.547 150.773L187.634 150.806C187.659 150.812 187.71 150.824 187.666 150.841C187.571 150.9 187.485 150.954 187.393 151C187.227 151.103 187.087 151.211 186.963 151.31C186.72 151.516 186.543 151.725 186.406 151.962C186.711 151.872 186.861 151.691 187.017 151.572C187.062 151.752 185.649 152.52 185.06 152.821C185.721 152.301 186.685 151.636 186.626 151.367C186.287 151.577 185.918 151.862 185.529 152.168C185.088 152.497 184.687 152.801 184.46 152.964C184.313 152.902 184.166 152.841 184.062 152.763C183.599 153.302 183.444 152.753 183.031 153.371L183.189 153.415C182.111 153.931 182.266 154.305 181.266 154.806L181.248 154.653C180.869 154.747 180.476 155.275 179.994 155.115L180.655 154.825C180.482 154.616 179.924 154.721 179.639 154.702C178.955 155.061 179.551 155.194 179.213 155.371C178.974 155.214 179.129 155.27 179.278 154.948C178.516 155.356 177.481 155.89 177.029 156.411C176.981 156.386 176.996 156.322 176.996 156.322C176.157 156.625 175.572 157.338 174.963 157.29L175.118 157.205C174.323 157.086 173.444 158.081 173.116 157.553C172.76 157.544 173.859 157.342 173.244 157.232C172.173 157.373 172.725 157.926 171.781 158.043C171.908 158.019 171.865 158.002 171.88 157.938C171.237 158.152 170.396 158.488 169.687 158.754C168.673 158.476 166.957 159.477 165.808 159.142C166.175 159.274 165.593 159.428 165.613 159.514C165.613 159.514 165.641 159.453 165.593 159.428C165.22 159.496 165.208 159.689 165.081 159.801C164.742 159.695 164.074 160.219 163.849 160.14C163.861 160.264 163.549 160.272 163.207 160.32C163.874 160.092 163.384 160.024 163.655 159.791C162.627 159.861 162.573 160.495 161.498 160.541L160.882 160.377C160.808 160.75 159.807 160.739 159.844 160.869C159.648 160.783 159.374 160.746 159.39 160.561C158.978 160.707 158.322 160.601 158.165 160.841L158.602 160.875C157.277 160.889 156.507 161.39 155.469 161.215L155.456 160.666C154.771 160.479 154.218 161.031 153.622 160.723C153.831 160.9 153.871 160.842 153.439 161.044C153.696 161.071 154.173 160.906 154.596 160.883L153.696 161.246L155.109 161.023C154.519 161.27 154.552 161.217 154.813 161.426C153.953 161.643 153.867 161.205 153.045 161.464C152.743 161.401 153.048 161.189 152.706 161.095C151.972 161.355 151.305 160.687 150.791 160.985C150.623 160.926 151.09 160.974 151.053 160.844C150.578 160.888 150.241 160.857 150.097 161.012L150.504 161.087C150.152 161.065 150.088 161.279 149.408 161.134C149.01 161.25 148.78 161.513 149.207 161.532C149.031 161.565 148.65 161.408 148.797 161.24C147.734 161.201 148.266 161.811 147.247 161.525C147.317 161.515 147.398 161.487 147.353 161.449C147.094 161.402 146.885 161.4 146.704 161.426C147.619 161.403 146.438 160.979 147.508 161.101C147.402 160.807 146.696 161.026 146.368 160.902C145.832 161.06 146.285 161.314 146.013 161.439C146.022 161.347 145.811 161.325 145.555 161.265L145.782 161.507C145.564 161.489 145.353 161.467 145.084 161.492L145.526 161.447C145.052 161.37 144.371 160.941 143.529 161.081C143.76 161.014 144.21 160.877 143.67 160.71C142.753 160.765 143.467 160.595 142.977 160.386C142.081 160.352 142.782 160.759 141.474 160.5C141.335 160.488 141.452 160.623 141.589 160.702C140.7 160.522 140.185 160.624 139.339 160.318C139.717 160.433 139.999 160.553 139.467 160.577C139.717 160.433 138.778 160.295 138.459 160.133L138.355 160.23C138.103 160.07 138.399 160.072 138.624 160.063C138.61 160.094 138.685 160.145 138.85 160.163C139.286 160.144 139.186 159.703 138.527 159.555C137.788 159.545 137.863 159.859 137.969 159.978C137.02 159.716 136.989 160.336 136.085 160.023C135.87 159.993 135.243 159.442 134.576 159.3C134.181 159.491 135.385 159.617 134.952 159.765C133.953 158.965 132.601 159.674 131.213 159.006L131.464 158.741C131.122 158.648 130.805 158.56 130.413 158.509L130.875 158.779C130.525 158.778 129.744 158.542 130.054 158.371C129.24 158.451 129.104 158.284 128.421 158.03C129.162 158.237 128.422 158.085 129.011 158.047C128.264 157.724 128.182 157.786 127.625 157.716C127.739 157.635 127.491 157.395 127.295 157.343C126.742 157.402 125.887 157.135 125.158 157.052L125.179 156.963C123.972 156.762 122.796 156.029 121.558 155.901L121.499 155.894L121.583 155.941C121.899 156.345 120.612 155.855 120.22 155.858C120.161 155.764 120.166 155.63 119.959 155.561C119.866 155.816 119.462 155.553 119.256 155.626C118.882 155.411 119.408 155.325 118.706 155.127C118.429 155.069 118.353 155.193 118.355 155.301C118.255 155.123 117.845 154.886 117.482 154.74C117.629 154.714 117.797 154.861 117.89 154.869C117.979 154.748 117.717 154.714 117.776 154.546C117.461 154.425 117.561 154.745 117.187 154.529L117.633 154.438C117.49 154.331 117.254 154.356 117.17 154.343C117.427 154.37 117.465 154.149 117.469 154.016C116.487 153.86 117.103 154.516 116.98 154.724C116.153 154.254 115.363 154.285 114.675 154.057L114.882 153.863C114.537 153.782 114.362 153.782 114.201 153.839L113.684 153.657C114.01 153.673 114.14 153.636 114.223 153.453C113.658 153.334 112.927 153.002 112.673 153.279L112.711 153.234C112.027 152.872 110.524 152.265 110.623 152.16C109.804 151.969 108.898 151.407 108.764 151.719C108.275 151.618 107.725 150.856 107.238 151.127C106.769 150.707 107.246 151.034 107.501 150.864C107.038 150.453 106.27 150.766 106.264 150.245C105.574 150.138 106.378 150.393 106.08 150.512C106.108 150.047 104.922 149.986 104.423 149.498C104.091 149.562 104.656 149.714 104.125 149.705C104.213 149.618 103.977 149.502 103.863 149.442L103.637 149.658L103.3 148.764C102.282 148.708 103.299 149.29 102.056 148.925L102.136 148.93C101.919 148.529 101.205 148.787 100.428 148.221C100.698 148.392 100.6 148.147 100.73 148.11L100.205 148.021C100.251 148.025 100.28 148.018 100.245 147.963C99.9068 147.594 99.837 147.921 99.4189 147.547C99.7768 147.631 99.7588 147.391 99.6529 147.238L98.8313 147.235L99.2639 146.999C98.6045 146.676 97.3535 146.809 97.2116 146.175L97.5745 146.267C97.5826 146.175 97.496 145.824 96.9607 145.807C96.7964 145.789 96.6159 145.955 96.8145 146.029L96.5052 145.795C96.7703 145.641 97.6442 145.94 98.2007 146.097C97.994 146.116 97.5515 146.019 97.6198 146.217C98.1233 146.341 98.6398 146.381 99.1304 146.502C98.9061 146.511 98.7326 146.619 98.5997 146.668C99.0523 147.01 99.0503 146.672 99.4474 146.819C99.5582 146.98 99.6297 147.077 99.4997 147.115C100.027 147.224 100.422 147.35 100.888 147.695C100.888 147.695 100.235 147.63 100.497 147.894C101.504 148.142 101.815 147.938 102.901 148.192C104.243 148.277 105.091 149.378 106.041 149.411C106.129 149.324 105.493 148.987 106.06 149.126C105.885 149.301 106.33 149.384 106.322 149.477C107.023 149.391 107.159 149.875 107.65 149.821C107.52 149.858 107.828 150.071 108.021 150.224C107.851 150.461 108.633 150.576 107.637 150.627C108.662 150.569 109.153 151.325 110.033 150.964L109.834 150.803L110.669 151.268L110.634 151.246C111.001 151.433 111.085 151.392 111.503 151.853C111.256 151.843 110.936 151.714 110.697 151.699C111.077 152.118 111.742 151.869 112.283 152.036C112.192 152.223 111.705 151.914 111.781 152.195C112.146 152.361 112.518 152.327 112.887 152.392L112.799 152.48C113.644 153.048 113.35 152.083 113.906 152.678C113.903 152.603 114.012 152.568 113.997 152.49C114.207 152.687 114.732 153.093 114.096 153.019C114.419 153.135 114.822 153.168 115.02 153.1C114.809 152.848 114.71 152.899 114.676 152.669L116.012 153.008C116.155 153.062 115.869 153.076 115.688 153.013C117.022 154.14 118.939 153.55 120.466 154.777C120.319 154.54 120.642 154.656 120.845 154.596C121.392 154.824 122.258 155.04 122.746 155.316L122.541 155.389C123.936 155.648 124.93 155.664 125.798 155.988C125.856 155.941 125.743 156.164 125.571 156.151C126.291 156.097 126.898 157.021 127.2 156.593L126.974 156.493C127.619 156.704 128.326 156.822 129.039 156.914C129.759 156.981 130.488 157.03 131.178 157.138C131.432 157.494 130.386 157.007 130.585 157.397C131.515 157.715 132.528 157.676 133.533 157.991C133.358 157.991 133.383 158.03 133.308 158.033C134.3 158.433 133.254 157.717 134.109 157.95C134.038 158.082 134.067 158.129 134.346 158.262L134.643 158.089C134.68 158.131 134.638 158.31 134.5 158.352C134.943 158.132 136.07 158.503 136.419 158.275C136.481 158.356 136.224 158.593 136.323 158.717C136.771 158.876 137.116 158.815 137.435 158.748C137.733 158.999 138.534 159.092 138.356 159.104C139.173 159.329 138.509 158.965 139.169 158.883L138.522 158.651L139.701 158.771L139.219 158.841C139.749 159.025 140.325 158.897 140.96 158.951L140.695 158.755L141.418 158.721C141.45 159.072 142.329 158.887 141.896 159.244C143.22 159.547 144.123 159.171 145.336 159.259C145.126 159.237 145.208 159.317 145.155 159.372C145.864 159.51 146.3 159.403 146.737 159.209C146.638 159.314 146.475 159.35 146.467 159.442C147.303 159.469 146.988 159.261 147.918 159.175C147.655 159.316 147.733 159.388 147.979 159.432C147.947 159.309 148.163 159.219 148.332 159.19C147.61 159.858 149.365 159.499 148.91 160.033C148.964 159.891 150.415 159.623 150.009 159.34L149.755 159.388C149.725 159.199 150.07 159.28 150.328 159.273C150.193 159.302 150.05 159.336 150.046 159.382C150.709 159.287 151.381 159.296 152.071 159.316C152.756 159.294 153.479 159.261 154.201 159.139C154.075 159.218 153.485 159.377 153.868 159.412C155.338 159.439 156.18 159.036 157.625 158.794C157.733 159.23 156.042 158.936 156.018 159.355C156.792 159.246 157.584 159.202 158.379 159.003C159.17 158.817 159.986 158.617 160.827 158.389C161.513 158.947 162.455 157.913 163.593 158.267C163.455 158.079 163.966 157.882 164.526 157.763C164.362 157.974 164.964 157.852 164.824 158.015C165.288 157.705 166.699 157.321 166.729 157.739C166.774 157.318 167.805 157.518 168.147 157.153C168.816 157.175 169.472 156.789 170.267 156.644C169.927 156.484 170.998 156.289 171.251 156.099C171.18 156.143 171.025 156.228 171.081 156.248C171.378 156.392 171.91 155.788 172.376 155.782C172.6 155.808 172.402 156.018 172.729 155.946C172.683 155.766 173.778 155.207 174.286 155.285C174.083 155.345 174.108 155.439 174.01 155.544C175 155.114 176.008 154.663 177.047 154.258C178.08 153.846 179.116 153.42 180.054 152.837L179.819 153.268C181.251 153.11 180.442 152.476 181.425 152.019C181.757 151.867 182.102 151.718 182.447 151.57L182.964 151.347L183.225 151.239L183.345 151.187L183.358 151.189C183.456 151.205 183.645 151.175 183.897 151.106L184.092 151.051C184.152 151.024 184.271 151.005 184.181 150.984C184.093 150.93 183.984 150.877 183.862 150.822C183.618 150.711 183.305 150.611 183.02 150.558C182.9 150.611 183.001 150.668 182.928 150.779C182.914 150.755 182.936 150.687 182.931 150.625C182.924 150.596 182.922 150.575 182.904 150.564C182.892 150.561 182.892 150.561 182.871 150.563C182.837 150.562 182.791 150.558 182.742 150.567L182.767 150.748C181.635 149.911 179.044 149.804 178.294 148.86C176.987 148.744 176.263 148.035 174.665 147.979C174.231 147.702 175.292 147.862 174.663 147.641L173.207 147.497L173.289 147.489C171.826 147.578 169.9 145.956 168.121 145.837L168.196 145.834C168.266 145.736 167.957 145.502 167.675 145.469C167.554 145.522 167.729 145.61 167.872 145.751C166.32 145.524 165.988 145.446 164.782 145.158C165.334 145.131 164.339 144.886 164.35 144.639C163.998 144.705 164.464 144.928 163.732 144.858C162.733 144.605 161.875 144.155 161.071 143.846C160.681 143.957 160.256 143.783 160.166 144.025C159.042 143.729 158.383 143.636 157.012 143.241L157.008 143.146C156.543 143.347 155.86 142.635 155.557 142.746C155.628 142.648 155.79 142.646 155.773 142.547L155.118 142.462C155.443 142.457 155.696 142.212 155.194 142.021C154.595 142.077 155.296 142.22 154.984 142.316L154.86 142.01C154.451 141.915 154.228 142.206 154.696 142.451C153.33 142.01 151.921 141.749 150.72 141.293L150.915 141.15C150.225 140.988 149.313 140.681 148.972 140.379C148.94 140.432 148.735 140.472 148.819 140.572C147.929 140.546 148.838 140.233 147.873 140.209C148.115 140.212 148.404 140.273 148.474 140.175C147.901 140.061 147.324 139.96 146.757 139.821C146.79 139.68 145.926 138.993 145.196 138.856C145.14 138.924 145.294 139.101 145.464 139.182L145.001 139.087L144.788 138.64L144.045 138.675L144.141 138.408C143.651 138.286 143.333 138.549 142.971 138.37C141.645 137.609 141.969 137.637 141.089 136.96C140.76 137.415 139.529 136.278 139.123 136.487C138.012 135.472 136.011 134.836 134.448 133.763L134.602 133.799C134.024 133.186 133.597 133.713 132.885 133.183L133.118 133.224C132.28 132.455 130.545 131.544 129.501 131.165C129.731 131.219 129.738 131.018 129.442 130.841C129.135 130.77 129.46 131.311 129.013 130.889C129.171 130.933 129.143 130.765 129.027 130.684C128.812 130.654 128.602 130.598 128.39 130.555C127.822 130.011 127.213 129.417 126.569 128.856C126.461 128.77 126.469 128.765 126.441 128.738L126.377 128.669C126.327 128.624 126.275 128.558 126.216 128.551C126.16 128.585 126.102 128.632 126.057 128.682L125.988 128.747L125.95 128.792L125.834 128.886C125.538 128.972 125.652 128.77 125.658 128.656C124.666 129.415 123.774 130.319 122.873 130.999L122.601 130.807C122.143 131.124 122.59 131.404 121.835 131.578C121.681 131.63 122.212 131.289 122.3 131.06C121.247 131.495 121.937 131.69 121.035 132.261L121.068 131.803C120.273 132.09 120.397 132.483 120.27 132.824C119.553 133.816 119.212 132.705 118.087 133.83C117.98 134.115 118.303 134.002 118.183 134.284C117.21 134.812 117.235 135.081 116.257 135.6C115.474 135.464 116.726 135.299 115.922 135.219L116.69 134.872C115.933 135.026 117.203 134.466 116.942 134.257C116.441 134.47 115.894 135.138 115.34 135.602C115.218 135.405 116.02 135.147 115.572 135.043L115.319 135.32C115.371 135.211 115.33 135.127 115.511 135.015C115.283 134.894 115.147 135.219 114.852 135.413C114.892 135.531 115.001 135.671 115.188 135.762C115.166 135.743 115.128 135.734 115.066 135.74C114.635 136.401 113.48 136.812 113.087 137.34C113.14 137.231 113.054 137.252 112.993 137.224C112.616 137.426 112.391 137.926 111.929 138.29C111.566 138.286 111.833 137.748 111.064 138.27C111.012 138.52 111.539 138.63 110.855 138.989C110.896 138.985 111.424 138.516 111.033 138.573ZM125.352 128.814C125.418 128.762 125.524 128.686 125.648 128.587L125.643 128.579C125.487 128.697 125.41 128.767 125.352 128.814ZM126.12 128.009C126.033 128.063 126.027 128.176 126.068 128.26C126.123 128.226 126.173 128.184 126.229 128.149C126.279 128.107 126.317 128.204 126.36 128.22C126.283 127.973 126.093 128.124 126.12 128.009ZM123.22 128.215L123.224 128.169C123.352 128.057 123.46 127.968 123.55 127.901C123.489 127.873 123.394 127.878 123.226 128.048C123.211 128.112 123.22 128.161 123.22 128.215Z" fill="#FA90A9"/>
<path d="M123.074 128.578C123.048 128.606 123.037 128.624 123.01 128.651C123.067 128.638 123.117 128.629 123.166 128.62L123.185 128.51L123.074 128.578Z" fill="#FA90A9"/>
<path d="M121.564 155.963L121.594 155.977C121.572 155.958 121.549 155.94 121.54 155.924C121.549 155.94 121.554 155.948 121.564 155.963Z" fill="#FA90A9"/>
<path d="M144.03 138.739L144.053 138.67L143.908 138.683L144.03 138.739Z" fill="#FA90A9"/>
<path d="M113.964 152.544C113.957 152.515 113.938 152.483 113.88 152.443C113.882 152.464 113.919 152.506 113.964 152.544Z" fill="#FA90A9"/>
<path d="M110.622 151.298L110.184 151.033C110.366 151.15 110.516 151.232 110.622 151.298Z" fill="#FA90A9"/>
<path d="M108.11 150.191C108.075 150.224 108.049 150.251 108.022 150.279L108.027 150.287L108.11 150.191Z" fill="#FA90A9"/>
<path d="M150.313 159.337C150.346 159.338 150.388 159.334 150.416 159.328C150.663 159.284 150.497 159.299 150.313 159.337Z" fill="#FA90A9"/>
<path d="M137.411 158.817C137.559 158.791 137.699 158.77 137.844 158.756C137.626 158.706 137.444 158.676 137.411 158.817Z" fill="#FA90A9"/>
<path d="M164.519 157.823L164.511 157.827L164.596 157.807L164.519 157.823Z" fill="#FA90A9"/>
<path d="M138.441 158.856C138.224 158.771 138.026 158.752 137.843 158.757C138.027 158.806 138.25 158.865 138.441 158.856Z" fill="#FA90A9"/>
<path d="M97.1482 145.581L97.0292 145.513C97.0262 145.526 97.0153 145.543 96.9995 145.553L97.1482 145.581Z" fill="#FA90A9"/>
<path d="M97 145.553L96.8513 145.525C96.9123 145.553 96.9684 145.573 97 145.553Z" fill="#FA90A9"/>
<path d="M96.5413 145.466L96.8516 145.525C96.7552 145.476 96.6331 145.42 96.5413 145.466Z" fill="#FA90A9"/>
<path d="M100.442 147.119L100.519 147.049C100.483 147.061 100.464 147.084 100.442 147.119Z" fill="#FA90A9"/>
<path d="M101.475 147.516C101.24 147.4 100.943 147.082 100.58 146.99L100.519 147.05C100.73 146.985 101.18 147.568 101.475 147.516Z" fill="#FA90A9"/>
<path d="M105.302 150.351L104.471 149.928C104.577 150.08 104.73 150.291 104.337 150.153C105.309 150.872 104.193 149.849 105.302 150.351Z" fill="#FA90A9"/>
<path d="M107.944 151.508C107.455 151.373 107.898 151.645 107.848 151.688C108.177 151.724 108.265 151.724 107.944 151.508Z" fill="#FA90A9"/>
<path d="M127.782 157.881L127.677 158.1C128.059 158.169 127.711 158.013 127.782 157.881Z" fill="#FA90A9"/>
<path d="M131.93 157.557L131.596 157.337L131.379 157.516L131.93 157.557Z" fill="#FA90A9"/>
<path d="M133.895 159.701L133.725 159.708L134.376 159.753L133.895 159.701Z" fill="#FA90A9"/>
<path d="M168.949 159.202L168.766 158.943C168.518 159.054 168.544 159.377 168.949 159.202Z" fill="#FA90A9"/>
<path d="M183.097 153.636C183.306 153.692 183.729 153.582 183.902 153.332C183.594 153.469 183.244 153.522 183.097 153.636Z" fill="#FA90A9"/>
<path d="M148.597 137.946L148.914 137.946L148.35 137.848L148.597 137.946Z" fill="#FA90A9"/>
</svg>
