<svg width="343" height="79" viewBox="0 0 343 79" fill="none" xmlns="http://www.w3.org/2000/svg">
<g clip-path="url(#clip0_124:15349)">
<path fill-rule="evenodd" clip-rule="evenodd" d="M11.5768 23.2031L5.37318 65.9279C5.37318 65.9279 20.0482 62.9038 29.2454 64.1148C49.4612 65.8725 57.1581 79 57.1581 79C57.1581 79 46.0279 69.4433 26.5309 69.7132C10.237 69.9485 0 75.5953 0 75.5953L8.25516 24.9055L11.5768 23.2031Z" fill="#003F81"/>
<path fill-rule="evenodd" clip-rule="evenodd" d="M105.942 22.9539L111.665 65.8862C111.665 65.8862 98.8248 62.5784 87.2061 63.9763C66.9904 65.734 60.5007 78.6815 60.5007 78.6815C60.5007 78.6815 69.2513 69.2563 88.7413 69.6439C103.758 69.9414 114.993 74.391 114.993 74.391L108.189 23.812L105.942 22.9539Z" fill="#17933D"/>
<path fill-rule="evenodd" clip-rule="evenodd" d="M102.111 13.2935C102.111 13.2935 99.8993 12.8576 96.2009 12.7053L101.762 54.1499C101.762 54.1499 84.3171 53.0773 74.1918 59.5683C61.9521 66.9175 59.6074 76.7648 59.6074 76.7648C59.6074 76.7648 67.5137 62.5232 90.3811 60.5856C101.965 60.2465 109.097 62.0665 109.097 62.0665L102.111 13.2935Z" fill="#003F81"/>
<path fill-rule="evenodd" clip-rule="evenodd" d="M22.2394 16.6844C22.2394 16.6844 45.365 16.4768 54.4226 26.3933C63.4803 36.3099 57.8489 31.2166 57.8489 31.2166C57.8489 31.2166 65.497 18.1169 73.9405 14.5876C82.3841 11.0584 87.7573 11.8334 87.7573 11.8334L91.6022 44.7385C91.6022 44.7385 71.1283 50.8352 67.0391 57.6515C61.645 66.6545 57.8489 76.7648 57.8489 76.7648C57.8489 76.7648 49.8589 63.2983 41.2967 59.8452C30.7318 55.5893 16.615 55.1948 16.615 55.1948L22.2394 16.6844Z" fill="white"/>
<path fill-rule="evenodd" clip-rule="evenodd" d="M14.8844 13.2935C14.8844 13.2935 28.5755 10.8991 38.7148 15.3418C50.9126 20.698 56.5719 29.9779 56.5719 29.9779C56.5719 29.9779 44.9463 20.6634 34.5558 19.0648C27.8219 18.0268 22.2742 18.6012 22.2742 18.6012L17.557 54.3782C17.557 54.3782 33.4812 54.1221 42.797 59.5614C55.0367 66.9105 57.8419 76.7578 57.8419 76.7578C57.8419 76.7578 49.4821 62.5162 26.6147 60.5786C15.0309 60.2395 8.25513 62.0941 8.25513 62.0941L14.8844 13.2935Z" fill="#47A636"/>
<path fill-rule="evenodd" clip-rule="evenodd" d="M92.4046 5.69507C92.4046 5.69507 79.6137 5.69507 70.2001 12.6429C59.2444 20.7186 58.9304 29.6663 58.9304 29.6663C58.9304 29.6663 66.2575 18.7948 75.0918 15.0718C80.8139 12.6636 86.3406 12.6359 86.3406 12.6359L90.5764 44.3301C90.5764 44.3301 76.5363 46.8836 68.0648 55.5337C59.5933 64.433 58.9304 73.9897 58.9304 73.9897C58.9304 73.9897 64.5757 58.5855 81.435 53.4092C91.6021 50.5374 98.3849 51.091 98.3849 51.091L92.4046 5.69507Z" fill="#47A636"/>
<path fill-rule="evenodd" clip-rule="evenodd" d="M60.2704 34.8011C57.5629 34.2544 54.8693 33.6247 52.1757 33.0157C51.1639 32.7874 50.1451 32.6005 49.1193 32.4414C49.0216 32.4275 48.9169 32.4275 48.8472 32.3514C48.9518 32.0469 49.0844 31.7494 49.1612 31.4379C49.2519 31.0435 49.2659 30.6352 49.5101 30.2892C49.538 30.2477 49.545 30.1577 49.5171 30.1162C49.3287 29.8325 49.5589 29.6526 49.6845 29.4519C50.1381 28.7045 50.3265 27.8672 50.5847 27.0437C50.6685 26.7738 50.7731 26.5108 50.8569 26.2409C50.9057 26.0887 51.0592 25.9295 50.822 25.7842C50.7522 25.7427 50.822 25.6389 50.8499 25.5697C51.1779 24.7047 51.5058 23.8397 51.8338 22.9747C51.8757 22.8639 51.9106 22.7601 52.0222 22.684C52.2106 22.5456 52.3014 22.3449 52.3851 22.1304C52.9503 20.6218 53.5644 19.134 54.3878 17.743C54.5204 16.9196 55.2112 16.3867 55.4834 15.6186C55.616 15.231 55.7974 14.8504 55.9439 14.456C56.0207 14.2484 56.1324 14.0685 56.3487 13.9716C56.3836 13.9577 56.4464 13.9301 56.4464 13.9162C56.3696 13.4803 56.8581 13.2657 56.872 12.8505C56.879 12.546 57.0256 12.2831 57.1861 11.9994C57.4791 11.5011 57.9188 11.0582 57.9606 10.4285C57.9746 10.2555 58.156 10.1655 58.2886 10.0686C58.484 9.92332 58.6515 9.77108 58.6794 9.50811C58.6933 9.35587 58.819 9.25899 58.9515 9.18287C59.119 9.08599 59.2167 8.9545 59.1679 8.7469C59.119 8.51854 59.2656 8.36629 59.4191 8.25557C60.4169 7.5082 61.0171 6.43558 61.7358 5.46677C62.2662 4.754 62.7546 4.02738 63.4804 3.4807C63.6897 3.32153 63.906 3.17621 64.1782 3.12085C64.227 3.31461 64.1503 3.4807 64.1014 3.64678C63.8781 4.33187 63.899 5.05848 63.7804 5.75741C63.6967 6.2695 63.6339 6.78159 63.5781 7.3006C63.4734 8.33169 63.285 9.34895 63.2291 10.387C63.2082 10.816 63.1733 11.2451 63.1314 11.6741C63.1035 11.9025 63.1733 12.0824 63.4106 12.2C63.6269 12.3038 63.6548 12.5391 63.5013 12.7536C63.3896 12.9059 63.2361 13.0235 63.1454 13.1827C63.0477 13.3419 62.9221 13.5149 63.2152 13.6809C63.3896 13.7778 63.3478 14.0961 63.2431 14.193C62.7756 14.6428 62.8035 15.1964 62.8593 15.757C62.8942 16.1307 62.9012 16.4767 62.7128 16.8296C62.4057 17.4178 62.4197 18.0821 62.3639 18.7188C62.315 19.2378 62.2592 19.7499 62.0568 20.2343C62.0289 20.3035 61.9801 20.4073 62.008 20.4557C62.308 20.9471 61.9103 21.3761 61.8963 21.8328C61.8893 22.0474 61.8754 22.2619 61.7777 22.4626C61.7498 22.5248 61.7707 22.5733 61.8126 22.6217C62.0149 22.8778 62.0359 23.1823 62.0219 23.4867C62.008 23.722 62.001 23.9573 62.0568 24.1857C62.0847 24.3102 62.0638 24.4417 62.001 24.5594C61.9242 24.7047 61.9033 24.8431 61.9382 25.0092C61.994 25.2929 61.8754 25.3967 61.5963 25.3483C61.5334 25.3344 61.4567 25.2514 61.4218 25.3552C61.3869 25.4521 61.4427 25.5351 61.5474 25.5489C61.7149 25.5697 61.7149 25.6804 61.7079 25.805C61.6939 26.0541 61.7637 26.3171 61.6521 26.5593C61.6032 26.6562 61.5683 26.8153 61.4078 26.6769C61.3381 26.6216 61.3032 26.6769 61.2683 26.7115C61.1985 26.7807 61.2473 26.8222 61.2962 26.8776C61.6591 27.2928 61.6939 27.9641 61.3869 28.4277C61.373 28.4415 61.366 28.4692 61.352 28.4761C60.9961 28.5592 61.1427 28.8429 61.1217 29.0574C61.1008 29.3135 60.9473 29.528 60.9333 29.791C60.9124 30.1854 61.1008 30.5522 61.0869 30.9397C61.0799 31.085 61.1357 31.2303 61.0101 31.348C60.9892 31.3618 60.9682 31.4103 60.9822 31.4172C61.2264 31.7286 60.9124 31.7978 60.7589 31.95C60.5495 32.1646 60.5635 32.469 60.5286 32.7458C60.4518 33.3271 60.41 33.9153 60.3472 34.4966C60.3193 34.6143 60.2913 34.7112 60.2704 34.8011Z" fill="white"/>
<path fill-rule="evenodd" clip-rule="evenodd" d="M76.962 27.8603C76.9061 27.8257 76.8154 27.7703 76.9201 27.6942C77.0387 27.6112 76.9689 27.5558 76.9131 27.4866C76.8503 27.4036 76.7945 27.3136 76.7177 27.2444C76.5851 27.1268 76.5782 27.0091 76.6759 26.8638C76.7247 26.7946 76.7736 26.6839 76.6898 26.6216C76.5851 26.5316 76.6479 26.4694 76.6828 26.3932C76.8015 26.151 76.8433 25.895 76.8154 25.6251C76.7736 25.1407 76.6061 24.6494 76.8084 24.158C76.8154 24.1373 76.8154 24.1096 76.8084 24.0958C76.62 23.6113 76.6968 23.0993 76.6828 22.601C76.6759 22.2896 76.6759 21.9713 76.4944 21.7014C76.3828 21.5353 76.3967 21.39 76.4874 21.2308C76.5363 21.1409 76.5921 21.0578 76.6479 20.9609C76.5084 20.9333 76.4177 20.8641 76.4037 20.7187C76.3828 20.4004 76.1455 20.1305 76.2083 19.7984C76.2153 19.7638 76.1944 19.7292 76.1734 19.6946C75.9292 19.1825 75.8455 18.615 75.6361 18.0891C75.5384 17.84 75.4686 17.5839 75.3221 17.3625C75.2872 17.3071 75.2593 17.2448 75.1895 17.2172C74.8755 17.0649 74.8755 17.0649 74.9313 16.7189C74.9523 16.5805 74.9662 16.4352 74.8476 16.3522C74.6871 16.2345 74.5196 16.1099 74.3172 16.0615C74.3172 16.0615 74.3172 16.0615 74.3172 16.0684C74.3521 16.1169 74.3452 16.1653 74.3033 16.2138C74.2475 16.276 74.1777 16.2899 74.1009 16.276C74.066 16.2691 74.059 16.2414 74.059 16.2068C74.059 16.1238 74.1288 16.103 74.1916 16.0823C74.2265 16.0684 74.2684 16.0684 74.3103 16.0615C74.3103 16.0615 74.3103 16.0546 74.3172 16.0546C74.3172 16.0546 74.3172 16.0546 74.3242 16.0546C74.2754 15.9369 74.1498 15.9023 74.066 15.8193C73.9893 15.7432 73.9683 15.5771 73.8637 15.5979C73.7729 15.6117 73.6962 15.7363 73.6194 15.8124C73.6124 15.8193 73.5985 15.8193 73.5706 15.8262C73.5566 15.6325 73.4101 15.5217 73.3124 15.3764C73.2496 15.2865 73.2147 15.1411 73.3612 15.1342C73.6055 15.1273 73.4729 14.9681 73.4868 14.8851C73.5078 14.7328 73.3682 14.7951 73.2915 14.7882C73.131 14.7674 73.1868 14.8989 73.1868 14.9681C73.1728 15.0789 73.11 15.1273 73.0123 15.1204C72.8797 15.1135 72.9705 15.0304 72.9635 14.982C72.9565 14.9404 72.9425 14.8989 72.9216 14.8574C72.803 14.6221 72.5727 14.6221 72.3634 14.636C72.1959 14.6498 72.0424 14.719 71.9586 14.4906C71.9377 14.4353 71.854 14.456 71.7911 14.456C71.3306 14.4145 70.891 14.5252 70.4583 14.6775C70.228 14.7536 69.9838 14.7813 69.8373 15.0027C69.7954 15.065 69.7117 15.1411 69.6279 15.0927C69.4535 14.9958 69.3907 15.1135 69.3209 15.2242C69.0976 15.5909 68.7068 15.7985 68.4486 16.1307C68.3718 16.2207 68.2672 16.2207 68.1625 16.1791C68.0509 16.1307 68.1067 16.0477 68.1067 15.9715C68.0997 15.847 68.0927 15.7224 68.0927 15.5979C68.0927 15.1965 67.995 14.7813 68.2881 14.4284C68.3021 14.4076 68.316 14.3661 68.309 14.3453C68.1486 13.9924 68.316 13.6879 68.4416 13.3696C68.4556 13.3281 68.5114 13.2796 68.4696 13.2243C68.3509 13.0513 68.3998 12.8506 68.3998 12.6637C68.3998 12.553 68.3998 12.4354 68.316 12.3523C68.2114 12.2485 68.1904 12.117 68.1765 11.9856C68.1416 11.6465 68.1904 11.3282 68.323 11.0098C68.3509 10.9475 68.3998 10.8922 68.3439 10.8091C68.2114 10.6154 68.2393 10.4078 68.2881 10.1933C68.3439 9.98565 68.3928 9.78497 68.3509 9.56352C68.3021 9.26596 68.2811 8.96147 68.2532 8.65699C68.1904 7.92346 68.1695 7.183 67.9881 6.46331C67.9532 6.33183 67.8834 6.20727 67.9113 6.05503C67.9741 5.68134 67.9671 5.30073 67.9183 4.92705C67.8276 4.2558 67.7299 3.58455 67.6322 2.90637C67.6252 2.85793 67.6391 2.80949 67.5694 2.78873C67.2833 2.70569 67.2065 2.46349 67.1367 2.22128C67.053 1.9168 66.9344 1.63999 66.7111 1.40471C66.4249 1.09331 66.1179 0.795741 65.8667 0.456655C65.7481 0.297493 65.5876 0.193691 65.3643 0.221372C65.3084 0.228292 65.2666 0.228292 65.2387 0.166011C65.12 -0.0623531 64.9456 -0.0346726 64.7711 0.0829693C64.4152 0.318253 64.0384 0.387454 63.6267 0.235212C63.5779 0.214451 63.4941 0.166011 63.4383 0.242132C63.2359 0.553537 62.88 0.671179 62.6219 0.920303C62.3497 1.19019 62.0566 1.44623 61.7356 1.66075C61.6519 1.71612 61.5193 1.69536 61.4914 1.77148C61.3937 2.06212 61.1285 2.17284 60.9052 2.32509C60.7587 2.42889 60.5912 2.50501 60.6331 2.73337C60.6401 2.79565 60.5842 2.82333 60.5493 2.85793C59.7957 3.47382 59.1886 4.22812 58.5675 4.96857C58.4629 5.09313 58.3582 5.20385 58.3861 5.39761C58.407 5.5291 58.3094 5.6329 58.1977 5.7021C58.0302 5.79898 57.8558 5.88202 57.6953 5.98582C57.5557 6.07579 57.3813 6.16575 57.3952 6.34567C57.4231 6.58095 57.3045 6.6986 57.137 6.81624C56.809 7.05152 56.4741 7.27989 56.4322 7.73661C56.4183 7.88886 56.3066 7.99266 56.1322 7.94422C56.0415 7.91654 56.0135 7.98574 55.9717 8.03418C55.6507 8.4563 55.3297 8.88535 55.0087 9.30748C54.9808 9.349 54.918 9.3836 54.9389 9.43896C55.0017 9.59812 54.897 9.63964 54.7854 9.66732C54.6458 9.70885 54.583 9.77805 54.6807 9.91645C54.7505 10.0202 54.7226 10.0895 54.6249 10.1517C54.5481 10.2002 54.4644 10.2555 54.3458 10.2625C54.5132 10.4631 54.4295 10.6292 54.2969 10.8022C54.0317 11.1344 53.7526 11.4596 53.5572 11.8402C53.4456 12.0548 53.327 12.2554 53.0757 12.3316C53.0129 12.3523 52.999 12.4146 52.9711 12.47C52.6989 12.9475 52.3919 13.4111 52.1337 13.8955C51.729 14.6498 51.3312 15.4041 50.9823 16.1861C50.5287 17.2172 50.124 18.2759 49.482 19.2102C49.3424 19.4108 49.3913 19.6738 49.2098 19.8537C49.1819 19.8814 49.2168 19.9229 49.2308 19.9575C49.2936 20.1582 49.161 20.262 49.0214 20.352C48.8749 20.4489 48.7283 20.4489 48.5958 20.3105C48.4353 20.1375 48.3934 19.9229 48.3864 19.6946C48.3794 19.4454 48.3794 19.1963 48.3376 18.9403C48.2189 18.1929 47.8631 17.6116 47.1722 17.2587C47.0955 17.2172 47.0536 17.1549 47.0117 17.0857C46.921 16.9265 46.7745 16.8504 46.5861 16.8504C46.3348 16.8504 46.0906 16.9542 45.8324 16.9265C45.7836 16.9196 45.7626 16.9611 45.7557 16.9888C45.7138 17.0926 45.63 17.1549 45.5393 17.2102C45.3788 17.3071 45.5533 17.321 45.5882 17.3763C45.4905 17.4317 45.4067 17.494 45.337 17.5701C45.2393 17.667 45.1137 17.7431 45.016 17.6116C44.9183 17.4871 45.0648 17.4248 45.1486 17.3625C45.1625 17.3486 45.1765 17.3417 45.2183 17.3071C44.9881 17.2794 44.7996 17.3071 44.6112 17.3902C44.1925 17.5839 43.8087 17.8331 43.5017 18.1652C42.6783 19.0441 41.827 19.8952 40.9686 20.7395C39.9428 21.7429 38.9799 22.8017 38.0587 23.902C37.3051 24.8016 36.5445 25.6874 35.8606 26.6424C35.0721 27.7357 34.3115 28.8499 33.3485 29.8118C33.2996 29.8602 33.2717 29.9225 33.2508 29.9848C33.1601 30.2962 32.9996 30.5661 32.8112 30.8221C32.4064 31.3757 31.9529 31.9016 31.7086 32.5521C31.6877 32.5937 31.7156 32.6075 31.7505 32.6213C31.8412 32.6213 31.897 32.5591 31.9529 32.4968C32.5251 31.9224 33.174 31.4657 33.8719 31.0643C34.0603 30.9536 34.2905 30.8913 34.4371 30.7183C34.4441 30.6975 34.458 30.6837 34.472 30.6629C34.451 30.6699 34.4231 30.6768 34.4022 30.6837C34.5557 30.4138 34.8139 30.2547 35.0442 30.054C35.107 29.9986 35.1907 29.9571 35.1209 29.8394C35.0791 29.7633 35.114 29.6526 35.1837 29.5972C35.3582 29.4658 35.5327 29.3343 35.7211 29.2236C35.8188 29.1682 35.8885 29.2582 35.8885 29.362C35.8885 29.4658 35.8467 29.5626 35.7769 29.6388C35.5815 29.8464 35.4768 30.1301 35.2396 30.31C35.2466 30.3239 35.2675 30.3446 35.3024 30.3585C35.3931 30.3723 35.4768 30.3239 35.5606 30.2962C37.4168 29.6318 39.3427 29.362 41.3036 29.272C41.5339 29.2651 41.7641 29.272 41.9735 29.1544C41.9805 29.1474 41.9805 29.1474 41.9874 29.1405C41.9735 29.1336 41.9665 29.1336 41.9526 29.1267C42.1061 28.6561 42.3084 28.2063 42.6225 27.8188C42.6574 27.7703 42.6992 27.7219 42.7132 27.6665C42.8737 27.0437 43.3691 26.6631 43.7808 26.2272C43.9134 26.0888 44.053 25.9503 44.1995 25.8258C44.2554 25.7773 44.2833 25.632 44.4019 25.7081C44.5135 25.7843 44.6671 25.8189 44.6671 25.9988C44.674 26.2687 44.695 26.5455 44.702 26.8154C44.7159 27.5973 44.7299 28.3862 44.7368 29.1682C44.7299 29.1682 44.7159 29.1682 44.7089 29.1682C44.7159 29.182 44.7229 29.1959 44.7368 29.2097C44.8276 29.2858 44.9322 29.272 45.0369 29.272C45.7487 29.2997 46.4674 29.355 47.1792 29.4173C48.3376 29.528 49.489 29.6734 50.6404 29.8533C50.7381 29.8671 50.8358 29.8879 50.9195 29.8256C51.1219 29.535 51.2195 29.2028 51.2614 28.8499C51.2754 28.7322 51.2824 28.6146 51.3452 28.5108C51.4568 28.3516 51.4987 28.1786 51.4568 27.9849C51.4359 27.888 51.4847 27.8119 51.5336 27.7357C51.7638 27.3551 51.9453 26.9468 52.0709 26.5178C52.2104 26.0541 52.3221 25.5905 52.5105 25.1407C52.5384 25.0715 52.5873 24.9885 52.5384 24.9262C52.4268 24.767 52.5105 24.6286 52.5594 24.4833C52.6291 24.2757 52.6989 24.075 52.7827 23.8812C53.006 23.3415 53.1176 22.7533 53.5363 22.3104C53.5782 22.2619 53.6061 22.1927 53.62 22.1304C53.7247 21.7844 53.8852 21.4523 54.0248 21.1201C54.3318 20.3797 54.6528 19.6461 55.0575 18.9541C55.1203 18.8503 55.1901 18.7534 55.2111 18.6358C55.2599 18.3867 55.3855 18.1791 55.532 17.9784C55.867 17.5217 56.0833 17.0026 56.2648 16.4698C56.3276 16.276 56.4113 16.0961 56.5927 15.9854C56.6695 15.9369 56.7044 15.8677 56.7114 15.7847C56.7253 15.7017 56.7462 15.6255 56.8021 15.5563C56.9486 15.3764 57.0114 15.1688 57.0393 14.9404C57.0672 14.6636 57.2208 14.4284 57.3882 14.2346C57.5906 13.9924 57.7232 13.7294 57.7999 13.4388C57.8488 13.2727 57.9256 13.1412 58.0651 13.0443C58.1907 12.9475 58.3094 12.8437 58.3582 12.6914C58.4001 12.5599 58.4699 12.4561 58.5815 12.3662C58.6862 12.2831 58.7699 12.1862 58.756 12.0478C58.742 11.861 58.8327 11.7295 58.9723 11.6326C59.3351 11.3835 59.6212 11.0721 59.8166 10.6777C59.8445 10.6223 59.8934 10.5669 59.9353 10.5185C60.3609 10.0964 60.661 9.57736 60.9959 9.09295C61.31 8.63623 61.6938 8.2487 62.1683 7.95114C62.2311 7.90962 62.3009 7.83349 62.3637 7.88194C62.4404 7.9373 62.3776 8.03418 62.3567 8.10338C62.3078 8.29022 62.245 8.47015 62.2241 8.66391C62.1822 9.12064 62.1264 9.57736 62.0566 10.0272C61.952 10.733 61.8822 11.4527 61.7775 12.1586C61.6868 12.816 61.6658 13.4872 61.603 14.1446C61.5891 14.29 61.61 14.4214 61.7147 14.5391C61.9868 14.8505 61.9799 14.8505 61.7147 15.1827C61.6868 15.2173 61.6589 15.2519 61.6379 15.2934C61.5542 15.4456 61.5193 15.5979 61.6519 15.7432C61.7566 15.8608 61.7356 16.0061 61.6519 16.1099C61.3449 16.4906 61.3449 16.9265 61.4077 17.3763C61.4356 17.5839 61.4216 17.7846 61.3239 17.9784C61.1564 18.3244 61.1006 18.6981 61.0657 19.0718C61.0169 19.6115 61.0099 20.1513 60.7936 20.6634C60.7378 20.7949 60.7657 20.9263 60.8215 21.0509C60.8634 21.1547 60.8424 21.2447 60.8145 21.3485C60.6889 21.7914 60.5005 22.2342 60.7308 22.6979C60.7657 22.774 60.7517 22.8571 60.7587 22.9401C60.7657 23.3899 60.7936 23.8328 60.7098 24.2826C60.6889 24.4002 60.6401 24.4556 60.5214 24.4556C60.4586 24.4556 60.3819 24.4418 60.347 24.5248C60.3191 24.6009 60.3679 24.6494 60.4168 24.6978C60.6121 24.8985 60.5284 25.1407 60.5005 25.3691C60.4935 25.4106 60.4586 25.4383 60.4098 25.459C60.1725 25.5697 60.1725 25.5767 60.3191 25.7981C60.5424 26.1372 60.4726 26.6147 60.1655 26.8707C60.1097 26.9192 60.0888 26.9814 60.0888 27.0506C60.1027 27.279 60.0399 27.4866 59.9771 27.7011C59.9283 27.8741 59.9492 28.0541 59.9771 28.2271C60.0609 28.6838 60.1795 29.1474 59.7748 29.528C59.7259 29.5765 59.7259 29.6526 59.712 29.7149C59.5584 30.3169 59.5864 30.9328 59.4887 31.5418C59.4817 31.5833 59.4887 31.6318 59.5236 31.6664C59.6003 31.7356 59.698 31.7425 59.7957 31.7632C61.4007 32.0885 63.0057 32.4068 64.6246 32.6559C64.8549 32.6905 65.0921 32.7528 65.3364 32.7044C65.3503 32.6975 65.3712 32.6905 65.3852 32.6836C65.3782 32.6767 65.3643 32.6767 65.3503 32.6698C65.5597 32.4345 65.6364 32.1508 65.6225 31.8532C65.6085 31.5902 65.6992 31.3204 65.462 31.0712C65.2945 30.8913 65.3713 30.5937 65.4061 30.3446C65.5248 30.4484 65.5248 30.4484 65.5178 30.6353C65.5178 30.6906 65.462 30.7737 65.5597 30.8013C65.6434 30.8221 65.7132 30.8083 65.769 30.7252C65.9295 30.483 65.9435 30.2201 65.9016 29.9571C65.8597 29.701 65.8318 29.4588 66.076 29.2789C66.1109 29.2512 66.1528 29.1682 66.1388 29.1474C66.0132 28.9744 66.1807 28.8706 66.2365 28.7461C66.3482 28.5039 66.2993 28.234 66.397 27.9918C66.397 27.9849 66.397 27.9849 66.397 27.9779C66.397 27.971 66.3901 27.9572 66.3901 27.9503C66.3691 27.9226 66.3273 27.9018 66.2993 27.8811C66.1598 27.7634 66.1947 27.6665 66.3273 27.5835C66.3901 27.542 66.4529 27.5074 66.5157 27.4659C66.6203 27.3897 66.6692 27.2859 66.5645 27.189C66.4529 27.0922 66.4808 27.0022 66.5366 26.8984C66.5785 26.8154 66.6203 26.7254 66.6622 26.6424C66.7878 26.3725 66.9413 26.1164 66.9623 25.7981C66.9832 25.4867 67.1577 25.2168 67.3182 24.9469C67.5275 24.5871 67.7229 24.2272 67.7648 23.8051C67.7787 23.6598 67.8694 23.5352 67.9462 23.4037C68.0509 23.2307 68.1486 23.0577 68.1067 22.8432C68.0997 22.8155 68.0997 22.774 68.1137 22.7602C68.33 22.5872 68.323 22.3311 68.3858 22.1028C68.4137 21.992 68.4765 21.8675 68.5882 21.8606C68.9301 21.8398 68.9092 21.5492 68.8882 21.3762C68.8673 21.1824 68.9231 21.0371 68.9999 20.8848C69.0627 20.7603 69.1046 20.6288 69.1674 20.5042C69.3628 20.1375 69.7954 20.1029 70.0466 20.4212C70.2141 20.6357 70.249 20.9125 70.3816 21.1409C70.4095 21.1962 70.3676 21.217 70.3257 21.2447C70.1583 21.3623 70.1932 21.4869 70.3118 21.6184C70.3467 21.653 70.3885 21.6876 70.4234 21.7291C70.549 21.8744 70.6746 22.0128 70.5072 22.2273C70.3885 22.3796 70.4374 22.5664 70.5002 22.7394C70.577 22.9678 70.7095 23.1823 70.6886 23.4314C70.6886 23.4383 70.6816 23.4522 70.6886 23.4522C71.1631 23.902 71.0375 24.5179 71.1073 25.0715C71.1492 25.4037 71.1631 25.7358 71.1422 26.068C71.1282 26.2894 71.3236 26.4209 71.3236 26.6285C71.3236 26.7046 71.3515 26.7738 71.3236 26.85C71.1561 27.3067 71.2678 27.7565 71.3445 28.2063C71.3585 28.2755 71.3864 28.3585 71.4422 28.4001C71.6516 28.5592 71.6725 28.7945 71.7214 29.016C71.7493 29.1474 71.7911 29.2858 71.5818 29.3204C71.4702 29.3412 71.533 29.4035 71.5539 29.4519C71.7004 29.7426 71.7702 30.054 71.7353 30.3723C71.7074 30.6422 71.854 30.8498 71.9168 31.092C72.0145 31.4657 71.9028 31.8048 71.7144 32.1231C71.4981 32.5037 71.191 32.8359 71.0096 33.2511H71.0026C71.0026 33.258 71.0026 33.2649 71.0026 33.2649C71.1073 33.4171 71.2678 33.3895 71.4074 33.3756C72.1261 33.3133 72.8518 33.341 73.5636 33.2441C74.4428 33.1265 75.3151 32.9881 76.1595 32.7113C76.2641 32.6767 76.3828 32.6629 76.4386 32.5521C76.4107 32.3099 76.4526 32.0885 76.62 31.8878C76.7108 31.7771 76.7596 31.6456 76.8015 31.5141C76.962 31.0436 76.9131 30.5661 76.8573 30.0886C76.8364 29.8948 76.8015 29.7149 76.941 29.5419C77.0248 29.4381 77.0387 29.2997 77.0666 29.1682C77.1225 28.8499 77.1015 28.5315 77.1085 28.2132C77.1294 28.0471 77.1015 27.9364 76.962 27.8603ZM36.8306 28.1371C36.7469 28.1302 36.6841 28.0817 36.6701 28.0125C36.6631 27.9433 36.7259 27.9018 36.8236 27.9018C36.8794 27.9018 36.9283 27.9226 36.9283 28.0125C36.9283 28.0817 36.9213 28.144 36.8306 28.1371ZM44.5275 18.0476C44.353 18.1929 44.2274 18.3728 44.1925 18.6012C44.1786 18.7119 44.1646 18.8296 44.0251 18.8157C43.8855 18.8019 43.9204 18.6427 43.8785 18.5527C43.8995 18.4213 43.9483 18.3036 44.046 18.2206C44.1646 18.1168 44.2833 18.0199 44.3949 17.9161C44.4717 17.8469 44.5415 17.8469 44.6043 17.9161C44.688 18.013 44.5624 18.013 44.5275 18.0476ZM51.2614 26.4624C51.2475 26.5593 51.1847 26.6354 51.1149 26.7046C50.9753 26.8361 50.9614 26.9953 50.9474 27.1821C50.9404 27.4105 50.8567 27.6527 50.759 27.8672C50.6334 28.144 50.6543 28.4416 50.5845 28.7253C50.5636 28.8084 50.6264 28.9398 50.4729 28.9468C50.3054 28.9606 50.3682 28.8014 50.3263 28.7184C50.3054 28.6838 50.3194 28.6284 50.3124 28.5869C50.3263 28.3447 50.3961 28.1094 50.4589 27.8741C50.4938 27.7357 50.5357 27.6043 50.5427 27.4659C50.5496 27.3344 50.5287 27.2029 50.6822 27.1268C50.7381 27.0991 50.7241 27.0299 50.7241 26.9676C50.7311 26.6977 50.8637 26.497 51.087 26.3448C51.1219 26.3171 51.1567 26.2825 51.2056 26.3102C51.2824 26.3517 51.2754 26.414 51.2614 26.4624ZM51.7987 25.5282C51.7429 25.6043 51.6801 25.5767 51.6033 25.5559C51.6313 25.4452 51.708 25.4659 51.7778 25.4729C51.7918 25.4798 51.8057 25.5213 51.7987 25.5282ZM53.0827 21.4592C52.9292 21.2862 52.9432 21.1478 53.1455 21.0094C53.1246 21.1824 53.1037 21.3208 53.0827 21.4592ZM57.0324 13.5979C56.9696 13.5841 57.0044 13.5357 57.0184 13.508C57.0254 13.4941 57.0463 13.4872 57.1091 13.4457C57.0742 13.5287 57.0463 13.5979 57.0324 13.5979ZM57.0533 13.4665C57.0672 13.2589 57.1161 13.1135 57.2347 12.9959C57.2417 13.1551 57.1649 13.2935 57.0533 13.4665ZM59.1049 9.97181C59.07 9.97181 59.049 9.94413 59.063 9.91645C59.077 9.88877 59.1049 9.84725 59.1328 9.84033C59.2235 9.82649 59.3212 9.82649 59.4328 9.81957C59.37 10.041 59.2235 9.97873 59.1049 9.97181ZM67.9601 8.31098C67.8694 8.56703 67.688 8.76771 67.5066 8.96147C67.4717 8.99607 67.4507 9.03067 67.4019 8.98915C67.2902 8.89227 67.1786 8.95455 67.0669 8.98915C67.032 9.00299 66.9972 9.05143 66.9553 8.99607C66.9134 8.93379 66.8995 8.87843 66.9413 8.80923C67.0111 8.68467 67.1228 8.62239 67.2623 8.59471C67.3391 8.58087 67.374 8.61547 67.367 8.69159C67.36 8.74695 67.3879 8.78155 67.4368 8.78155C67.4996 8.78155 67.4926 8.71927 67.4856 8.67775C67.4786 8.53935 67.5763 8.3871 67.374 8.29022C67.6252 8.20026 67.8345 8.08262 67.9113 7.81965C68.009 7.97882 68.0299 8.12414 67.9601 8.31098ZM76.5293 31.2027C76.4944 31.1474 76.4316 31.1197 76.4735 31.0781C76.5223 31.0228 76.5433 31.0712 76.5363 31.1197C76.5433 31.1335 76.5363 31.1543 76.5293 31.2027Z" fill="#050A05"/>
<path fill-rule="evenodd" clip-rule="evenodd" d="M73.9334 39.7906C73.2914 40.614 72.5936 41.3753 71.8469 42.1019C70.7932 43.133 69.6628 44.0741 68.4555 44.9322C67.7926 45.4097 67.018 45.6311 66.2365 45.818C65.1479 46.074 64.0384 46.0879 62.9219 46.0533C60.4237 45.9633 57.9813 45.5412 55.5599 44.9599C53.0408 44.3578 50.5705 43.5759 48.0793 42.8769C46.5651 42.4479 45.0369 42.0534 43.4807 41.7974C41.785 41.5206 40.0684 41.4514 38.3518 41.5413C36.4258 41.6382 34.5347 41.9496 32.6925 42.5171C32.4832 42.5794 32.1761 42.3026 32.218 42.088C32.3785 41.2507 32.7693 40.5172 33.3205 39.8667C34.4231 38.5588 35.8676 37.7422 37.4237 37.0709C38.1564 36.7595 38.924 36.6696 39.6986 36.5796C40.843 36.4412 41.9874 36.3928 43.1388 36.4135C44.7298 36.4412 46.3069 36.5935 47.877 36.8564C49.8239 37.1886 51.7289 37.6522 53.5921 38.3166C54.4992 38.6349 55.4413 38.8079 56.3764 39.0224C58.1558 39.4376 59.9561 39.7836 61.7565 40.0812C63.0056 40.2888 64.2547 40.4618 65.5177 40.5864C66.8855 40.7248 68.2532 40.8355 69.6279 40.787C70.8421 40.7524 72.0493 40.6556 73.1937 40.185C73.4519 40.0812 73.6822 39.929 73.9334 39.7906Z" fill="#003F81"/>
<path fill-rule="evenodd" clip-rule="evenodd" d="M31.7714 32.5797C32.5251 31.8392 33.3764 31.2234 34.3254 30.7528C34.3603 30.732 34.3882 30.6974 34.4231 30.6697C34.6883 30.5175 34.9465 30.3722 35.2535 30.3099C35.428 30.3099 35.5815 30.2199 35.742 30.1646C36.8934 29.7632 38.0727 29.5348 39.2799 29.3757C40.1243 29.265 40.9686 29.2165 41.813 29.1681C41.8688 29.1681 41.9246 29.1404 41.9805 29.1266C42.0642 29.0989 42.1549 29.092 42.2456 29.092C42.9644 29.092 43.6831 29.092 44.4089 29.092C44.5345 29.092 44.6601 29.085 44.7717 29.1612C45.0509 29.2442 45.3509 29.2165 45.637 29.2304C46.8024 29.2996 47.9677 29.4241 49.1261 29.5625C49.6774 29.6317 50.2287 29.7217 50.7799 29.8047C50.8427 29.8117 50.8986 29.8255 50.9544 29.7978C51.2126 29.7701 51.4568 29.8463 51.701 29.8878C53.2432 30.1507 54.7645 30.5313 56.2927 30.8704C57.2975 31.0919 58.3024 31.3064 59.3072 31.5278C59.4049 31.5486 59.4956 31.5624 59.5724 31.6386C60.4586 31.8185 61.3449 32.0053 62.2311 32.1714C63.1452 32.3375 64.0594 32.4897 64.9735 32.642C65.1131 32.6627 65.2526 32.6697 65.3922 32.6766C65.5108 32.6489 65.6294 32.6697 65.7481 32.6835C66.7808 32.7596 67.7997 32.9603 68.8254 33.0641C69.4535 33.1264 70.0815 33.1956 70.7165 33.1817C70.8212 33.1817 70.9259 33.161 71.0236 33.2233C71.0864 33.2855 71.1701 33.2855 71.2538 33.2855C72.6913 33.2579 74.1219 33.1679 75.5175 32.8081C75.8315 32.725 76.1455 32.6212 76.4595 32.5313C76.8503 32.3998 77.2271 32.2406 77.59 32.0607C77.9599 31.8808 78.3088 31.6662 78.6507 31.4379C78.6577 31.4656 78.6646 31.4794 78.6577 31.4863C77.925 33.7008 76.8294 35.6799 74.9523 37.1608C73.6125 38.2196 72.0912 38.8078 70.3816 38.9462C68.7208 39.0846 67.0739 38.96 65.4271 38.7524C63.1662 38.4618 60.9332 38.0604 58.7281 37.4791C56.9696 37.0155 55.1762 36.711 53.3898 36.3373C51.5685 35.9567 49.7402 35.5969 47.9119 35.237C45.9441 34.8495 43.9553 34.6488 41.9456 34.7249C39.587 34.8149 37.2423 35.0363 34.9674 35.7283C32.9577 36.3442 31.0736 37.2231 29.4058 38.5033C29.3779 38.5241 29.35 38.5448 29.2872 38.5864C29.2593 38.185 29.3012 37.8113 29.357 37.4445C29.5873 35.9152 30.1595 34.5312 31.1155 33.2994C31.2481 33.1333 31.3318 32.9257 31.5063 32.7942C31.6109 32.7389 31.6737 32.642 31.7714 32.5797Z" fill="#47A636"/>
<path fill-rule="evenodd" clip-rule="evenodd" d="M40.1381 14.5805C36.8514 14.5805 34.0671 12.3661 33.3972 9.27971C32.6924 5.99266 34.6254 2.63641 37.8911 1.61915C40.5847 0.774897 43.0061 1.34235 45.0089 3.3215C46.4254 4.71936 47.0465 6.46323 46.872 8.4493C46.6068 11.5011 44.311 13.9716 41.2755 14.4767C40.8848 14.5459 40.487 14.5944 40.1381 14.5805Z" fill="#E17513"/>
<path d="M146.43 40.41C146.58 39.72 146.7 39 146.79 38.22H145.44C145.38 39.03 145.26 39.72 145.11 40.41H140.4V41.61H144.72C143.94 43.77 142.38 45.27 139.38 46.23C139.65 46.44 140.07 46.92 140.22 47.22C143.61 46.11 145.26 44.31 146.1 41.61H150.96C150.69 44.19 150.39 45.27 150.06 45.63C149.88 45.84 149.61 45.84 149.16 45.84C148.74 45.84 147.48 45.84 146.13 45.69C146.31 46.05 146.46 46.53 146.49 46.89C147.78 46.98 149.01 46.98 149.64 46.98C150.33 46.95 150.75 46.83 151.14 46.44C151.71 45.93 152.01 44.52 152.37 41.04C152.4 40.83 152.43 40.41 152.43 40.41H146.43ZM163.2 40.83V44.85H155.88V40.83H163.2ZM154.56 47.16H155.88V46.05H163.2V47.04H164.58V39.63H154.56V47.16ZM157.59 34.02C157.23 34.77 156.6 35.85 156.06 36.66H148.68L149.85 36.24C149.64 35.58 149.01 34.68 148.29 34.02H157.59ZM144.78 30H161.46V32.88H144.78V30ZM157.8 34.02H162.87V28.83H143.4V34.02H147.81L146.97 34.29C147.6 34.95 148.23 35.97 148.5 36.66H140.13V37.89H165.78V36.66H157.59C158.07 35.97 158.55 35.16 159.03 34.41L157.8 34.02ZM153.66 22.29V20.04H152.22V22.29H140.13V23.49H152.22V25.71H142.05V26.91H164.01V25.71H153.66V23.49H165.99V22.29H153.66ZM201.21 30.51H188.64V28.11H198.36V26.94H188.64V24.6H200.01V23.37H193.2C193.8 22.53 194.52 21.48 195.12 20.46L193.68 19.95C193.2 20.91 192.36 22.44 191.67 23.37H183.96L184.23 23.25C183.81 22.32 182.85 21 181.95 20.01L180.72 20.52C181.44 21.36 182.19 22.5 182.64 23.37H175.95V24.6H187.2V26.94H177.57V28.11H187.2V30.51H174.72V31.77H201.21V30.51ZM199.35 35.13C198.33 34.26 196.29 33.18 194.61 32.52L193.8 33.48C195.51 34.14 197.49 35.28 198.51 36.18L199.35 35.13ZM197.4 38.88C196.44 40.11 195.15 41.22 193.68 42.18C192.96 41.07 192.36 39.72 191.88 38.19H201.24V36.96H191.55C191.22 35.52 190.98 33.96 190.92 32.28H189.51C189.6 33.93 189.81 35.49 190.14 36.96H182.76V34.2C184.77 33.96 186.63 33.63 188.07 33.3L187.11 32.28C184.35 32.97 179.19 33.54 174.99 33.78C175.14 34.11 175.32 34.56 175.41 34.89C177.27 34.77 179.34 34.62 181.32 34.38V36.96H174.72V38.19H181.32V40.89C178.74 41.13 176.4 41.31 174.57 41.46L174.75 42.72C176.58 42.54 178.86 42.33 181.32 42.09V45.48C181.32 45.87 181.23 45.99 180.75 45.99C180.3 46.02 178.74 46.02 176.91 45.96C177.12 46.35 177.36 46.86 177.42 47.19C179.73 47.19 181.05 47.19 181.77 46.95C182.52 46.8 182.76 46.38 182.76 45.48V41.94L188.67 41.31V40.2C186.69 40.38 184.68 40.59 182.76 40.77V38.19H190.47C190.98 39.99 191.67 41.58 192.51 42.9C190.29 44.16 187.74 45.15 185.25 45.87C185.52 46.17 185.91 46.8 186.09 47.07C188.49 46.29 190.98 45.24 193.23 43.92C194.82 45.99 196.83 47.19 199.02 47.19C200.7 47.16 201.33 46.29 201.6 43.2C201.21 43.08 200.7 42.84 200.4 42.57C200.25 45 200.01 45.78 199.08 45.81C197.4 45.84 195.75 44.88 194.4 43.2C196.08 42.09 197.58 40.8 198.69 39.36L197.4 38.88ZM231.72 19.8C229.77 21.54 225.96 23.19 222.63 24.36C222.84 24.69 223.05 25.14 223.17 25.47C226.56 24.27 230.46 22.71 232.77 20.85L231.72 19.8ZM212.07 38.73C211.38 40.77 210.33 42.96 209.28 44.55C209.61 44.7 210.18 45.03 210.42 45.21C211.44 43.62 212.55 41.19 213.33 39.06L212.07 38.73ZM212.22 33.18H219.54V35.76H212.22V33.18ZM219.54 22.32V24.93H212.22V22.32H219.54ZM219.54 29.67V32.04H212.22V29.67H219.54ZM219.54 28.56H212.22V26.07H219.54V28.56ZM222.48 37.02V35.76H220.86V21.12H210.93V35.76H209.43V37.02H215.31V47.19H216.63V37.02H222.48ZM218.34 39.03C219.24 40.59 220.29 42.66 220.77 44.01L221.91 43.44C221.43 42.15 220.32 40.11 219.39 38.55L218.34 39.03ZM225.06 37.83C224.46 40.05 223.35 42.87 222.09 44.82C222.45 44.97 222.96 45.27 223.2 45.39C224.52 43.41 225.66 40.5 226.38 38.19L225.06 37.83ZM234.45 35.88C234.75 36.54 235.02 37.14 235.14 37.65L236.28 37.05C235.74 35.43 234.33 32.82 232.95 30.9L231.9 31.35C232.59 32.37 233.31 33.6 233.91 34.74L225.84 35.31C228.96 33 232.14 29.94 235.08 26.67L233.88 25.92C233.25 26.73 232.53 27.51 231.84 28.29L226.23 28.71C227.88 27.6 229.53 26.22 231.15 24.6L229.95 24C228.24 25.95 225.78 27.81 225 28.29C224.34 28.71 223.77 29.01 223.29 29.07C223.47 29.43 223.62 30.06 223.68 30.36C224.16 30.18 224.94 30.06 230.61 29.55C228.48 31.68 226.44 33.42 225.63 34.05C224.52 34.95 223.59 35.58 222.99 35.64C223.14 36.03 223.35 36.75 223.44 37.02C223.86 36.84 224.52 36.75 228.6 36.39V45.72C228.6 45.99 228.54 46.05 228.24 46.08H226.14C226.32 46.41 226.47 46.83 226.56 47.19C227.88 47.19 228.75 47.16 229.26 46.95C229.77 46.77 229.92 46.47 229.92 45.75V36.27L234.45 35.88ZM231.72 38.04C232.95 40.23 234.39 43.23 235.08 44.94L236.28 44.37C235.56 42.72 234.06 39.81 232.83 37.59L231.72 38.04ZM255.63 36.78H259.98V38.97H255.63V36.78ZM254.55 39.99H261.06V35.79H254.55V39.99ZM252.24 34.26H263.43V41.49H252.24V34.26ZM250.98 42.57H264.69V33.18H250.98V42.57ZM253.2 25.38H262.47V27.84H253.2V25.38ZM258.45 30.57V28.92H263.79V24.33H251.94V28.92H257.1V30.57H248.58V31.65H267.21V30.57H258.45ZM246.93 44.58V22.65H268.8V44.58H246.93ZM245.55 21.36V47.13H246.93V45.87H268.8V47.13H270.21V21.36H245.55ZM300.9 39.36V41.58H284.91V39.36H300.9ZM284.91 45.06V42.69H300.9V45.06H284.91ZM283.5 47.25H284.91V46.2H300.9V47.19H302.34V38.19H283.5V47.25ZM293.43 26.67H300.78V28.83H293.43V26.67ZM293.43 23.37H300.78V25.47H293.43V23.37ZM293.43 35.28V33.15H304.11V32.01H293.43V29.97H302.19V26.67H305.97V25.47H302.19V22.23H293.43V19.98H291.99V22.23H282.9V23.37H291.99V25.47H279.66V26.67H291.99V28.83H282.54V29.97H291.99V32.01H281.61V33.15H291.99V35.28H279.63V36.51H306.03V35.28H293.43ZM322.86 30.27V33.15H317.31V30.27H322.86ZM317.31 37.53V34.35H322.86V37.53H317.31ZM320.97 39.99C321.45 40.8 321.99 41.73 322.47 42.66L317.31 44.79V38.76H324.21V29.07H315.99V44.22C315.99 45.36 315.3 45.69 314.94 45.87C315.18 46.2 315.42 46.83 315.51 47.19C316.02 46.77 316.74 46.41 322.98 43.65C323.49 44.64 323.91 45.54 324.21 46.23L325.32 45.63C324.66 44.16 323.25 41.52 322.05 39.54L320.97 39.99ZM317.85 25.65V26.82H322.83V25.65H317.85ZM320.31 19.92C318.87 22.56 316.38 25.02 313.95 26.61C314.19 26.91 314.61 27.54 314.73 27.81C316.71 26.46 318.69 24.54 320.25 22.41C321.81 23.52 323.61 24.96 324.6 25.86L325.38 24.78C324.36 23.88 322.47 22.5 320.91 21.39C321.12 21.03 321.36 20.67 321.54 20.34L320.31 19.92ZM338.34 39.33V44.34H329.19V39.33H338.34ZM337.08 29.25V33.81H329.19V29.25H337.08ZM329.19 35.07H338.31V27.99H327.9V47.16H329.19V45.66H338.34V46.98H339.66V38.04H329.19V35.07ZM333.66 23.52L334.44 23.13C334.14 22.29 333.54 20.97 333 19.95L331.83 20.46C332.28 21.36 332.85 22.62 333.12 23.52H325.77V28.08H326.94V24.78H339.63V28.08H340.86V23.52H333.66ZM143.152 66.182C144.468 66.182 145.42 65.636 146.204 64.726L145.728 64.194C145 64.992 144.23 65.426 143.194 65.426C141.052 65.426 139.722 63.648 139.722 60.862C139.722 58.104 141.08 56.368 143.236 56.368C144.174 56.368 144.902 56.774 145.448 57.39L145.924 56.844C145.378 56.2 144.44 55.612 143.236 55.612C140.646 55.612 138.84 57.628 138.84 60.89C138.84 64.152 140.632 66.182 143.152 66.182ZM147.897 66H148.709V60.414C149.577 59.518 150.193 59.07 151.061 59.07C152.209 59.07 152.699 59.784 152.699 61.338V66H153.511V61.226C153.511 59.308 152.797 58.342 151.243 58.342C150.221 58.342 149.451 58.93 148.695 59.686L148.709 58.062V54.87H147.897V66ZM155.861 66H156.673V58.538H155.861V66ZM156.281 56.788C156.645 56.788 156.967 56.522 156.967 56.144C156.967 55.724 156.645 55.472 156.281 55.472C155.903 55.472 155.595 55.724 155.595 56.144C155.595 56.522 155.903 56.788 156.281 56.788ZM160.829 66.182C161.781 66.182 162.677 65.664 163.433 65.048H163.461L163.545 66H164.231V61.268C164.231 59.616 163.601 58.342 161.823 58.342C160.605 58.342 159.569 58.93 158.995 59.322L159.359 59.91C159.877 59.518 160.731 59.056 161.711 59.056C163.125 59.056 163.447 60.204 163.419 61.31C160.129 61.688 158.659 62.472 158.659 64.124C158.659 65.51 159.625 66.182 160.829 66.182ZM160.997 65.496C160.171 65.496 159.471 65.104 159.471 64.082C159.471 62.934 160.479 62.248 163.419 61.912V64.334C162.537 65.104 161.823 65.496 160.997 65.496ZM166.343 69.36C167.715 69.36 168.471 68.156 168.919 66.868L171.831 58.538H171.005L169.479 63.102C169.269 63.746 169.031 64.53 168.807 65.202H168.737C168.471 64.53 168.191 63.746 167.953 63.102L166.217 58.538H165.335L168.387 66.112L168.191 66.742C167.827 67.82 167.225 68.632 166.329 68.632C166.119 68.632 165.881 68.576 165.727 68.52L165.545 69.206C165.755 69.304 166.049 69.36 166.343 69.36ZM173.137 66H173.949V58.538H173.137V66ZM173.557 56.788C173.921 56.788 174.243 56.522 174.243 56.144C174.243 55.724 173.921 55.472 173.557 55.472C173.179 55.472 172.871 55.724 172.871 56.144C172.871 56.522 173.179 56.788 173.557 56.788ZM183.028 66.182C184.344 66.182 185.296 65.636 186.08 64.726L185.604 64.194C184.876 64.992 184.106 65.426 183.07 65.426C180.928 65.426 179.598 63.648 179.598 60.862C179.598 58.104 180.956 56.368 183.112 56.368C184.05 56.368 184.778 56.774 185.324 57.39L185.8 56.844C185.254 56.2 184.316 55.612 183.112 55.612C180.522 55.612 178.716 57.628 178.716 60.89C178.716 64.152 180.508 66.182 183.028 66.182ZM190.531 66.182C192.337 66.182 193.905 64.754 193.905 62.276C193.905 59.784 192.337 58.342 190.531 58.342C188.725 58.342 187.157 59.784 187.157 62.276C187.157 64.754 188.725 66.182 190.531 66.182ZM190.531 65.482C189.075 65.482 188.011 64.18 188.011 62.276C188.011 60.372 189.075 59.056 190.531 59.056C191.987 59.056 193.065 60.372 193.065 62.276C193.065 64.18 191.987 65.482 190.531 65.482ZM197.948 66.182C198.984 66.182 199.74 65.608 200.468 64.768H200.51L200.58 66H201.266V58.538H200.454V63.998C199.614 65.006 198.998 65.454 198.13 65.454C196.982 65.454 196.506 64.74 196.506 63.214V58.538H195.694V63.312C195.694 65.23 196.394 66.182 197.948 66.182ZM203.784 66H204.596V60.414C205.464 59.518 206.08 59.07 206.948 59.07C208.096 59.07 208.586 59.784 208.586 61.338V66H209.398V61.226C209.398 59.308 208.684 58.342 207.13 58.342C206.108 58.342 205.338 58.93 204.582 59.672H204.554L204.456 58.538H203.784V66ZM213.902 66.182C214.238 66.182 214.714 66.056 215.148 65.902L214.952 65.272C214.686 65.384 214.322 65.482 214.042 65.482C213.048 65.482 212.796 64.866 212.796 63.928V59.224H214.938V58.538H212.796V56.382H212.11L212.012 58.538L210.822 58.608V59.224H211.984V63.872C211.984 65.258 212.432 66.182 213.902 66.182ZM216.234 69.36C217.606 69.36 218.362 68.156 218.81 66.868L221.722 58.538H220.896L219.37 63.102C219.16 63.746 218.922 64.53 218.698 65.202H218.628C218.362 64.53 218.082 63.746 217.844 63.102L216.108 58.538H215.226L218.278 66.112L218.082 66.742C217.718 67.82 217.116 68.632 216.22 68.632C216.01 68.632 215.772 68.576 215.618 68.52L215.436 69.206C215.646 69.304 215.94 69.36 216.234 69.36ZM225.935 66H226.775V61.688H228.637C230.905 61.688 232.305 60.708 232.305 58.664C232.305 56.55 230.891 55.794 228.581 55.794H225.935V66ZM226.775 60.988V56.494H228.413C230.443 56.494 231.451 57.012 231.451 58.664C231.451 60.302 230.485 60.988 228.469 60.988H226.775ZM236.285 66.182C237.321 66.182 238.077 65.608 238.805 64.768H238.847L238.917 66H239.603V58.538H238.791V63.998C237.951 65.006 237.335 65.454 236.467 65.454C235.319 65.454 234.843 64.74 234.843 63.214V58.538H234.031V63.312C234.031 65.23 234.731 66.182 236.285 66.182ZM245.117 66.182C246.867 66.182 248.407 64.698 248.407 62.15C248.407 59.854 247.399 58.342 245.411 58.342C244.515 58.342 243.633 58.86 242.891 59.49L242.933 58.062V54.87H242.121V66H242.779L242.877 65.244H242.905C243.591 65.818 244.417 66.182 245.117 66.182ZM245.047 65.468C244.501 65.468 243.703 65.23 242.933 64.558V60.246C243.773 59.476 244.543 59.056 245.257 59.056C246.923 59.056 247.539 60.358 247.539 62.15C247.539 64.152 246.503 65.468 245.047 65.468ZM251.271 66.182C251.537 66.182 251.677 66.14 251.817 66.098L251.691 65.454C251.537 65.482 251.481 65.482 251.425 65.482C251.229 65.482 251.089 65.328 251.089 64.978V54.87H250.277V64.894C250.277 65.762 250.599 66.182 251.271 66.182ZM253.729 66H254.541V58.538H253.729V66ZM254.149 56.788C254.513 56.788 254.835 56.522 254.835 56.144C254.835 55.724 254.513 55.472 254.149 55.472C253.771 55.472 253.463 55.724 253.463 56.144C253.463 56.522 253.771 56.788 254.149 56.788ZM259.845 66.182C260.783 66.182 261.581 65.776 262.225 65.216L261.833 64.656C261.329 65.104 260.657 65.482 259.887 65.482C258.319 65.482 257.283 64.18 257.283 62.276C257.283 60.372 258.417 59.056 259.901 59.056C260.601 59.056 261.147 59.378 261.609 59.812L262.071 59.252C261.553 58.79 260.881 58.342 259.887 58.342C258.039 58.342 256.429 59.784 256.429 62.276C256.429 64.754 257.899 66.182 259.845 66.182ZM266.659 66H272.147V65.272H267.499V55.794H266.659V66ZM273.609 66H274.421V58.538H273.609V66ZM274.029 56.788C274.393 56.788 274.715 56.522 274.715 56.144C274.715 55.724 274.393 55.472 274.029 55.472C273.651 55.472 273.343 55.724 273.343 56.144C273.343 56.522 273.651 56.788 274.029 56.788ZM279.921 66.182C281.671 66.182 283.211 64.698 283.211 62.15C283.211 59.854 282.203 58.342 280.215 58.342C279.319 58.342 278.437 58.86 277.695 59.49L277.737 58.062V54.87H276.925V66H277.583L277.681 65.244H277.709C278.395 65.818 279.221 66.182 279.921 66.182ZM279.851 65.468C279.305 65.468 278.507 65.23 277.737 64.558V60.246C278.577 59.476 279.347 59.056 280.061 59.056C281.727 59.056 282.343 60.358 282.343 62.15C282.343 64.152 281.307 65.468 279.851 65.468ZM285.08 66H285.892V60.988C286.438 59.602 287.236 59.112 287.894 59.112C288.188 59.112 288.328 59.14 288.58 59.238L288.748 58.51C288.51 58.384 288.286 58.342 287.992 58.342C287.124 58.342 286.382 58.986 285.878 59.924H285.85L285.752 58.538H285.08V66ZM291.142 66.182C292.094 66.182 292.99 65.664 293.746 65.048H293.774L293.858 66H294.544V61.268C294.544 59.616 293.914 58.342 292.136 58.342C290.918 58.342 289.882 58.93 289.308 59.322L289.672 59.91C290.19 59.518 291.044 59.056 292.024 59.056C293.438 59.056 293.76 60.204 293.732 61.31C290.442 61.688 288.972 62.472 288.972 64.124C288.972 65.51 289.938 66.182 291.142 66.182ZM291.31 65.496C290.484 65.496 289.784 65.104 289.784 64.082C289.784 62.934 290.792 62.248 293.732 61.912V64.334C292.85 65.104 292.136 65.496 291.31 65.496ZM296.866 66H297.678V60.988C298.224 59.602 299.022 59.112 299.68 59.112C299.974 59.112 300.114 59.14 300.366 59.238L300.534 58.51C300.296 58.384 300.072 58.342 299.778 58.342C298.91 58.342 298.168 58.986 297.664 59.924H297.636L297.538 58.538H296.866V66ZM301.927 69.36C303.299 69.36 304.055 68.156 304.503 66.868L307.415 58.538H306.589L305.063 63.102C304.853 63.746 304.615 64.53 304.391 65.202H304.321C304.055 64.53 303.775 63.746 303.537 63.102L301.801 58.538H300.919L303.971 66.112L303.775 66.742C303.411 67.82 302.809 68.632 301.913 68.632C301.703 68.632 301.465 68.576 301.311 68.52L301.129 69.206C301.339 69.304 301.633 69.36 301.927 69.36Z" fill="#333333"/>
</g>
<defs>
<clipPath id="clip0_124:15349">
<rect width="343" height="79" fill="white"/>
</clipPath>
</defs>
</svg>
