<svg width="43" height="43" viewBox="0 0 43 43" fill="none" xmlns="http://www.w3.org/2000/svg">
<path d="M30.4583 5.37508H37.6249C38.1001 5.37508 38.5558 5.56385 38.8918 5.89985C39.2278 6.23585 39.4166 6.69157 39.4166 7.16675V35.8334C39.4166 36.3086 39.2278 36.7643 38.8918 37.1003C38.5558 37.4363 38.1001 37.6251 37.6249 37.6251H5.37492C4.89974 37.6251 4.44402 37.4363 4.10802 37.1003C3.77202 36.7643 3.58325 36.3086 3.58325 35.8334V7.16675C3.58325 6.69157 3.77202 6.23585 4.10802 5.89985C4.44402 5.56385 4.89974 5.37508 5.37492 5.37508H12.5416V1.79175H16.1249V5.37508H26.8749V1.79175H30.4583V5.37508ZM7.16659 16.1251V34.0417H35.8333V16.1251H7.16659ZM10.7499 19.7084H14.3333V23.2917H10.7499V19.7084ZM10.7499 26.8751H14.3333V30.4584H10.7499V26.8751ZM17.9166 19.7084H32.2499V23.2917H17.9166V19.7084ZM17.9166 26.8751H26.8749V30.4584H17.9166V26.8751Z" fill="#333333"/>
</svg>
