<svg width="44" height="44" viewBox="0 0 44 44" fill="none" xmlns="http://www.w3.org/2000/svg">
<path d="M3.66676 22.0001C3.66676 11.8746 11.8746 3.66675 22.0001 3.66675C32.1256 3.66675 40.3334 11.8746 40.3334 22.0001C40.3334 32.1256 32.1256 40.3334 22.0001 40.3334H3.66676L9.0366 34.9636C7.33166 33.2631 5.97958 31.2424 5.05805 29.0177C4.13651 26.793 3.66369 24.4081 3.66676 22.0001ZM12.5181 36.6667H22.0001C24.9009 36.6667 27.7365 35.8066 30.1485 34.195C32.5604 32.5834 34.4402 30.2928 35.5503 27.6128C36.6604 24.9328 36.9509 21.9838 36.3849 19.1388C35.819 16.2937 34.4222 13.6804 32.371 11.6292C30.3198 9.57801 27.7065 8.18115 24.8614 7.61523C22.0164 7.04931 19.0674 7.33976 16.3874 8.44985C13.7074 9.55993 11.4168 11.4398 9.80521 13.8517C8.19362 16.2636 7.33343 19.0993 7.33343 22.0001C7.33343 25.9454 8.8936 29.6359 11.6289 32.3712L14.2213 34.9636L12.5181 36.6667ZM14.6668 23.8334H29.3334C29.3334 25.7783 28.5608 27.6436 27.1855 29.0189C25.8103 30.3941 23.945 31.1667 22.0001 31.1667C20.0552 31.1667 18.1899 30.3941 16.8146 29.0189C15.4394 27.6436 14.6668 25.7783 14.6668 23.8334Z" fill="#333333"/>
</svg>
