<svg width="40" height="42" viewBox="0 0 40 42" fill="none" xmlns="http://www.w3.org/2000/svg">
<path d="M37.8 0.166504H2.2C1.61652 0.166504 1.05695 0.407947 0.644365 0.837718C0.231785 1.26749 0 1.85038 0 2.45817V39.5415C0 39.8425 0.0569049 40.1405 0.167465 40.4185C0.278026 40.6965 0.440076 40.9492 0.644365 41.162C0.848654 41.3748 1.09118 41.5436 1.3581 41.6587C1.62501 41.7739 1.91109 41.8332 2.2 41.8332H21.36V25.6873H16.16V19.4373H21.36V14.7498C21.2523 13.6493 21.377 12.5376 21.7254 11.4926C22.0739 10.4476 22.6375 9.49473 23.3769 8.7007C24.1163 7.90667 25.0135 7.29076 26.0057 6.89617C26.9978 6.50158 28.0607 6.33786 29.12 6.4165C30.6767 6.40653 32.2326 6.49 33.78 6.6665V12.2915H30.6C28.08 12.2915 27.6 13.5415 27.6 15.354V19.3748H33.6L32.82 25.6248H27.6V41.8332H37.8C38.0889 41.8332 38.375 41.7739 38.6419 41.6587C38.9088 41.5436 39.1513 41.3748 39.3556 41.162C39.5599 40.9492 39.722 40.6965 39.8325 40.4185C39.9431 40.1405 40 39.8425 40 39.5415V2.45817C40 2.15722 39.9431 1.85923 39.8325 1.58119C39.722 1.30315 39.5599 1.05052 39.3556 0.837718C39.1513 0.624917 38.9088 0.456114 38.6419 0.340947C38.375 0.22578 38.0889 0.166504 37.8 0.166504Z" fill="white"/>
</svg>
