<svg width="44" height="44" viewBox="0 0 44 44" fill="none" xmlns="http://www.w3.org/2000/svg">
<path d="M39.2517 15.8398C39.2517 15.8398 39.2517 15.8398 39.2517 15.7482C37.9599 12.2212 35.616 9.17618 32.5371 7.02491C29.4582 4.87364 25.7927 3.71997 22.0367 3.71997C18.2807 3.71997 14.6152 4.87364 11.5363 7.02491C8.45736 9.17618 6.11347 12.2212 4.8217 15.7482C4.8217 15.7482 4.8217 15.7482 4.8217 15.8398C3.37909 19.8198 3.37909 24.1798 4.8217 28.1598C4.8217 28.1598 4.8217 28.1598 4.8217 28.2515C6.11347 31.7784 8.45736 34.8235 11.5363 36.9747C14.6152 39.126 18.2807 40.2797 22.0367 40.2797C25.7927 40.2797 29.4582 39.126 32.5371 36.9747C35.616 34.8235 37.9599 31.7784 39.2517 28.2515C39.2517 28.2515 39.2517 28.2515 39.2517 28.1598C40.6943 24.1798 40.6943 19.8198 39.2517 15.8398V15.8398ZM7.81003 25.6665C7.17428 23.2634 7.17428 20.7363 7.81003 18.3332H11.22C10.9268 20.7688 10.9268 23.2308 11.22 25.6665H7.81003ZM9.31337 29.3332H11.88C12.3104 30.9682 12.9254 32.5489 13.7134 34.0448C11.9154 32.82 10.4124 31.2106 9.31337 29.3332ZM11.88 14.6665H9.31337C10.3966 12.7948 11.8804 11.1858 13.6584 9.95482C12.8894 11.4531 12.2928 13.0338 11.88 14.6665V14.6665ZM20.1667 36.1165C17.9149 34.4641 16.3335 32.0561 15.7117 29.3332H20.1667V36.1165ZM20.1667 25.6665H14.9234C14.5812 23.234 14.5812 20.7656 14.9234 18.3332H20.1667V25.6665ZM20.1667 14.6665H15.7117C16.3335 11.9436 17.9149 9.53557 20.1667 7.88316V14.6665ZM34.6867 14.6665H32.12C31.6897 13.0314 31.0746 11.4507 30.2867 9.95482C32.0847 11.1796 33.5876 12.789 34.6867 14.6665ZM23.8334 7.88316C26.0851 9.53557 27.6666 11.9436 28.2884 14.6665H23.8334V7.88316ZM23.8334 36.1165V29.3332H28.2884C27.6666 32.0561 26.0851 34.4641 23.8334 36.1165V36.1165ZM29.0767 25.6665H23.8334V18.3332H29.0767C29.4188 20.7656 29.4188 23.234 29.0767 25.6665ZM30.3417 34.0448C31.1296 32.5489 31.7447 30.9682 32.175 29.3332H34.7417C33.6426 31.2106 32.1397 32.82 30.3417 34.0448ZM36.19 25.6665H32.78C32.9291 24.45 33.0026 23.2254 33 21.9998C33.0021 20.7742 32.9286 19.5497 32.78 18.3332H36.19C36.8258 20.7363 36.8258 23.2634 36.19 25.6665Z" fill="white"/>
</svg>
