<svg width="44" height="44" viewBox="0 0 44 44" fill="none" xmlns="http://www.w3.org/2000/svg">
<path d="M10.5656 31.1667H36.6668V9.16667H7.33342V33.7058L10.5656 31.1667ZM11.8342 34.8333L3.66675 41.25V7.33333C3.66675 6.8471 3.8599 6.38079 4.20372 6.03697C4.54754 5.69315 5.01385 5.5 5.50008 5.5H38.5001C38.9863 5.5 39.4526 5.69315 39.7965 6.03697C40.1403 6.38079 40.3334 6.8471 40.3334 7.33333V33C40.3334 33.4862 40.1403 33.9525 39.7965 34.2964C39.4526 34.6402 38.9863 34.8333 38.5001 34.8333H11.8342ZM20.1667 25.6667H23.8334V29.3333H20.1667V25.6667ZM15.7063 16.1572C15.9444 14.9651 16.5163 13.8652 17.3551 12.9855C18.194 12.1057 19.2655 11.4822 20.4449 11.1877C21.6243 10.8931 22.8631 10.9395 24.0171 11.3214C25.1711 11.7034 26.193 12.4052 26.9637 13.3452C27.7345 14.2853 28.2225 15.4248 28.3708 16.6314C28.5192 17.8379 28.3219 19.0618 27.8019 20.1605C27.2819 21.2593 26.4605 22.1878 25.4334 22.838C24.4063 23.4882 23.2157 23.8334 22.0001 23.8333H20.1667V20.1667H22.0001C22.5209 20.1666 23.031 20.0187 23.471 19.7401C23.911 19.4615 24.2629 19.0637 24.4857 18.5929C24.7084 18.1221 24.7929 17.5978 24.7293 17.0809C24.6657 16.564 24.4567 16.0757 24.1264 15.673C23.7962 15.2703 23.3584 14.9696 22.864 14.8059C22.3696 14.6423 21.8388 14.6224 21.3335 14.7486C20.8282 14.8748 20.3692 15.1419 20.0098 15.5188C19.6503 15.8957 19.4053 16.367 19.3033 16.8777L15.7063 16.1572Z" fill="#333333"/>
</svg>
